{"glyphs":{"0":{"ha":720,"x_min":69,"x_max":652,"o":"m 69 384 q 150 682 69 574 q 369 789 231 789 q 574 685 496 789 q 652 394 652 581 q 572 96 652 209 q 357 -17 492 -17 q 147 93 226 -17 q 69 384 69 202 m 177 391 q 225 152 177 235 q 358 69 274 69 q 496 153 448 69 q 544 394 544 238 q 498 623 544 544 q 362 703 453 703 q 225 625 274 703 q 177 391 177 547 z "},"1":{"ha":412,"x_min":69,"x_max":291,"o":"m 189 0 l 189 686 l 69 686 l 69 772 l 291 772 l 291 0 l 189 0 z "},"2":{"ha":617,"x_min":51,"x_max":566,"o":"m 566 189 l 566 0 l 51 0 l 51 77 q 321 342 213 207 q 429 569 429 477 q 400 667 429 631 q 291 703 370 703 q 158 674 225 703 l 158 549 l 69 549 l 69 724 q 303 789 187 789 q 477 733 417 789 q 537 580 537 677 q 428 331 537 468 q 189 89 319 194 l 189 86 l 477 86 l 477 189 l 566 189 z "},"3":{"ha":617,"x_min":17,"x_max":566,"o":"m 17 -55 q 216 -84 115 -84 q 396 -37 334 -84 q 458 105 458 10 q 399 235 458 194 q 221 276 340 276 l 171 276 l 171 360 l 206 360 q 366 412 309 360 q 424 554 424 463 q 384 664 424 626 q 261 703 345 703 q 123 677 185 703 l 123 566 l 34 566 l 34 729 q 267 789 147 789 q 461 725 391 789 q 532 561 532 662 q 367 333 532 408 l 367 329 q 566 105 566 286 q 543 -6 566 45 q 475 -93 520 -57 q 364 -151 430 -130 q 211 -171 297 -171 q 17 -144 108 -171 l 17 -55 z "},"4":{"ha":720,"x_min":34,"x_max":669,"o":"m 463 103 l 34 103 l 34 178 l 482 772 l 566 772 l 566 189 l 669 189 l 669 103 l 566 103 l 566 -103 l 463 -103 l 463 103 m 149 189 l 463 189 l 463 604 l 460 604 l 149 192 l 149 189 z "},"5":{"ha":669,"x_min":69,"x_max":600,"o":"m 69 -62 q 238 -84 153 -84 q 425 -30 358 -84 q 492 135 492 24 q 426 290 492 237 q 221 343 360 343 q 86 336 158 343 l 86 772 l 552 772 l 552 583 l 463 583 l 463 686 l 180 686 l 180 425 q 245 429 216 429 q 502 356 405 429 q 600 142 600 283 q 502 -83 600 5 q 235 -171 405 -171 q 69 -153 146 -171 l 69 -62 z "},"6":{"ha":720,"x_min":69,"x_max":669,"o":"m 600 849 q 506 857 544 857 q 263 757 345 857 q 177 473 182 657 l 180 472 q 401 566 271 566 q 594 490 520 566 q 669 302 669 415 q 588 87 669 175 q 377 0 508 0 q 151 112 233 0 q 69 432 69 225 q 184 806 69 669 q 506 943 300 943 q 600 934 547 943 l 600 849 m 177 389 q 236 171 185 255 q 381 86 286 86 q 510 139 460 86 q 561 286 561 192 q 514 427 561 374 q 382 480 466 480 q 177 389 266 480 z "},"7":{"ha":617,"x_min":51,"x_max":600,"o":"m 189 -154 q 224 67 194 -46 q 297 289 254 180 q 391 498 340 398 q 492 682 442 598 l 490 686 l 141 686 l 141 571 l 51 571 l 51 772 l 600 772 l 600 698 q 488 497 540 600 q 395 288 436 394 q 331 71 355 182 q 305 -154 307 -39 l 189 -154 z "},"8":{"ha":720,"x_min":63,"x_max":657,"o":"m 249 489 l 249 492 q 81 706 81 576 q 162 878 81 813 q 370 943 243 943 q 568 883 496 943 q 640 724 640 823 q 461 499 640 590 l 461 496 q 609 384 561 444 q 657 249 657 324 q 573 71 657 142 q 353 0 489 0 q 142 65 221 0 q 63 235 63 130 q 249 489 63 393 m 324 451 q 171 240 171 374 q 223 124 171 163 q 357 86 274 86 q 496 127 444 86 q 549 233 549 168 q 495 347 549 298 q 324 451 441 396 m 389 535 q 537 720 537 616 q 488 823 537 789 q 362 857 439 857 q 234 823 285 857 q 183 729 183 789 q 200 668 183 694 q 243 619 216 641 q 309 577 271 597 q 389 535 346 557 z "},"9":{"ha":720,"x_min":51,"x_max":652,"o":"m 120 -77 q 214 -86 175 -86 q 456 18 374 -86 q 544 314 538 122 l 540 316 q 319 223 449 223 q 126 298 201 223 q 51 490 51 374 q 132 703 51 617 q 343 789 213 789 q 570 676 489 789 q 652 357 652 564 q 535 -29 652 113 q 214 -171 418 -171 q 120 -163 173 -171 l 120 -77 m 544 400 q 484 618 535 533 q 340 703 434 703 q 210 650 261 703 q 159 502 159 597 q 207 362 159 415 q 338 309 254 309 q 544 400 453 309 z "},"\u0000":{"ha":0,"x_min":0,"x_max":0,"o":""},"\r":{"ha":257,"x_min":0,"x_max":0,"o":""}," ":{"ha":257,"x_min":0,"x_max":0,"o":""}," ":{"ha":257,"x_min":0,"x_max":0,"o":""},"A":{"ha":823,"x_min":0,"x_max":823,"o":"m 274 86 l 274 0 l 0 0 l 0 86 l 86 86 l 362 934 l 461 934 l 742 86 l 823 86 l 823 0 l 549 0 l 549 86 l 634 86 l 550 343 l 264 343 l 183 86 l 274 86 m 403 789 l 290 429 l 523 429 l 406 789 l 403 789 z "},"B":{"ha":772,"x_min":51,"x_max":703,"o":"m 526 501 q 660 417 617 478 q 703 271 703 355 q 620 72 703 144 q 364 0 537 0 l 51 0 l 51 86 l 154 86 l 154 840 l 51 840 l 51 926 l 365 926 q 593 869 520 926 q 667 706 667 813 q 634 582 667 634 q 526 504 600 530 l 526 501 m 367 86 q 538 128 482 86 q 593 271 593 170 q 541 403 593 360 q 376 446 489 446 l 257 446 l 257 86 l 367 86 m 367 532 q 559 691 559 532 q 511 806 559 772 q 358 840 463 840 l 257 840 l 257 532 l 367 532 z "},"C":{"ha":772,"x_min":69,"x_max":720,"o":"m 720 51 q 463 -17 593 -17 q 174 111 279 -17 q 69 463 69 238 q 177 814 69 686 q 465 943 285 943 q 720 888 590 943 l 720 686 l 626 686 l 626 821 q 461 849 557 849 q 250 755 324 849 q 177 470 177 662 q 254 173 177 269 q 468 77 331 77 q 720 146 583 77 l 720 51 z "},"D":{"ha":874,"x_min":51,"x_max":794,"o":"m 51 86 l 154 86 l 154 840 l 51 840 l 51 926 l 358 926 q 688 815 581 926 q 794 487 794 705 q 673 123 794 247 q 328 0 552 0 l 51 0 l 51 86 m 257 86 l 340 86 q 596 180 506 86 q 686 477 686 274 q 604 753 686 665 q 340 840 521 840 l 257 840 l 257 86 z "},"E":{"ha":720,"x_min":51,"x_max":669,"o":"m 578 86 l 578 206 l 669 206 l 669 0 l 51 0 l 51 86 l 154 86 l 154 840 l 51 840 l 51 926 l 652 926 l 652 720 l 561 720 l 561 840 l 257 840 l 257 514 l 429 514 l 429 600 l 514 600 l 514 326 l 429 326 l 429 429 l 257 429 l 257 86 l 578 86 z "},"F":{"ha":669,"x_min":51,"x_max":652,"o":"m 257 412 l 257 86 l 377 86 l 377 0 l 51 0 l 51 86 l 154 86 l 154 840 l 51 840 l 51 926 l 652 926 l 652 720 l 561 720 l 561 840 l 257 840 l 257 497 l 446 497 l 446 583 l 532 583 l 532 309 l 446 309 l 446 412 l 257 412 z "},"G":{"ha":874,"x_min":69,"x_max":823,"o":"m 532 429 l 823 429 l 823 343 l 754 343 l 754 43 q 487 -17 626 -17 q 178 111 288 -17 q 69 463 69 238 q 182 814 69 686 q 485 943 295 943 q 754 888 617 943 l 754 669 l 660 669 l 660 821 q 482 849 585 849 q 255 755 334 849 q 177 470 177 662 q 259 173 177 269 q 490 77 341 77 q 653 101 569 77 l 653 343 l 532 343 l 532 429 z "},"H":{"ha":977,"x_min":51,"x_max":926,"o":"m 51 86 l 154 86 l 154 840 l 51 840 l 51 926 l 360 926 l 360 840 l 257 840 l 257 514 l 720 514 l 720 840 l 617 840 l 617 926 l 926 926 l 926 840 l 823 840 l 823 86 l 926 86 l 926 0 l 617 0 l 617 86 l 720 86 l 720 429 l 257 429 l 257 86 l 360 86 l 360 0 l 51 0 l 51 86 z "},"I":{"ha":412,"x_min":51,"x_max":360,"o":"m 51 86 l 154 86 l 154 840 l 51 840 l 51 926 l 360 926 l 360 840 l 257 840 l 257 86 l 360 86 l 360 0 l 51 0 l 51 86 z "},"J":{"ha":412,"x_min":10,"x_max":360,"o":"m 10 -163 q 51 -165 33 -165 q 131 -139 108 -165 q 154 -34 154 -113 l 154 840 l 51 840 l 51 926 l 360 926 l 360 840 l 257 840 l 257 -22 q 213 -197 257 -137 q 62 -257 170 -257 q 10 -252 36 -257 l 10 -163 z "},"K":{"ha":823,"x_min":51,"x_max":823,"o":"m 514 840 l 514 926 l 789 926 l 789 840 l 703 840 l 388 490 l 718 86 l 823 86 l 823 0 l 514 0 l 514 86 l 585 86 l 585 89 l 266 482 l 586 837 l 586 840 l 514 840 m 51 86 l 154 86 l 154 840 l 51 840 l 51 926 l 360 926 l 360 840 l 257 840 l 257 86 l 360 86 l 360 0 l 51 0 l 51 86 z "},"L":{"ha":669,"x_min":51,"x_max":634,"o":"m 360 840 l 257 840 l 257 86 l 544 86 l 544 206 l 634 206 l 634 0 l 51 0 l 51 86 l 154 86 l 154 840 l 51 840 l 51 926 l 360 926 l 360 840 z "},"M":{"ha":1183,"x_min":34,"x_max":1149,"o":"m 924 777 l 624 -9 l 545 -9 l 247 761 l 243 761 l 226 86 l 309 86 l 309 0 l 34 0 l 34 86 l 132 86 l 154 840 l 53 840 l 53 926 l 293 926 l 590 159 l 593 159 l 885 926 l 1127 926 l 1127 840 l 1029 840 l 1048 86 l 1149 86 l 1149 0 l 857 0 l 857 86 l 945 86 l 928 777 l 924 777 z "},"N":{"ha":926,"x_min":51,"x_max":874,"o":"m 676 840 l 573 840 l 573 926 l 874 926 l 874 840 l 772 840 l 772 0 l 672 0 l 254 722 l 250 722 l 250 86 l 353 86 l 353 0 l 51 0 l 51 86 l 154 86 l 154 840 l 51 840 l 51 926 l 257 926 l 672 213 l 676 213 l 676 840 z "},"O":{"ha":874,"x_min":81,"x_max":794,"o":"m 81 465 q 179 815 81 688 q 446 943 278 943 q 702 820 610 943 q 794 477 794 696 q 695 113 794 243 q 432 -17 597 -17 q 177 111 273 -17 q 81 465 81 238 m 189 470 q 255 177 189 278 q 437 77 321 77 q 620 177 554 77 q 686 472 686 278 q 623 754 686 658 q 441 849 561 849 q 254 756 319 849 q 189 470 189 664 z "},"P":{"ha":720,"x_min":51,"x_max":657,"o":"m 257 377 l 257 86 l 377 86 l 377 0 l 51 0 l 51 86 l 154 86 l 154 840 l 51 840 l 51 926 l 362 926 q 585 860 513 926 q 657 669 657 794 q 575 452 657 526 q 338 377 494 377 l 257 377 m 343 463 q 496 508 442 463 q 549 657 549 554 q 501 801 549 761 q 352 840 453 840 l 257 840 l 257 463 l 343 463 z "},"Q":{"ha":874,"x_min":81,"x_max":977,"o":"m 81 465 q 180 815 81 688 q 446 943 279 943 q 701 820 609 943 q 794 477 794 696 q 722 153 794 273 q 544 2 650 33 l 544 -2 q 660 -125 588 -82 q 818 -168 732 -168 q 977 -135 900 -168 l 977 -223 q 806 -257 897 -257 q 587 -191 688 -257 q 425 -17 487 -125 q 175 114 269 -12 q 81 465 81 240 m 189 470 q 255 177 189 278 q 437 77 321 77 q 620 177 554 77 q 686 472 686 278 q 624 754 686 658 q 441 849 562 849 q 254 756 319 849 q 189 470 189 664 z "},"R":{"ha":772,"x_min":51,"x_max":772,"o":"m 257 86 l 360 86 l 360 0 l 51 0 l 51 86 l 154 86 l 154 840 l 63 840 l 63 926 l 362 926 q 595 868 521 926 q 669 694 669 809 q 453 444 669 490 l 453 441 q 504 399 477 427 q 573 293 532 370 l 686 86 l 772 86 l 772 0 l 607 0 q 568 82 586 46 q 532 149 549 118 l 468 267 q 413 358 434 328 q 367 410 393 389 q 300 429 341 429 l 257 429 l 257 86 m 340 514 q 505 555 449 514 q 561 684 561 595 q 510 806 561 772 q 352 840 460 840 l 257 840 l 257 514 l 340 514 z "},"S":{"ha":669,"x_min":51,"x_max":617,"o":"m 303 -17 q 62 31 173 -17 l 62 223 l 154 223 l 154 96 q 312 74 214 74 q 459 117 406 74 q 511 237 511 161 q 496 304 511 276 q 457 354 482 333 q 394 394 432 376 q 309 430 357 412 q 217 467 262 448 q 135 516 171 487 q 75 590 98 545 q 51 696 51 634 q 134 875 51 808 q 357 943 216 943 q 583 892 480 943 l 583 703 l 490 703 l 490 826 q 348 852 429 852 q 206 808 254 852 q 158 701 158 763 q 172 637 158 664 q 213 590 187 610 q 279 554 240 569 q 365 520 317 538 q 459 479 413 501 q 539 428 504 458 q 596 354 574 398 q 617 243 617 310 q 532 54 617 125 q 303 -17 448 -17 z "},"T":{"ha":720,"x_min":29,"x_max":691,"o":"m 189 86 l 309 86 l 309 840 l 120 840 l 120 703 l 29 703 l 29 926 l 691 926 l 691 703 l 600 703 l 600 840 l 412 840 l 412 86 l 532 86 l 532 0 l 189 0 l 189 86 z "},"U":{"ha":926,"x_min":34,"x_max":892,"o":"m 240 297 q 300 133 240 189 q 461 77 360 77 q 632 135 571 77 q 693 302 693 194 l 693 840 l 588 840 l 588 926 l 892 926 l 892 840 l 789 840 l 789 307 q 700 73 789 163 q 460 -17 612 -17 q 225 68 312 -17 q 137 295 137 153 l 137 840 l 34 840 l 34 926 l 343 926 l 343 840 l 240 840 l 240 297 z "},"V":{"ha":823,"x_min":0,"x_max":823,"o":"m 420 137 l 636 840 l 549 840 l 549 926 l 823 926 l 823 840 l 734 840 l 461 -9 l 362 -9 l 84 840 l 0 840 l 0 926 l 274 926 l 274 840 l 192 840 l 417 137 l 420 137 z "},"W":{"ha":1235,"x_min":0,"x_max":1235,"o":"m 840 137 l 1048 840 l 960 840 l 960 926 l 1235 926 l 1235 840 l 1145 840 l 881 -9 l 782 -9 l 617 494 l 614 494 l 453 -9 l 353 -9 l 84 840 l 0 840 l 0 926 l 274 926 l 274 840 l 192 840 l 408 137 l 412 137 l 571 633 l 502 840 l 412 840 l 412 926 l 703 926 l 703 840 l 605 840 l 837 137 l 840 137 z "},"X":{"ha":772,"x_min":0,"x_max":772,"o":"m 110 840 l 17 840 l 17 926 l 309 926 l 309 840 l 226 840 l 394 562 l 566 840 l 480 840 l 480 926 l 754 926 l 754 840 l 670 840 l 442 484 l 686 86 l 772 86 l 772 0 l 480 0 l 480 86 l 568 86 l 374 403 l 187 86 l 274 86 l 274 0 l 0 0 l 0 86 l 82 86 l 328 480 l 110 840 z "},"Y":{"ha":823,"x_min":0,"x_max":823,"o":"m 360 412 l 79 840 l 0 840 l 0 926 l 274 926 l 274 840 l 195 840 l 418 501 l 634 840 l 549 840 l 549 926 l 823 926 l 823 840 l 742 840 l 463 412 l 463 86 l 583 86 l 583 0 l 240 0 l 240 86 l 360 86 l 360 412 z "},"Z":{"ha":772,"x_min":51,"x_max":703,"o":"m 51 77 l 554 840 l 159 840 l 159 720 l 69 720 l 69 926 l 686 926 l 686 849 l 183 86 l 612 86 l 612 206 l 703 206 l 703 0 l 51 0 l 51 77 z "},"À":{"ha":823,"x_min":0,"x_max":823,"o":"m 274 86 l 274 0 l 0 0 l 0 86 l 86 86 l 362 934 l 461 934 l 742 86 l 823 86 l 823 0 l 549 0 l 549 86 l 634 86 l 550 343 l 264 343 l 183 86 l 274 86 m 403 789 l 290 429 l 523 429 l 406 789 l 403 789 m 454 995 l 379 995 l 231 1183 l 352 1183 l 454 995 z "},"Á":{"ha":823,"x_min":0,"x_max":823,"o":"m 274 86 l 274 0 l 0 0 l 0 86 l 86 86 l 362 934 l 461 934 l 742 86 l 823 86 l 823 0 l 549 0 l 549 86 l 634 86 l 550 343 l 264 343 l 183 86 l 274 86 m 403 789 l 290 429 l 523 429 l 406 789 l 403 789 m 472 1183 l 592 1183 l 444 995 l 369 995 l 472 1183 z "},"Â":{"ha":823,"x_min":0,"x_max":823,"o":"m 274 86 l 274 0 l 0 0 l 0 86 l 86 86 l 362 934 l 461 934 l 742 86 l 823 86 l 823 0 l 549 0 l 549 86 l 634 86 l 550 343 l 264 343 l 183 86 l 274 86 m 403 789 l 290 429 l 523 429 l 406 789 l 403 789 m 410 1104 l 326 995 l 223 995 l 369 1183 l 454 1183 l 600 995 l 497 995 l 413 1104 l 410 1104 z "},"Ã":{"ha":823,"x_min":0,"x_max":823,"o":"m 274 86 l 274 0 l 0 0 l 0 86 l 86 86 l 362 934 l 461 934 l 742 86 l 823 86 l 823 0 l 549 0 l 549 86 l 634 86 l 550 343 l 264 343 l 183 86 l 274 86 m 403 789 l 290 429 l 523 429 l 406 789 l 403 789 m 231 1000 l 231 1087 q 324 1123 271 1123 q 427 1091 367 1123 q 502 1068 472 1068 q 588 1108 554 1068 l 592 1108 l 592 1020 q 499 984 552 984 q 396 1017 456 984 q 321 1039 352 1039 q 235 1000 269 1039 l 231 1000 z "},"Ä":{"ha":823,"x_min":0,"x_max":823,"o":"m 274 86 l 274 0 l 0 0 l 0 86 l 86 86 l 362 934 l 461 934 l 742 86 l 823 86 l 823 0 l 549 0 l 549 86 l 634 86 l 550 343 l 264 343 l 183 86 l 274 86 m 403 789 l 290 429 l 523 429 l 406 789 l 403 789 m 214 1063 q 234 1117 214 1097 q 285 1137 254 1137 q 338 1117 319 1137 q 357 1065 357 1097 q 338 1013 357 1032 q 283 995 319 995 q 233 1013 252 995 q 214 1063 214 1032 m 466 1063 q 486 1117 466 1097 q 537 1137 506 1137 q 590 1117 571 1137 q 609 1065 609 1097 q 590 1013 609 1032 q 535 995 571 995 q 485 1013 504 995 q 466 1063 466 1032 z "},"Ā":{"ha":823,"x_min":0,"x_max":823,"o":"m 274 86 l 274 0 l 0 0 l 0 86 l 86 86 l 362 934 l 461 934 l 742 86 l 823 86 l 823 0 l 549 0 l 549 86 l 634 86 l 550 343 l 264 343 l 183 86 l 274 86 m 403 789 l 290 429 l 523 429 l 406 789 l 403 789 m 249 1092 l 574 1092 l 574 1012 l 249 1012 l 249 1092 z "},"Ă":{"ha":823,"x_min":0,"x_max":823,"o":"m 274 86 l 274 0 l 0 0 l 0 86 l 86 86 l 362 934 l 461 934 l 742 86 l 823 86 l 823 0 l 549 0 l 549 86 l 634 86 l 550 343 l 264 343 l 183 86 l 274 86 m 403 789 l 290 429 l 523 429 l 406 789 l 403 789 m 412 1073 q 487 1101 458 1073 q 521 1183 516 1128 l 597 1183 q 540 1043 590 1092 q 412 995 490 995 q 283 1043 333 995 q 226 1183 233 1092 l 302 1183 q 336 1101 307 1128 q 412 1073 365 1073 z "},"Å":{"ha":823,"x_min":0,"x_max":823,"o":"m 274 86 l 274 0 l 0 0 l 0 86 l 86 86 l 362 934 l 461 934 l 742 86 l 823 86 l 823 0 l 549 0 l 549 86 l 634 86 l 550 343 l 264 343 l 183 86 l 274 86 m 403 789 l 290 429 l 523 429 l 406 789 l 403 789 m 288 1092 q 322 1172 288 1144 q 415 1200 357 1200 q 504 1172 473 1200 q 535 1096 535 1144 q 502 1017 535 1048 q 408 986 468 986 q 320 1016 352 986 q 288 1092 288 1046 m 355 1096 q 370 1051 355 1065 q 412 1037 384 1037 q 453 1053 437 1037 q 468 1096 468 1068 q 453 1135 468 1121 q 412 1149 437 1149 q 370 1135 384 1149 q 355 1096 355 1121 z "},"Ą":{"ha":823,"x_min":0,"x_max":823,"o":"m 650 -231 q 720 -214 686 -231 l 720 -297 q 636 -317 682 -317 q 532 -282 574 -317 q 489 -182 489 -247 q 645 57 489 -55 l 550 343 l 264 343 l 183 86 l 274 86 l 274 0 l 0 0 l 0 86 l 86 86 l 362 934 l 461 934 l 742 86 l 823 86 l 823 0 l 684 0 q 583 -165 583 -82 q 603 -216 583 -201 q 650 -231 622 -231 m 403 789 l 290 429 l 523 429 l 406 789 l 403 789 z "},"Æ":{"ha":1132,"x_min":-17,"x_max":1080,"o":"m 989 86 l 989 206 l 1080 206 l 1080 0 l 463 0 l 463 86 l 566 86 l 566 343 l 300 343 l 166 86 l 240 86 l 240 0 l -17 0 l -17 86 l 62 86 l 502 926 l 1063 926 l 1063 720 l 972 720 l 972 840 l 669 840 l 669 514 l 840 514 l 840 600 l 926 600 l 926 326 l 840 326 l 840 429 l 669 429 l 669 86 l 989 86 m 346 429 l 566 429 l 566 840 l 562 840 l 346 429 z "},"Ć":{"ha":772,"x_min":69,"x_max":720,"o":"m 720 51 q 463 -17 593 -17 q 174 111 279 -17 q 69 463 69 238 q 177 814 69 686 q 465 943 285 943 q 720 888 590 943 l 720 686 l 626 686 l 626 821 q 461 849 557 849 q 250 755 324 849 q 177 470 177 662 q 254 173 177 269 q 468 77 331 77 q 720 146 583 77 l 720 51 m 523 1183 l 643 1183 l 496 995 l 420 995 l 523 1183 z "},"Ĉ":{"ha":772,"x_min":69,"x_max":720,"o":"m 720 51 q 463 -17 593 -17 q 174 111 279 -17 q 69 463 69 238 q 177 814 69 686 q 465 943 285 943 q 720 888 590 943 l 720 686 l 626 686 l 626 821 q 461 849 557 849 q 250 755 324 849 q 177 470 177 662 q 254 173 177 269 q 468 77 331 77 q 720 146 583 77 l 720 51 m 461 1104 l 377 995 l 274 995 l 420 1183 l 506 1183 l 652 995 l 549 995 l 465 1104 l 461 1104 z "},"Č":{"ha":772,"x_min":69,"x_max":720,"o":"m 720 51 q 463 -17 593 -17 q 174 111 279 -17 q 69 463 69 238 q 177 814 69 686 q 465 943 285 943 q 720 888 590 943 l 720 686 l 626 686 l 626 821 q 461 849 557 849 q 250 755 324 849 q 177 470 177 662 q 254 173 177 269 q 468 77 331 77 q 720 146 583 77 l 720 51 m 465 1073 l 549 1183 l 652 1183 l 506 995 l 420 995 l 274 1183 l 377 1183 l 461 1073 l 465 1073 z "},"Ċ":{"ha":772,"x_min":69,"x_max":720,"o":"m 720 51 q 463 -17 593 -17 q 174 111 279 -17 q 69 463 69 238 q 177 814 69 686 q 465 943 285 943 q 720 888 590 943 l 720 686 l 626 686 l 626 821 q 461 849 557 849 q 250 755 324 849 q 177 470 177 662 q 254 173 177 269 q 468 77 331 77 q 720 146 583 77 l 720 51 m 389 1065 q 409 1121 389 1101 q 463 1140 429 1140 q 516 1121 496 1140 q 537 1068 537 1101 q 516 1014 537 1034 q 461 995 496 995 q 409 1014 429 995 q 389 1065 389 1034 z "},"Ç":{"ha":772,"x_min":69,"x_max":720,"o":"m 720 51 q 463 -17 593 -17 q 174 111 279 -17 q 69 463 69 238 q 177 814 69 686 q 465 943 285 943 q 720 888 590 943 l 720 686 l 626 686 l 626 821 q 461 849 557 849 q 250 755 324 849 q 177 470 177 662 q 254 173 177 269 q 468 77 331 77 q 720 146 583 77 l 720 51 m 334 -231 q 401 -238 367 -238 q 453 -225 434 -238 q 472 -182 472 -213 q 374 -127 472 -127 l 425 14 l 504 14 l 472 -75 q 544 -117 523 -87 q 566 -185 566 -147 q 521 -281 566 -245 q 405 -317 477 -317 q 334 -309 370 -317 l 334 -231 z "},"Ď":{"ha":874,"x_min":51,"x_max":794,"o":"m 51 86 l 154 86 l 154 840 l 51 840 l 51 926 l 358 926 q 688 815 581 926 q 794 487 794 705 q 673 123 794 247 q 328 0 552 0 l 51 0 l 51 86 m 257 86 l 340 86 q 596 180 506 86 q 686 477 686 274 q 604 753 686 665 q 340 840 521 840 l 257 840 l 257 86 m 362 1073 l 446 1183 l 549 1183 l 403 995 l 317 995 l 171 1183 l 274 1183 l 358 1073 l 362 1073 z "},"Đ":{"ha":874,"x_min":51,"x_max":794,"o":"m 51 514 l 154 514 l 154 840 l 51 840 l 51 926 l 358 926 q 688 815 581 926 q 794 487 794 705 q 673 123 794 247 q 328 0 552 0 l 51 0 l 51 86 l 154 86 l 154 429 l 51 429 l 51 514 m 257 86 l 340 86 q 596 180 506 86 q 686 477 686 274 q 604 753 686 665 q 340 840 521 840 l 257 840 l 257 514 l 429 514 l 429 429 l 257 429 l 257 86 z "},"È":{"ha":720,"x_min":51,"x_max":669,"o":"m 578 86 l 578 206 l 669 206 l 669 0 l 51 0 l 51 86 l 154 86 l 154 840 l 51 840 l 51 926 l 652 926 l 652 720 l 561 720 l 561 840 l 257 840 l 257 514 l 429 514 l 429 600 l 514 600 l 514 326 l 429 326 l 429 429 l 257 429 l 257 86 l 578 86 m 429 995 l 353 995 l 206 1183 l 326 1183 l 429 995 z "},"É":{"ha":720,"x_min":51,"x_max":669,"o":"m 578 86 l 578 206 l 669 206 l 669 0 l 51 0 l 51 86 l 154 86 l 154 840 l 51 840 l 51 926 l 652 926 l 652 720 l 561 720 l 561 840 l 257 840 l 257 514 l 429 514 l 429 600 l 514 600 l 514 326 l 429 326 l 429 429 l 257 429 l 257 86 l 578 86 m 446 1183 l 566 1183 l 418 995 l 343 995 l 446 1183 z "},"Ê":{"ha":720,"x_min":51,"x_max":669,"o":"m 578 86 l 578 206 l 669 206 l 669 0 l 51 0 l 51 86 l 154 86 l 154 840 l 51 840 l 51 926 l 652 926 l 652 720 l 561 720 l 561 840 l 257 840 l 257 514 l 429 514 l 429 600 l 514 600 l 514 326 l 429 326 l 429 429 l 257 429 l 257 86 l 578 86 m 384 1104 l 300 995 l 197 995 l 343 1183 l 429 1183 l 574 995 l 472 995 l 388 1104 l 384 1104 z "},"Ě":{"ha":720,"x_min":51,"x_max":669,"o":"m 578 86 l 578 206 l 669 206 l 669 0 l 51 0 l 51 86 l 154 86 l 154 840 l 51 840 l 51 926 l 652 926 l 652 720 l 561 720 l 561 840 l 257 840 l 257 514 l 429 514 l 429 600 l 514 600 l 514 326 l 429 326 l 429 429 l 257 429 l 257 86 l 578 86 m 388 1073 l 472 1183 l 574 1183 l 429 995 l 343 995 l 197 1183 l 300 1183 l 384 1073 l 388 1073 z "},"Ë":{"ha":720,"x_min":51,"x_max":669,"o":"m 578 86 l 578 206 l 669 206 l 669 0 l 51 0 l 51 86 l 154 86 l 154 840 l 51 840 l 51 926 l 652 926 l 652 720 l 561 720 l 561 840 l 257 840 l 257 514 l 429 514 l 429 600 l 514 600 l 514 326 l 429 326 l 429 429 l 257 429 l 257 86 l 578 86 m 189 1063 q 208 1117 189 1097 q 259 1137 228 1137 q 312 1117 293 1137 q 331 1065 331 1097 q 312 1013 331 1032 q 257 995 293 995 q 207 1013 226 995 q 189 1063 189 1032 m 441 1063 q 460 1117 441 1097 q 511 1137 480 1137 q 564 1117 545 1137 q 583 1065 583 1097 q 564 1013 583 1032 q 509 995 545 995 q 460 1013 478 995 q 441 1063 441 1032 z "},"Ē":{"ha":720,"x_min":51,"x_max":669,"o":"m 578 86 l 578 206 l 669 206 l 669 0 l 51 0 l 51 86 l 154 86 l 154 840 l 51 840 l 51 926 l 652 926 l 652 720 l 561 720 l 561 840 l 257 840 l 257 514 l 429 514 l 429 600 l 514 600 l 514 326 l 429 326 l 429 429 l 257 429 l 257 86 l 578 86 m 223 1092 l 549 1092 l 549 1012 l 223 1012 l 223 1092 z "},"Ĕ":{"ha":720,"x_min":51,"x_max":669,"o":"m 578 86 l 578 206 l 669 206 l 669 0 l 51 0 l 51 86 l 154 86 l 154 840 l 51 840 l 51 926 l 652 926 l 652 720 l 561 720 l 561 840 l 257 840 l 257 514 l 429 514 l 429 600 l 514 600 l 514 326 l 429 326 l 429 429 l 257 429 l 257 86 l 578 86 m 386 1073 q 461 1101 432 1073 q 496 1183 490 1128 l 571 1183 q 514 1043 564 1092 q 386 995 465 995 q 257 1043 307 995 q 201 1183 207 1092 l 276 1183 q 310 1101 281 1128 q 386 1073 340 1073 z "},"Ė":{"ha":720,"x_min":51,"x_max":669,"o":"m 578 86 l 578 206 l 669 206 l 669 0 l 51 0 l 51 86 l 154 86 l 154 840 l 51 840 l 51 926 l 652 926 l 652 720 l 561 720 l 561 840 l 257 840 l 257 514 l 429 514 l 429 600 l 514 600 l 514 326 l 429 326 l 429 429 l 257 429 l 257 86 l 578 86 m 312 1065 q 332 1121 312 1101 q 386 1140 352 1140 q 439 1121 418 1140 q 460 1068 460 1101 q 439 1014 460 1034 q 384 995 418 995 q 332 1014 352 995 q 312 1065 312 1034 z "},"Ę":{"ha":720,"x_min":51,"x_max":669,"o":"m 578 86 l 578 206 l 669 206 l 669 0 l 51 0 l 51 86 l 154 86 l 154 840 l 51 840 l 51 926 l 652 926 l 652 720 l 561 720 l 561 840 l 257 840 l 257 514 l 429 514 l 429 600 l 514 600 l 514 326 l 429 326 l 429 429 l 257 429 l 257 86 l 578 86 m 598 -231 q 669 -214 634 -231 l 669 -297 q 585 -317 631 -317 q 480 -282 523 -317 q 437 -185 437 -247 q 538 -3 437 -91 l 538 14 l 633 14 l 633 0 q 532 -165 532 -82 q 551 -216 532 -201 q 598 -231 571 -231 z "},"Ĝ":{"ha":874,"x_min":69,"x_max":823,"o":"m 532 429 l 823 429 l 823 343 l 754 343 l 754 43 q 487 -17 626 -17 q 178 111 288 -17 q 69 463 69 238 q 182 814 69 686 q 485 943 295 943 q 754 888 617 943 l 754 669 l 660 669 l 660 821 q 482 849 585 849 q 255 755 334 849 q 177 470 177 662 q 259 173 177 269 q 490 77 341 77 q 653 101 569 77 l 653 343 l 532 343 l 532 429 m 487 1104 l 403 995 l 300 995 l 446 1183 l 532 1183 l 677 995 l 574 995 l 490 1104 l 487 1104 z "},"Ğ":{"ha":874,"x_min":69,"x_max":823,"o":"m 532 429 l 823 429 l 823 343 l 754 343 l 754 43 q 487 -17 626 -17 q 178 111 288 -17 q 69 463 69 238 q 182 814 69 686 q 485 943 295 943 q 754 888 617 943 l 754 669 l 660 669 l 660 821 q 482 849 585 849 q 255 755 334 849 q 177 470 177 662 q 259 173 177 269 q 490 77 341 77 q 653 101 569 77 l 653 343 l 532 343 l 532 429 m 489 1073 q 564 1101 535 1073 q 598 1183 593 1128 l 674 1183 q 617 1043 667 1092 q 489 995 568 995 q 360 1043 410 995 q 303 1183 310 1092 l 379 1183 q 413 1101 384 1128 q 489 1073 442 1073 z "},"Ġ":{"ha":874,"x_min":69,"x_max":823,"o":"m 532 429 l 823 429 l 823 343 l 754 343 l 754 43 q 487 -17 626 -17 q 178 111 288 -17 q 69 463 69 238 q 182 814 69 686 q 485 943 295 943 q 754 888 617 943 l 754 669 l 660 669 l 660 821 q 482 849 585 849 q 255 755 334 849 q 177 470 177 662 q 259 173 177 269 q 490 77 341 77 q 653 101 569 77 l 653 343 l 532 343 l 532 429 m 415 1065 q 435 1121 415 1101 q 489 1140 454 1140 q 542 1121 521 1140 q 562 1068 562 1101 q 542 1014 562 1034 q 487 995 521 995 q 435 1014 454 995 q 415 1065 415 1034 z "},"Ģ":{"ha":874,"x_min":69,"x_max":823,"o":"m 532 429 l 823 429 l 823 343 l 754 343 l 754 43 q 487 -17 626 -17 q 178 111 288 -17 q 69 463 69 238 q 182 814 69 686 q 485 943 295 943 q 754 888 617 943 l 754 669 l 660 669 l 660 821 q 482 849 585 849 q 255 755 334 849 q 177 470 177 662 q 259 173 177 269 q 490 77 341 77 q 653 101 569 77 l 653 343 l 532 343 l 532 429 m 437 -69 l 545 -69 l 475 -274 l 405 -274 l 437 -69 z "},"Ĥ":{"ha":977,"x_min":51,"x_max":926,"o":"m 51 86 l 154 86 l 154 840 l 51 840 l 51 926 l 360 926 l 360 840 l 257 840 l 257 514 l 720 514 l 720 840 l 617 840 l 617 926 l 926 926 l 926 840 l 823 840 l 823 86 l 926 86 l 926 0 l 617 0 l 617 86 l 720 86 l 720 429 l 257 429 l 257 86 l 360 86 l 360 0 l 51 0 l 51 86 m 487 1104 l 403 995 l 300 995 l 446 1183 l 532 1183 l 677 995 l 574 995 l 490 1104 l 487 1104 z "},"Ħ":{"ha":977,"x_min":51,"x_max":926,"o":"m 926 626 l 823 626 l 823 86 l 926 86 l 926 0 l 617 0 l 617 86 l 720 86 l 720 412 l 257 412 l 257 86 l 360 86 l 360 0 l 51 0 l 51 86 l 154 86 l 154 626 l 51 626 l 51 712 l 154 712 l 154 840 l 51 840 l 51 926 l 360 926 l 360 840 l 257 840 l 257 712 l 720 712 l 720 840 l 617 840 l 617 926 l 926 926 l 926 840 l 823 840 l 823 712 l 926 712 l 926 626 m 720 497 l 720 626 l 257 626 l 257 497 l 720 497 z "},"Ì":{"ha":412,"x_min":26,"x_max":360,"o":"m 51 86 l 154 86 l 154 840 l 51 840 l 51 926 l 360 926 l 360 840 l 257 840 l 257 86 l 360 86 l 360 0 l 51 0 l 51 86 m 249 995 l 173 995 l 26 1183 l 146 1183 l 249 995 z "},"Í":{"ha":412,"x_min":51,"x_max":386,"o":"m 51 86 l 154 86 l 154 840 l 51 840 l 51 926 l 360 926 l 360 840 l 257 840 l 257 86 l 360 86 l 360 0 l 51 0 l 51 86 m 266 1183 l 386 1183 l 238 995 l 163 995 l 266 1183 z "},"Î":{"ha":412,"x_min":17,"x_max":394,"o":"m 51 86 l 154 86 l 154 840 l 51 840 l 51 926 l 360 926 l 360 840 l 257 840 l 257 86 l 360 86 l 360 0 l 51 0 l 51 86 m 204 1104 l 120 995 l 17 995 l 163 1183 l 249 1183 l 394 995 l 291 995 l 207 1104 l 204 1104 z "},"Ĩ":{"ha":412,"x_min":26,"x_max":386,"o":"m 51 86 l 154 86 l 154 840 l 51 840 l 51 926 l 360 926 l 360 840 l 257 840 l 257 86 l 360 86 l 360 0 l 51 0 l 51 86 m 26 1000 l 26 1087 q 118 1123 65 1123 q 221 1091 161 1123 q 297 1068 266 1068 q 382 1108 348 1068 l 386 1108 l 386 1020 q 293 984 346 984 q 190 1017 250 984 q 115 1039 146 1039 q 29 1000 63 1039 l 26 1000 z "},"Ï":{"ha":412,"x_min":9,"x_max":403,"o":"m 51 86 l 154 86 l 154 840 l 51 840 l 51 926 l 360 926 l 360 840 l 257 840 l 257 86 l 360 86 l 360 0 l 51 0 l 51 86 m 9 1063 q 28 1117 9 1097 q 79 1137 48 1137 q 132 1117 113 1137 q 151 1065 151 1097 q 132 1013 151 1032 q 77 995 113 995 q 27 1013 46 995 q 9 1063 9 1032 m 261 1063 q 280 1117 261 1097 q 331 1137 300 1137 q 384 1117 365 1137 q 403 1065 403 1097 q 384 1013 403 1032 q 329 995 365 995 q 279 1013 298 995 q 261 1063 261 1032 z "},"Ī":{"ha":412,"x_min":43,"x_max":369,"o":"m 51 86 l 154 86 l 154 840 l 51 840 l 51 926 l 360 926 l 360 840 l 257 840 l 257 86 l 360 86 l 360 0 l 51 0 l 51 86 m 43 1092 l 369 1092 l 369 1012 l 43 1012 l 43 1092 z "},"Ĭ":{"ha":412,"x_min":21,"x_max":391,"o":"m 51 86 l 154 86 l 154 840 l 51 840 l 51 926 l 360 926 l 360 840 l 257 840 l 257 86 l 360 86 l 360 0 l 51 0 l 51 86 m 206 1073 q 281 1101 252 1073 q 316 1183 310 1128 l 391 1183 q 334 1043 384 1092 q 206 995 285 995 q 77 1043 127 995 q 21 1183 27 1092 l 96 1183 q 130 1101 101 1128 q 206 1073 159 1073 z "},"İ":{"ha":412,"x_min":51,"x_max":360,"o":"m 51 86 l 154 86 l 154 840 l 51 840 l 51 926 l 360 926 l 360 840 l 257 840 l 257 86 l 360 86 l 360 0 l 51 0 l 51 86 m 132 1065 q 152 1121 132 1101 q 206 1140 171 1140 q 259 1121 238 1140 q 279 1068 279 1101 q 259 1014 279 1034 q 204 995 238 995 q 152 1014 171 995 q 132 1065 132 1034 z "},"Į":{"ha":412,"x_min":51,"x_max":360,"o":"m 51 86 l 154 86 l 154 840 l 51 840 l 51 926 l 360 926 l 360 840 l 257 840 l 257 86 l 360 86 l 360 0 l 51 0 l 51 86 m 290 -231 q 360 -214 326 -231 l 360 -297 q 276 -317 322 -317 q 171 -282 214 -317 q 129 -185 129 -247 q 230 -3 129 -91 l 230 14 l 324 14 l 324 0 q 223 -165 223 -82 q 243 -216 223 -201 q 290 -231 262 -231 z "},"Ĵ":{"ha":412,"x_min":10,"x_max":394,"o":"m 10 -163 q 51 -165 33 -165 q 131 -139 108 -165 q 154 -34 154 -113 l 154 840 l 51 840 l 51 926 l 360 926 l 360 840 l 257 840 l 257 -22 q 213 -197 257 -137 q 62 -257 170 -257 q 10 -252 36 -257 l 10 -163 m 204 1104 l 120 995 l 17 995 l 163 1183 l 249 1183 l 394 995 l 291 995 l 207 1104 l 204 1104 z "},"Ķ":{"ha":823,"x_min":51,"x_max":823,"o":"m 514 840 l 514 926 l 789 926 l 789 840 l 703 840 l 388 490 l 718 86 l 823 86 l 823 0 l 514 0 l 514 86 l 585 86 l 585 89 l 266 482 l 586 837 l 586 840 l 514 840 m 51 86 l 154 86 l 154 840 l 51 840 l 51 926 l 360 926 l 360 840 l 257 840 l 257 86 l 360 86 l 360 0 l 51 0 l 51 86 m 386 -69 l 494 -69 l 424 -274 l 353 -274 l 386 -69 z "},"Ĺ":{"ha":669,"x_min":51,"x_max":634,"o":"m 360 840 l 257 840 l 257 86 l 544 86 l 544 206 l 634 206 l 634 0 l 51 0 l 51 86 l 154 86 l 154 840 l 51 840 l 51 926 l 360 926 l 360 840 m 266 1183 l 386 1183 l 238 995 l 163 995 l 266 1183 z "},"Ľ":{"ha":669,"x_min":51,"x_max":634,"o":"m 360 840 l 257 840 l 257 86 l 544 86 l 544 206 l 634 206 l 634 0 l 51 0 l 51 86 l 154 86 l 154 840 l 51 840 l 51 926 l 360 926 l 360 840 m 501 943 l 605 943 l 537 720 l 463 720 l 501 943 z "},"Ļ":{"ha":669,"x_min":51,"x_max":634,"o":"m 360 840 l 257 840 l 257 86 l 544 86 l 544 206 l 634 206 l 634 0 l 51 0 l 51 86 l 154 86 l 154 840 l 51 840 l 51 926 l 360 926 l 360 840 m 309 -69 l 417 -69 l 346 -274 l 276 -274 l 309 -69 z "},"Ł":{"ha":669,"x_min":51,"x_max":634,"o":"m 360 840 l 257 840 l 257 530 l 463 634 l 463 540 l 257 436 l 257 86 l 544 86 l 544 206 l 634 206 l 634 0 l 51 0 l 51 86 l 154 86 l 154 389 l 51 338 l 51 432 l 154 484 l 154 840 l 51 840 l 51 926 l 360 926 l 360 840 z "},"Ŀ":{"ha":669,"x_min":51,"x_max":634,"o":"m 360 840 l 257 840 l 257 86 l 544 86 l 544 206 l 634 206 l 634 0 l 51 0 l 51 86 l 154 86 l 154 840 l 51 840 l 51 926 l 360 926 l 360 840 m 468 513 q 487 568 468 549 q 540 588 506 588 q 592 568 573 588 q 612 516 612 549 q 592 462 612 482 q 538 442 573 442 q 487 462 506 442 q 468 513 468 482 z "},"Ń":{"ha":926,"x_min":51,"x_max":874,"o":"m 676 840 l 573 840 l 573 926 l 874 926 l 874 840 l 772 840 l 772 0 l 672 0 l 254 722 l 250 722 l 250 86 l 353 86 l 353 0 l 51 0 l 51 86 l 154 86 l 154 840 l 51 840 l 51 926 l 257 926 l 672 213 l 676 213 l 676 840 m 523 1183 l 643 1183 l 496 995 l 420 995 l 523 1183 z "},"Ñ":{"ha":926,"x_min":51,"x_max":874,"o":"m 676 840 l 573 840 l 573 926 l 874 926 l 874 840 l 772 840 l 772 0 l 672 0 l 254 722 l 250 722 l 250 86 l 353 86 l 353 0 l 51 0 l 51 86 l 154 86 l 154 840 l 51 840 l 51 926 l 257 926 l 672 213 l 676 213 l 676 840 m 283 1000 l 283 1087 q 376 1123 322 1123 q 478 1091 418 1123 q 554 1068 523 1068 q 640 1108 605 1068 l 643 1108 l 643 1020 q 550 984 604 984 q 448 1017 508 984 q 372 1039 403 1039 q 286 1000 321 1039 l 283 1000 z "},"Ň":{"ha":926,"x_min":51,"x_max":874,"o":"m 676 840 l 573 840 l 573 926 l 874 926 l 874 840 l 772 840 l 772 0 l 672 0 l 254 722 l 250 722 l 250 86 l 353 86 l 353 0 l 51 0 l 51 86 l 154 86 l 154 840 l 51 840 l 51 926 l 257 926 l 672 213 l 676 213 l 676 840 m 465 1073 l 549 1183 l 652 1183 l 506 995 l 420 995 l 274 1183 l 377 1183 l 461 1073 l 465 1073 z "},"Ņ":{"ha":926,"x_min":51,"x_max":874,"o":"m 676 840 l 573 840 l 573 926 l 874 926 l 874 840 l 772 840 l 772 0 l 672 0 l 254 722 l 250 722 l 250 86 l 353 86 l 353 0 l 51 0 l 51 86 l 154 86 l 154 840 l 51 840 l 51 926 l 257 926 l 672 213 l 676 213 l 676 840 m 412 -69 l 520 -69 l 449 -274 l 379 -274 l 412 -69 z "},"Ò":{"ha":874,"x_min":81,"x_max":794,"o":"m 81 465 q 179 815 81 688 q 446 943 278 943 q 702 820 610 943 q 794 477 794 696 q 695 113 794 243 q 432 -17 597 -17 q 177 111 273 -17 q 81 465 81 238 m 189 470 q 255 177 189 278 q 437 77 321 77 q 620 177 554 77 q 686 472 686 278 q 623 754 686 658 q 441 849 561 849 q 254 756 319 849 q 189 470 189 664 m 480 995 l 405 995 l 257 1183 l 377 1183 l 480 995 z "},"Ó":{"ha":874,"x_min":81,"x_max":794,"o":"m 81 465 q 179 815 81 688 q 446 943 278 943 q 702 820 610 943 q 794 477 794 696 q 695 113 794 243 q 432 -17 597 -17 q 177 111 273 -17 q 81 465 81 238 m 189 470 q 255 177 189 278 q 437 77 321 77 q 620 177 554 77 q 686 472 686 278 q 623 754 686 658 q 441 849 561 849 q 254 756 319 849 q 189 470 189 664 m 497 1183 l 617 1183 l 470 995 l 394 995 l 497 1183 z "},"Ô":{"ha":874,"x_min":81,"x_max":794,"o":"m 81 465 q 179 815 81 688 q 446 943 278 943 q 702 820 610 943 q 794 477 794 696 q 695 113 794 243 q 432 -17 597 -17 q 177 111 273 -17 q 81 465 81 238 m 189 470 q 255 177 189 278 q 437 77 321 77 q 620 177 554 77 q 686 472 686 278 q 623 754 686 658 q 441 849 561 849 q 254 756 319 849 q 189 470 189 664 m 436 1104 l 352 995 l 249 995 l 394 1183 l 480 1183 l 626 995 l 523 995 l 439 1104 l 436 1104 z "},"Õ":{"ha":874,"x_min":81,"x_max":794,"o":"m 81 465 q 179 815 81 688 q 446 943 278 943 q 702 820 610 943 q 794 477 794 696 q 695 113 794 243 q 432 -17 597 -17 q 177 111 273 -17 q 81 465 81 238 m 189 470 q 255 177 189 278 q 437 77 321 77 q 620 177 554 77 q 686 472 686 278 q 623 754 686 658 q 441 849 561 849 q 254 756 319 849 q 189 470 189 664 m 257 1000 l 257 1087 q 350 1123 297 1123 q 453 1091 393 1123 q 528 1068 497 1068 q 614 1108 580 1068 l 617 1108 l 617 1020 q 525 984 578 984 q 422 1017 482 984 q 346 1039 377 1039 q 261 1000 295 1039 l 257 1000 z "},"Ö":{"ha":874,"x_min":81,"x_max":794,"o":"m 81 465 q 179 815 81 688 q 446 943 278 943 q 702 820 610 943 q 794 477 794 696 q 695 113 794 243 q 432 -17 597 -17 q 177 111 273 -17 q 81 465 81 238 m 189 470 q 255 177 189 278 q 437 77 321 77 q 620 177 554 77 q 686 472 686 278 q 623 754 686 658 q 441 849 561 849 q 254 756 319 849 q 189 470 189 664 m 240 1063 q 260 1117 240 1097 q 310 1137 279 1137 q 364 1117 345 1137 q 382 1065 382 1097 q 364 1013 382 1032 q 309 995 345 995 q 259 1013 278 995 q 240 1063 240 1032 m 492 1063 q 512 1117 492 1097 q 562 1137 532 1137 q 616 1117 597 1137 q 634 1065 634 1097 q 616 1013 634 1032 q 561 995 597 995 q 511 1013 530 995 q 492 1063 492 1032 z "},"Ō":{"ha":874,"x_min":81,"x_max":794,"o":"m 81 465 q 179 815 81 688 q 446 943 278 943 q 702 820 610 943 q 794 477 794 696 q 695 113 794 243 q 432 -17 597 -17 q 177 111 273 -17 q 81 465 81 238 m 189 470 q 255 177 189 278 q 437 77 321 77 q 620 177 554 77 q 686 472 686 278 q 623 754 686 658 q 441 849 561 849 q 254 756 319 849 q 189 470 189 664 m 274 1092 l 600 1092 l 600 1012 l 274 1012 l 274 1092 z "},"Ŏ":{"ha":874,"x_min":81,"x_max":794,"o":"m 81 465 q 179 815 81 688 q 446 943 278 943 q 702 820 610 943 q 794 477 794 696 q 695 113 794 243 q 432 -17 597 -17 q 177 111 273 -17 q 81 465 81 238 m 189 470 q 255 177 189 278 q 437 77 321 77 q 620 177 554 77 q 686 472 686 278 q 623 754 686 658 q 441 849 561 849 q 254 756 319 849 q 189 470 189 664 m 437 1073 q 513 1101 484 1073 q 547 1183 542 1128 l 622 1183 q 566 1043 616 1092 q 437 995 516 995 q 309 1043 358 995 q 252 1183 259 1092 l 328 1183 q 362 1101 333 1128 q 437 1073 391 1073 z "},"Ő":{"ha":874,"x_min":81,"x_max":794,"o":"m 81 465 q 179 815 81 688 q 446 943 278 943 q 702 820 610 943 q 794 477 794 696 q 695 113 794 243 q 432 -17 597 -17 q 177 111 273 -17 q 81 465 81 238 m 189 470 q 255 177 189 278 q 437 77 321 77 q 620 177 554 77 q 686 472 686 278 q 623 754 686 658 q 441 849 561 849 q 254 756 319 849 q 189 470 189 664 m 412 1183 l 518 1183 l 384 995 l 309 995 l 412 1183 m 590 1183 l 701 1183 l 554 995 l 480 995 l 590 1183 z "},"Ø":{"ha":874,"x_min":81,"x_max":794,"o":"m 81 465 q 179 815 81 688 q 446 943 278 943 q 643 881 561 943 l 706 986 l 772 947 l 698 825 q 794 477 794 701 q 695 113 794 243 q 432 -17 597 -17 q 235 51 314 -17 l 168 -60 l 103 -21 l 180 108 q 81 465 81 233 m 189 470 q 238 206 189 302 l 590 794 q 441 849 532 849 q 254 756 319 849 q 189 470 189 664 m 437 77 q 620 177 554 77 q 686 472 686 278 q 640 725 686 633 l 286 137 q 437 77 348 77 z "},"Œ":{"ha":1183,"x_min":81,"x_max":1132,"o":"m 1041 86 l 1041 206 l 1132 206 l 1132 0 l 617 0 l 617 24 q 451 -17 547 -17 q 179 109 278 -17 q 81 461 81 235 q 182 816 81 689 q 461 943 283 943 q 617 912 547 943 l 617 926 l 1115 926 l 1115 720 l 1024 720 l 1024 840 l 720 840 l 720 514 l 892 514 l 892 600 l 977 600 l 977 326 l 892 326 l 892 429 l 720 429 l 720 86 l 1041 86 m 458 849 q 256 757 324 849 q 189 472 189 665 q 256 178 189 279 q 454 77 324 77 q 617 127 552 77 l 617 808 q 458 849 552 849 z "},"Ŕ":{"ha":772,"x_min":51,"x_max":772,"o":"m 257 86 l 360 86 l 360 0 l 51 0 l 51 86 l 154 86 l 154 840 l 63 840 l 63 926 l 362 926 q 595 868 521 926 q 669 694 669 809 q 453 444 669 490 l 453 441 q 504 399 477 427 q 573 293 532 370 l 686 86 l 772 86 l 772 0 l 607 0 q 568 82 586 46 q 532 149 549 118 l 468 267 q 413 358 434 328 q 367 410 393 389 q 300 429 341 429 l 257 429 l 257 86 m 340 514 q 505 555 449 514 q 561 684 561 595 q 510 806 561 772 q 352 840 460 840 l 257 840 l 257 514 l 340 514 m 420 1183 l 540 1183 l 393 995 l 317 995 l 420 1183 z "},"Ř":{"ha":772,"x_min":51,"x_max":772,"o":"m 257 86 l 360 86 l 360 0 l 51 0 l 51 86 l 154 86 l 154 840 l 63 840 l 63 926 l 362 926 q 595 868 521 926 q 669 694 669 809 q 453 444 669 490 l 453 441 q 504 399 477 427 q 573 293 532 370 l 686 86 l 772 86 l 772 0 l 607 0 q 568 82 586 46 q 532 149 549 118 l 468 267 q 413 358 434 328 q 367 410 393 389 q 300 429 341 429 l 257 429 l 257 86 m 340 514 q 505 555 449 514 q 561 684 561 595 q 510 806 561 772 q 352 840 460 840 l 257 840 l 257 514 l 340 514 m 362 1073 l 446 1183 l 549 1183 l 403 995 l 317 995 l 171 1183 l 274 1183 l 358 1073 l 362 1073 z "},"Ŗ":{"ha":772,"x_min":51,"x_max":772,"o":"m 257 86 l 360 86 l 360 0 l 51 0 l 51 86 l 154 86 l 154 840 l 63 840 l 63 926 l 362 926 q 595 868 521 926 q 669 694 669 809 q 453 444 669 490 l 453 441 q 504 399 477 427 q 573 293 532 370 l 686 86 l 772 86 l 772 0 l 607 0 q 568 82 586 46 q 532 149 549 118 l 468 267 q 413 358 434 328 q 367 410 393 389 q 300 429 341 429 l 257 429 l 257 86 m 340 514 q 505 555 449 514 q 561 684 561 595 q 510 806 561 772 q 352 840 460 840 l 257 840 l 257 514 l 340 514 m 360 -69 l 468 -69 l 398 -274 l 328 -274 l 360 -69 z "},"Ś":{"ha":669,"x_min":51,"x_max":617,"o":"m 303 -17 q 62 31 173 -17 l 62 223 l 154 223 l 154 96 q 312 74 214 74 q 459 117 406 74 q 511 237 511 161 q 496 304 511 276 q 457 354 482 333 q 394 394 432 376 q 309 430 357 412 q 217 467 262 448 q 135 516 171 487 q 75 590 98 545 q 51 696 51 634 q 134 875 51 808 q 357 943 216 943 q 583 892 480 943 l 583 703 l 490 703 l 490 826 q 348 852 429 852 q 206 808 254 852 q 158 701 158 763 q 172 637 158 664 q 213 590 187 610 q 279 554 240 569 q 365 520 317 538 q 459 479 413 501 q 539 428 504 458 q 596 354 574 398 q 617 243 617 310 q 532 54 617 125 q 303 -17 448 -17 m 394 1183 l 514 1183 l 367 995 l 291 995 l 394 1183 z "},"Ŝ":{"ha":669,"x_min":51,"x_max":617,"o":"m 303 -17 q 62 31 173 -17 l 62 223 l 154 223 l 154 96 q 312 74 214 74 q 459 117 406 74 q 511 237 511 161 q 496 304 511 276 q 457 354 482 333 q 394 394 432 376 q 309 430 357 412 q 217 467 262 448 q 135 516 171 487 q 75 590 98 545 q 51 696 51 634 q 134 875 51 808 q 357 943 216 943 q 583 892 480 943 l 583 703 l 490 703 l 490 826 q 348 852 429 852 q 206 808 254 852 q 158 701 158 763 q 172 637 158 664 q 213 590 187 610 q 279 554 240 569 q 365 520 317 538 q 459 479 413 501 q 539 428 504 458 q 596 354 574 398 q 617 243 617 310 q 532 54 617 125 q 303 -17 448 -17 m 333 1104 l 249 995 l 146 995 l 291 1183 l 377 1183 l 523 995 l 420 995 l 336 1104 l 333 1104 z "},"Š":{"ha":669,"x_min":51,"x_max":617,"o":"m 303 -17 q 62 31 173 -17 l 62 223 l 154 223 l 154 96 q 312 74 214 74 q 459 117 406 74 q 511 237 511 161 q 496 304 511 276 q 457 354 482 333 q 394 394 432 376 q 309 430 357 412 q 217 467 262 448 q 135 516 171 487 q 75 590 98 545 q 51 696 51 634 q 134 875 51 808 q 357 943 216 943 q 583 892 480 943 l 583 703 l 490 703 l 490 826 q 348 852 429 852 q 206 808 254 852 q 158 701 158 763 q 172 637 158 664 q 213 590 187 610 q 279 554 240 569 q 365 520 317 538 q 459 479 413 501 q 539 428 504 458 q 596 354 574 398 q 617 243 617 310 q 532 54 617 125 q 303 -17 448 -17 m 336 1073 l 420 1183 l 523 1183 l 377 995 l 291 995 l 146 1183 l 249 1183 l 333 1073 l 336 1073 z "},"Ș":{"ha":669,"x_min":51,"x_max":617,"o":"m 303 -17 q 62 31 173 -17 l 62 223 l 154 223 l 154 96 q 312 74 214 74 q 459 117 406 74 q 511 237 511 161 q 496 304 511 276 q 457 354 482 333 q 394 394 432 376 q 309 430 357 412 q 217 467 262 448 q 135 516 171 487 q 75 590 98 545 q 51 696 51 634 q 134 875 51 808 q 357 943 216 943 q 583 892 480 943 l 583 703 l 490 703 l 490 826 q 348 852 429 852 q 206 808 254 852 q 158 701 158 763 q 172 637 158 664 q 213 590 187 610 q 279 554 240 569 q 365 520 317 538 q 459 479 413 501 q 539 428 504 458 q 596 354 574 398 q 617 243 617 310 q 532 54 617 125 q 303 -17 448 -17 m 266 -69 l 374 -69 l 303 -274 l 233 -274 l 266 -69 z "},"Ş":{"ha":669,"x_min":51,"x_max":617,"o":"m 303 -17 q 62 31 173 -17 l 62 223 l 154 223 l 154 96 q 312 74 214 74 q 459 117 406 74 q 511 237 511 161 q 496 304 511 276 q 457 354 482 333 q 394 394 432 376 q 309 430 357 412 q 217 467 262 448 q 135 516 171 487 q 75 590 98 545 q 51 696 51 634 q 134 875 51 808 q 357 943 216 943 q 583 892 480 943 l 583 703 l 490 703 l 490 826 q 348 852 429 852 q 206 808 254 852 q 158 701 158 763 q 172 637 158 664 q 213 590 187 610 q 279 554 240 569 q 365 520 317 538 q 459 479 413 501 q 539 428 504 458 q 596 354 574 398 q 617 243 617 310 q 532 54 617 125 q 303 -17 448 -17 m 189 -231 q 255 -238 221 -238 q 307 -225 288 -238 q 326 -182 326 -213 q 228 -127 326 -127 l 279 14 l 358 14 l 326 -75 q 399 -117 377 -87 q 420 -185 420 -147 q 376 -281 420 -245 q 259 -317 331 -317 q 189 -309 225 -317 l 189 -231 z "},"Ť":{"ha":720,"x_min":29,"x_max":691,"o":"m 189 86 l 309 86 l 309 840 l 120 840 l 120 703 l 29 703 l 29 926 l 691 926 l 691 703 l 600 703 l 600 840 l 412 840 l 412 86 l 532 86 l 532 0 l 189 0 l 189 86 m 362 1073 l 446 1183 l 549 1183 l 403 995 l 317 995 l 171 1183 l 274 1183 l 358 1073 l 362 1073 z "},"Ț":{"ha":720,"x_min":29,"x_max":691,"o":"m 189 86 l 309 86 l 309 840 l 120 840 l 120 703 l 29 703 l 29 926 l 691 926 l 691 703 l 600 703 l 600 840 l 412 840 l 412 86 l 532 86 l 532 0 l 189 0 l 189 86 m 309 -69 l 417 -69 l 346 -274 l 276 -274 l 309 -69 z "},"Ţ":{"ha":720,"x_min":29,"x_max":691,"o":"m 189 86 l 309 86 l 309 840 l 120 840 l 120 703 l 29 703 l 29 926 l 691 926 l 691 703 l 600 703 l 600 840 l 412 840 l 412 86 l 532 86 l 532 0 l 189 0 l 189 86 m 231 -231 q 298 -238 264 -238 q 350 -225 331 -238 q 369 -182 369 -213 q 271 -127 369 -127 l 322 14 l 401 14 l 369 -75 q 442 -117 420 -87 q 463 -185 463 -147 q 418 -281 463 -245 q 302 -317 374 -317 q 231 -309 267 -317 l 231 -231 z "},"Ŧ":{"ha":720,"x_min":29,"x_max":691,"o":"m 189 86 l 309 86 l 309 429 l 154 429 l 154 514 l 309 514 l 309 840 l 120 840 l 120 703 l 29 703 l 29 926 l 691 926 l 691 703 l 600 703 l 600 840 l 412 840 l 412 514 l 566 514 l 566 429 l 412 429 l 412 86 l 532 86 l 532 0 l 189 0 l 189 86 z "},"Ù":{"ha":926,"x_min":34,"x_max":892,"o":"m 240 297 q 300 133 240 189 q 461 77 360 77 q 632 135 571 77 q 693 302 693 194 l 693 840 l 588 840 l 588 926 l 892 926 l 892 840 l 789 840 l 789 307 q 700 73 789 163 q 460 -17 612 -17 q 225 68 312 -17 q 137 295 137 153 l 137 840 l 34 840 l 34 926 l 343 926 l 343 840 l 240 840 l 240 297 m 506 995 l 430 995 l 283 1183 l 403 1183 l 506 995 z "},"Ú":{"ha":926,"x_min":34,"x_max":892,"o":"m 240 297 q 300 133 240 189 q 461 77 360 77 q 632 135 571 77 q 693 302 693 194 l 693 840 l 588 840 l 588 926 l 892 926 l 892 840 l 789 840 l 789 307 q 700 73 789 163 q 460 -17 612 -17 q 225 68 312 -17 q 137 295 137 153 l 137 840 l 34 840 l 34 926 l 343 926 l 343 840 l 240 840 l 240 297 m 523 1183 l 643 1183 l 496 995 l 420 995 l 523 1183 z "},"Û":{"ha":926,"x_min":34,"x_max":892,"o":"m 240 297 q 300 133 240 189 q 461 77 360 77 q 632 135 571 77 q 693 302 693 194 l 693 840 l 588 840 l 588 926 l 892 926 l 892 840 l 789 840 l 789 307 q 700 73 789 163 q 460 -17 612 -17 q 225 68 312 -17 q 137 295 137 153 l 137 840 l 34 840 l 34 926 l 343 926 l 343 840 l 240 840 l 240 297 m 461 1104 l 377 995 l 274 995 l 420 1183 l 506 1183 l 652 995 l 549 995 l 465 1104 l 461 1104 z "},"Ũ":{"ha":926,"x_min":34,"x_max":892,"o":"m 240 297 q 300 133 240 189 q 461 77 360 77 q 632 135 571 77 q 693 302 693 194 l 693 840 l 588 840 l 588 926 l 892 926 l 892 840 l 789 840 l 789 307 q 700 73 789 163 q 460 -17 612 -17 q 225 68 312 -17 q 137 295 137 153 l 137 840 l 34 840 l 34 926 l 343 926 l 343 840 l 240 840 l 240 297 m 283 1000 l 283 1087 q 376 1123 322 1123 q 478 1091 418 1123 q 554 1068 523 1068 q 640 1108 605 1068 l 643 1108 l 643 1020 q 550 984 604 984 q 448 1017 508 984 q 372 1039 403 1039 q 286 1000 321 1039 l 283 1000 z "},"Ü":{"ha":926,"x_min":34,"x_max":892,"o":"m 240 297 q 300 133 240 189 q 461 77 360 77 q 632 135 571 77 q 693 302 693 194 l 693 840 l 588 840 l 588 926 l 892 926 l 892 840 l 789 840 l 789 307 q 700 73 789 163 q 460 -17 612 -17 q 225 68 312 -17 q 137 295 137 153 l 137 840 l 34 840 l 34 926 l 343 926 l 343 840 l 240 840 l 240 297 m 266 1063 q 285 1117 266 1097 q 336 1137 305 1137 q 389 1117 370 1137 q 408 1065 408 1097 q 389 1013 408 1032 q 334 995 370 995 q 285 1013 303 995 q 266 1063 266 1032 m 518 1063 q 538 1117 518 1097 q 588 1137 557 1137 q 641 1117 622 1137 q 660 1065 660 1097 q 641 1013 660 1032 q 586 995 622 995 q 537 1013 556 995 q 518 1063 518 1032 z "},"Ū":{"ha":926,"x_min":34,"x_max":892,"o":"m 240 297 q 300 133 240 189 q 461 77 360 77 q 632 135 571 77 q 693 302 693 194 l 693 840 l 588 840 l 588 926 l 892 926 l 892 840 l 789 840 l 789 307 q 700 73 789 163 q 460 -17 612 -17 q 225 68 312 -17 q 137 295 137 153 l 137 840 l 34 840 l 34 926 l 343 926 l 343 840 l 240 840 l 240 297 m 300 1092 l 626 1092 l 626 1012 l 300 1012 l 300 1092 z "},"Ŭ":{"ha":926,"x_min":34,"x_max":892,"o":"m 240 297 q 300 133 240 189 q 461 77 360 77 q 632 135 571 77 q 693 302 693 194 l 693 840 l 588 840 l 588 926 l 892 926 l 892 840 l 789 840 l 789 307 q 700 73 789 163 q 460 -17 612 -17 q 225 68 312 -17 q 137 295 137 153 l 137 840 l 34 840 l 34 926 l 343 926 l 343 840 l 240 840 l 240 297 m 463 1073 q 538 1101 509 1073 q 573 1183 568 1128 l 648 1183 q 592 1043 641 1092 q 463 995 542 995 q 334 1043 384 995 q 278 1183 285 1092 l 353 1183 q 388 1101 358 1128 q 463 1073 417 1073 z "},"Ů":{"ha":926,"x_min":34,"x_max":892,"o":"m 240 297 q 300 133 240 189 q 461 77 360 77 q 632 135 571 77 q 693 302 693 194 l 693 840 l 588 840 l 588 926 l 892 926 l 892 840 l 789 840 l 789 307 q 700 73 789 163 q 460 -17 612 -17 q 225 68 312 -17 q 137 295 137 153 l 137 840 l 34 840 l 34 926 l 343 926 l 343 840 l 240 840 l 240 297 m 340 1092 q 374 1172 340 1144 q 466 1200 408 1200 q 556 1172 525 1200 q 586 1096 586 1144 q 553 1017 586 1048 q 460 986 520 986 q 371 1016 403 986 q 340 1092 340 1046 m 406 1096 q 421 1051 406 1065 q 463 1037 436 1037 q 504 1053 489 1037 q 520 1096 520 1068 q 504 1135 520 1121 q 463 1149 489 1149 q 421 1135 436 1149 q 406 1096 406 1121 z "},"Ű":{"ha":926,"x_min":34,"x_max":892,"o":"m 240 297 q 300 133 240 189 q 461 77 360 77 q 632 135 571 77 q 693 302 693 194 l 693 840 l 588 840 l 588 926 l 892 926 l 892 840 l 789 840 l 789 307 q 700 73 789 163 q 460 -17 612 -17 q 225 68 312 -17 q 137 295 137 153 l 137 840 l 34 840 l 34 926 l 343 926 l 343 840 l 240 840 l 240 297 m 437 1183 l 544 1183 l 410 995 l 334 995 l 437 1183 m 616 1183 l 727 1183 l 580 995 l 506 995 l 616 1183 z "},"Ų":{"ha":926,"x_min":34,"x_max":892,"o":"m 240 297 q 300 133 240 189 q 461 77 360 77 q 632 135 571 77 q 693 302 693 194 l 693 840 l 588 840 l 588 926 l 892 926 l 892 840 l 789 840 l 789 307 q 700 73 789 163 q 460 -17 612 -17 q 225 68 312 -17 q 137 295 137 153 l 137 840 l 34 840 l 34 926 l 343 926 l 343 840 l 240 840 l 240 297 m 547 -231 q 617 -214 583 -231 l 617 -297 q 533 -317 580 -317 q 429 -282 472 -317 q 386 -185 386 -247 q 487 -3 386 -91 l 487 14 l 581 14 l 581 0 q 480 -165 480 -82 q 500 -216 480 -201 q 547 -231 520 -231 z "},"Ẁ":{"ha":1235,"x_min":0,"x_max":1235,"o":"m 840 137 l 1048 840 l 960 840 l 960 926 l 1235 926 l 1235 840 l 1145 840 l 881 -9 l 782 -9 l 617 494 l 614 494 l 453 -9 l 353 -9 l 84 840 l 0 840 l 0 926 l 274 926 l 274 840 l 192 840 l 408 137 l 412 137 l 571 633 l 502 840 l 412 840 l 412 926 l 703 926 l 703 840 l 605 840 l 837 137 l 840 137 m 660 995 l 585 995 l 437 1183 l 557 1183 l 660 995 z "},"Ẃ":{"ha":1235,"x_min":0,"x_max":1235,"o":"m 840 137 l 1048 840 l 960 840 l 960 926 l 1235 926 l 1235 840 l 1145 840 l 881 -9 l 782 -9 l 617 494 l 614 494 l 453 -9 l 353 -9 l 84 840 l 0 840 l 0 926 l 274 926 l 274 840 l 192 840 l 408 137 l 412 137 l 571 633 l 502 840 l 412 840 l 412 926 l 703 926 l 703 840 l 605 840 l 837 137 l 840 137 m 677 1183 l 797 1183 l 650 995 l 574 995 l 677 1183 z "},"Ŵ":{"ha":1235,"x_min":0,"x_max":1235,"o":"m 840 137 l 1048 840 l 960 840 l 960 926 l 1235 926 l 1235 840 l 1145 840 l 881 -9 l 782 -9 l 617 494 l 614 494 l 453 -9 l 353 -9 l 84 840 l 0 840 l 0 926 l 274 926 l 274 840 l 192 840 l 408 137 l 412 137 l 571 633 l 502 840 l 412 840 l 412 926 l 703 926 l 703 840 l 605 840 l 837 137 l 840 137 m 616 1104 l 532 995 l 429 995 l 574 1183 l 660 1183 l 806 995 l 703 995 l 619 1104 l 616 1104 z "},"Ẅ":{"ha":1235,"x_min":0,"x_max":1235,"o":"m 840 137 l 1048 840 l 960 840 l 960 926 l 1235 926 l 1235 840 l 1145 840 l 881 -9 l 782 -9 l 617 494 l 614 494 l 453 -9 l 353 -9 l 84 840 l 0 840 l 0 926 l 274 926 l 274 840 l 192 840 l 408 137 l 412 137 l 571 633 l 502 840 l 412 840 l 412 926 l 703 926 l 703 840 l 605 840 l 837 137 l 840 137 m 420 1063 q 440 1117 420 1097 q 490 1137 460 1137 q 544 1117 525 1137 q 562 1065 562 1097 q 544 1013 562 1032 q 489 995 525 995 q 439 1013 458 995 q 420 1063 420 1032 m 672 1063 q 692 1117 672 1097 q 742 1137 712 1137 q 796 1117 777 1137 q 814 1065 814 1097 q 796 1013 814 1032 q 741 995 777 995 q 691 1013 710 995 q 672 1063 672 1032 z "},"Ỳ":{"ha":823,"x_min":0,"x_max":823,"o":"m 360 412 l 79 840 l 0 840 l 0 926 l 274 926 l 274 840 l 195 840 l 418 501 l 634 840 l 549 840 l 549 926 l 823 926 l 823 840 l 742 840 l 463 412 l 463 86 l 583 86 l 583 0 l 240 0 l 240 86 l 360 86 l 360 412 m 454 995 l 379 995 l 231 1183 l 352 1183 l 454 995 z "},"Ý":{"ha":823,"x_min":0,"x_max":823,"o":"m 360 412 l 79 840 l 0 840 l 0 926 l 274 926 l 274 840 l 195 840 l 418 501 l 634 840 l 549 840 l 549 926 l 823 926 l 823 840 l 742 840 l 463 412 l 463 86 l 583 86 l 583 0 l 240 0 l 240 86 l 360 86 l 360 412 m 472 1183 l 592 1183 l 444 995 l 369 995 l 472 1183 z "},"Ŷ":{"ha":823,"x_min":0,"x_max":823,"o":"m 360 412 l 79 840 l 0 840 l 0 926 l 274 926 l 274 840 l 195 840 l 418 501 l 634 840 l 549 840 l 549 926 l 823 926 l 823 840 l 742 840 l 463 412 l 463 86 l 583 86 l 583 0 l 240 0 l 240 86 l 360 86 l 360 412 m 410 1104 l 326 995 l 223 995 l 369 1183 l 454 1183 l 600 995 l 497 995 l 413 1104 l 410 1104 z "},"Ÿ":{"ha":823,"x_min":0,"x_max":823,"o":"m 360 412 l 79 840 l 0 840 l 0 926 l 274 926 l 274 840 l 195 840 l 418 501 l 634 840 l 549 840 l 549 926 l 823 926 l 823 840 l 742 840 l 463 412 l 463 86 l 583 86 l 583 0 l 240 0 l 240 86 l 360 86 l 360 412 m 214 1063 q 234 1117 214 1097 q 285 1137 254 1137 q 338 1117 319 1137 q 357 1065 357 1097 q 338 1013 357 1032 q 283 995 319 995 q 233 1013 252 995 q 214 1063 214 1032 m 466 1063 q 486 1117 466 1097 q 537 1137 506 1137 q 590 1117 571 1137 q 609 1065 609 1097 q 590 1013 609 1032 q 535 995 571 995 q 485 1013 504 995 q 466 1063 466 1032 z "},"Ź":{"ha":772,"x_min":51,"x_max":703,"o":"m 51 77 l 554 840 l 159 840 l 159 720 l 69 720 l 69 926 l 686 926 l 686 849 l 183 86 l 612 86 l 612 206 l 703 206 l 703 0 l 51 0 l 51 77 m 446 1183 l 566 1183 l 418 995 l 343 995 l 446 1183 z "},"Ž":{"ha":772,"x_min":51,"x_max":703,"o":"m 51 77 l 554 840 l 159 840 l 159 720 l 69 720 l 69 926 l 686 926 l 686 849 l 183 86 l 612 86 l 612 206 l 703 206 l 703 0 l 51 0 l 51 77 m 388 1073 l 472 1183 l 574 1183 l 429 995 l 343 995 l 197 1183 l 300 1183 l 384 1073 l 388 1073 z "},"Ż":{"ha":772,"x_min":51,"x_max":703,"o":"m 51 77 l 554 840 l 159 840 l 159 720 l 69 720 l 69 926 l 686 926 l 686 849 l 183 86 l 612 86 l 612 206 l 703 206 l 703 0 l 51 0 l 51 77 m 312 1065 q 332 1121 312 1101 q 386 1140 352 1140 q 439 1121 418 1140 q 460 1068 460 1101 q 439 1014 460 1034 q 384 995 418 995 q 332 1014 352 995 q 312 1065 312 1034 z "},"Ŋ":{"ha":926,"x_min":51,"x_max":874,"o":"m 676 840 l 573 840 l 573 926 l 874 926 l 874 840 l 772 840 l 772 -29 q 729 -197 772 -137 q 581 -257 686 -257 q 532 -252 557 -257 l 532 -163 q 573 -165 554 -165 q 652 -139 629 -165 q 676 -34 676 -113 l 676 0 l 254 722 l 250 722 l 250 86 l 353 86 l 353 0 l 51 0 l 51 86 l 154 86 l 154 840 l 51 840 l 51 926 l 257 926 l 672 214 l 676 214 l 676 840 z "},"Ð":{"ha":874,"x_min":51,"x_max":794,"o":"m 51 514 l 154 514 l 154 840 l 51 840 l 51 926 l 358 926 q 688 815 581 926 q 794 487 794 705 q 673 123 794 247 q 328 0 552 0 l 51 0 l 51 86 l 154 86 l 154 429 l 51 429 l 51 514 m 257 86 l 340 86 q 596 180 506 86 q 686 477 686 274 q 604 753 686 665 q 340 840 521 840 l 257 840 l 257 514 l 429 514 l 429 429 l 257 429 l 257 86 z "},"Þ":{"ha":720,"x_min":51,"x_max":657,"o":"m 51 86 l 154 86 l 154 840 l 51 840 l 51 926 l 360 926 l 360 840 l 257 840 l 257 754 l 362 754 q 585 688 513 754 q 657 497 657 622 q 575 280 657 355 q 338 206 494 206 l 257 206 l 257 86 l 360 86 l 360 0 l 51 0 l 51 86 m 343 291 q 496 337 442 291 q 549 485 549 382 q 501 629 549 590 q 352 669 453 669 l 257 669 l 257 291 l 343 291 z "},"Ĳ":{"ha":823,"x_min":51,"x_max":772,"o":"m 51 86 l 154 86 l 154 840 l 51 840 l 51 926 l 360 926 l 360 840 l 257 840 l 257 86 l 360 86 l 360 0 l 51 0 l 51 86 m 422 -163 q 463 -165 444 -165 q 543 -139 520 -165 q 566 -34 566 -113 l 566 840 l 463 840 l 463 926 l 772 926 l 772 840 l 669 840 l 669 -22 q 625 -197 669 -137 q 473 -257 581 -257 q 422 -252 448 -257 l 422 -163 z "},"a":{"ha":669,"x_min":69,"x_max":652,"o":"m 103 619 q 345 686 221 686 q 508 637 451 686 q 566 482 566 588 l 566 86 l 652 86 l 652 0 l 473 0 l 468 77 l 465 79 q 262 -17 382 -17 q 121 35 173 -17 q 69 168 69 87 q 162 329 69 276 q 434 382 255 382 l 463 382 l 463 484 q 433 574 463 547 q 333 600 403 600 q 192 573 249 600 l 192 480 l 103 480 l 103 619 m 422 309 q 240 279 303 309 q 177 173 177 249 q 207 93 177 118 q 286 69 238 69 q 463 153 389 69 l 463 309 l 422 309 z "},"b":{"ha":720,"x_min":43,"x_max":652,"o":"m 231 79 q 333 69 283 69 q 490 132 436 69 q 544 334 544 195 q 502 529 544 458 q 374 600 460 600 q 231 544 298 600 l 231 79 m 231 626 l 235 624 q 405 686 307 686 q 584 592 516 686 q 652 350 652 497 q 565 81 652 178 q 328 -17 478 -17 q 129 15 230 -17 l 129 943 l 43 943 l 43 1029 l 231 1029 l 231 626 z "},"c":{"ha":617,"x_min":69,"x_max":549,"o":"m 549 26 q 369 -17 466 -17 q 149 72 230 -17 q 69 328 69 161 q 153 591 69 496 q 374 686 238 686 q 549 646 468 686 l 549 480 l 458 480 l 458 585 q 365 600 420 600 q 223 539 269 600 q 177 346 177 478 q 226 139 177 206 q 370 72 276 72 q 549 118 463 72 l 549 26 z "},"d":{"ha":720,"x_min":69,"x_max":686,"o":"m 394 943 l 394 1029 l 600 1029 l 600 86 l 686 86 l 686 0 l 502 0 l 497 58 l 494 60 q 322 -17 422 -17 q 137 77 206 -17 q 69 324 69 171 q 151 586 69 485 q 364 686 233 686 q 494 655 429 686 l 497 657 l 497 943 l 394 943 m 497 576 q 369 600 434 600 q 224 536 271 600 q 177 336 177 472 q 219 137 177 206 q 348 69 261 69 q 497 137 434 69 l 497 576 z "},"e":{"ha":617,"x_min":60,"x_max":566,"o":"m 549 129 l 549 36 q 348 -17 463 -17 q 136 74 213 -17 q 60 328 60 165 q 141 591 60 496 q 343 686 221 686 q 504 607 442 686 q 566 382 566 528 l 566 329 l 166 329 q 213 142 170 209 q 353 72 257 75 q 549 129 460 72 m 463 412 q 427 555 463 509 q 326 600 391 600 q 219 553 262 600 q 168 412 177 506 l 463 412 z "},"f":{"ha":412,"x_min":51,"x_max":501,"o":"m 501 857 l 412 857 l 412 950 q 360 955 386 955 q 268 921 297 955 q 240 809 240 886 l 240 669 l 394 669 l 394 583 l 240 583 l 240 86 l 326 86 l 326 0 l 51 0 l 51 86 l 137 86 l 137 583 l 51 583 l 51 669 l 137 669 l 137 794 q 196 977 137 917 q 358 1037 255 1037 q 501 1012 425 1037 l 501 857 z "},"g":{"ha":617,"x_min":34,"x_max":600,"o":"m 69 444 q 135 618 69 550 q 307 686 202 686 q 376 677 345 686 q 437 669 403 669 l 600 669 l 600 586 l 502 586 l 502 585 q 535 460 535 528 q 469 276 535 346 q 298 206 403 206 q 213 219 250 206 q 180 147 180 182 q 194 115 180 127 q 237 103 207 103 l 357 103 q 531 57 470 103 q 592 -81 592 10 q 502 -259 592 -192 q 278 -326 413 -326 q 101 -274 168 -326 q 34 -142 34 -223 q 127 27 34 -50 q 86 117 86 62 q 159 247 86 185 q 69 444 69 317 m 190 0 q 137 -120 137 -51 q 175 -212 137 -178 q 291 -245 213 -245 q 436 -207 384 -245 q 489 -106 489 -168 q 454 -27 489 -53 q 357 0 418 0 l 190 0 m 175 453 q 207 332 175 376 q 305 288 240 288 q 398 328 367 288 q 429 448 429 367 q 397 563 429 526 q 300 600 365 600 q 207 564 238 600 q 175 453 175 528 z "},"h":{"ha":720,"x_min":34,"x_max":686,"o":"m 120 943 l 34 943 l 34 1029 l 223 1029 l 223 590 l 225 590 q 436 686 317 686 q 561 637 521 686 q 600 499 600 588 l 600 86 l 686 86 l 686 0 l 429 0 l 429 86 l 497 86 l 497 485 q 473 577 497 554 q 406 600 449 600 q 223 502 307 600 l 223 86 l 291 86 l 291 0 l 34 0 l 34 86 l 120 86 l 120 943 z "},"i":{"ha":360,"x_min":51,"x_max":326,"o":"m 51 86 l 137 86 l 137 583 l 51 583 l 51 669 l 240 669 l 240 86 l 326 86 l 326 0 l 51 0 l 51 86 m 108 850 q 128 906 108 886 q 182 926 147 926 q 235 906 214 926 q 255 854 255 886 q 235 800 255 820 q 180 780 214 780 q 128 800 147 780 q 108 850 108 820 z "},"j":{"ha":309,"x_min":0,"x_max":238,"o":"m 180 -255 q 48 -312 139 -312 q 0 -309 24 -312 l 0 -223 q 29 -225 14 -225 q 101 -197 82 -225 q 120 -99 120 -170 l 120 583 l 34 583 l 34 669 l 223 669 l 223 -84 q 180 -255 223 -201 m 91 850 q 111 906 91 886 q 165 926 130 926 q 218 906 197 926 q 238 854 238 886 q 218 800 238 820 q 163 780 197 780 q 111 800 130 780 q 91 850 91 820 z "},"k":{"ha":669,"x_min":51,"x_max":669,"o":"m 51 86 l 137 86 l 137 943 l 51 943 l 51 1029 l 240 1029 l 240 86 l 309 86 l 309 0 l 51 0 l 51 86 m 394 669 l 652 669 l 652 583 l 561 583 l 365 376 l 590 86 l 669 86 l 669 0 l 403 0 l 403 86 l 466 86 l 468 89 l 257 365 l 458 583 l 394 583 l 394 669 z "},"l":{"ha":360,"x_min":51,"x_max":326,"o":"m 51 86 l 137 86 l 137 943 l 51 943 l 51 1029 l 240 1029 l 240 86 l 326 86 l 326 0 l 51 0 l 51 86 z "},"m":{"ha":1080,"x_min":51,"x_max":1063,"o":"m 51 86 l 137 86 l 137 583 l 51 583 l 51 669 l 233 669 l 238 580 l 240 580 q 448 686 331 686 q 597 578 571 686 l 600 578 q 813 686 693 686 q 938 637 898 686 q 977 499 977 588 l 977 86 l 1063 86 l 1063 0 l 806 0 l 806 86 l 874 86 l 874 485 q 850 577 874 554 q 784 600 826 600 q 609 504 691 600 l 609 86 l 677 86 l 677 0 l 437 0 l 437 86 l 506 86 l 506 485 q 483 577 506 554 q 418 600 460 600 q 240 494 321 600 l 240 86 l 309 86 l 309 0 l 51 0 l 51 86 z "},"n":{"ha":720,"x_min":51,"x_max":703,"o":"m 51 86 l 137 86 l 137 583 l 51 583 l 51 669 l 233 669 l 238 580 l 240 580 q 453 686 333 686 q 578 637 538 686 q 617 499 617 588 l 617 86 l 703 86 l 703 0 l 446 0 l 446 86 l 514 86 l 514 485 q 490 577 514 554 q 424 600 466 600 q 240 494 324 600 l 240 86 l 309 86 l 309 0 l 51 0 l 51 86 z "},"o":{"ha":669,"x_min":60,"x_max":609,"o":"m 60 331 q 140 590 60 494 q 341 686 219 686 q 536 597 463 686 q 609 346 609 508 q 532 82 609 182 q 329 -17 454 -17 q 133 78 206 -17 q 60 331 60 173 m 168 346 q 212 140 168 211 q 338 69 255 69 q 458 135 415 69 q 501 336 501 201 q 333 600 501 600 q 210 539 252 600 q 168 346 168 478 z "},"p":{"ha":720,"x_min":43,"x_max":652,"o":"m 226 669 l 231 614 l 235 614 q 408 686 312 686 q 585 596 518 686 q 652 358 652 506 q 570 87 652 190 q 364 -17 489 -17 q 235 14 298 -17 l 231 12 l 231 -223 l 334 -223 l 334 -309 l 43 -309 l 43 -223 l 129 -223 l 129 583 l 43 583 l 43 669 l 226 669 m 231 94 q 352 69 283 69 q 493 135 442 69 q 544 341 544 202 q 499 538 544 475 q 379 600 454 600 q 231 526 297 600 l 231 94 z "},"q":{"ha":669,"x_min":69,"x_max":686,"o":"m 686 -223 l 686 -309 l 394 -309 l 394 -223 l 497 -223 l 497 55 l 494 57 q 321 -17 424 -17 q 138 77 207 -17 q 69 321 69 171 q 151 585 69 484 q 386 686 233 686 q 600 650 478 686 l 600 -223 l 686 -223 m 497 585 q 376 600 432 600 q 226 537 276 600 q 177 334 177 473 q 224 132 177 195 q 348 69 271 69 q 497 134 434 69 l 497 585 z "},"r":{"ha":463,"x_min":51,"x_max":446,"o":"m 51 86 l 137 86 l 137 583 l 51 583 l 51 669 l 235 669 l 240 573 l 243 573 q 316 653 276 628 q 410 679 355 679 q 446 676 430 679 l 446 568 q 393 573 420 573 q 306 550 343 573 q 240 475 269 526 l 240 86 l 343 86 l 343 0 l 51 0 l 51 86 z "},"s":{"ha":566,"x_min":60,"x_max":514,"o":"m 264 -17 q 69 24 158 -17 l 69 171 l 158 171 l 158 82 q 271 67 209 67 q 380 93 348 67 q 412 168 412 120 q 374 239 412 213 q 255 295 336 266 q 101 383 142 336 q 60 494 60 430 q 127 632 60 578 q 298 686 194 686 q 480 645 394 686 l 480 497 l 391 497 l 391 588 q 293 604 352 604 q 195 577 228 604 q 163 508 163 550 q 198 440 163 465 q 309 388 233 415 q 466 303 417 350 q 514 180 514 257 q 446 37 514 91 q 264 -17 377 -17 z "},"t":{"ha":412,"x_min":34,"x_max":377,"o":"m 279 -17 q 163 21 206 -17 q 120 135 120 60 l 120 583 l 34 583 l 34 669 l 120 669 l 120 823 l 223 842 l 223 669 l 377 669 l 377 583 l 223 583 l 223 153 q 243 86 223 103 q 295 69 262 69 q 377 89 336 69 l 377 5 q 279 -17 331 -17 z "},"u":{"ha":720,"x_min":34,"x_max":686,"o":"m 497 583 l 412 583 l 412 669 l 600 669 l 600 86 l 686 86 l 686 0 l 506 0 l 501 74 l 497 74 q 307 -17 422 -17 q 168 31 216 -17 q 120 170 120 79 l 120 583 l 34 583 l 34 669 l 223 669 l 223 187 q 253 93 223 118 q 334 69 283 69 q 497 149 434 69 l 497 583 z "},"v":{"ha":669,"x_min":0,"x_max":669,"o":"m 374 -9 l 276 -9 l 77 583 l 0 583 l 0 669 l 257 669 l 257 583 l 182 583 l 331 123 l 334 123 l 489 583 l 412 583 l 412 669 l 669 669 l 669 583 l 583 583 l 374 -9 z "},"w":{"ha":1029,"x_min":0,"x_max":1029,"o":"m 742 -9 l 645 -9 l 509 388 l 506 388 l 365 -9 l 267 -9 l 77 583 l 0 583 l 0 669 l 257 669 l 257 583 l 182 583 l 322 123 l 326 123 l 466 508 l 441 583 l 360 583 l 360 669 l 634 669 l 634 583 l 542 583 l 700 123 l 703 123 l 849 583 l 772 583 l 772 669 l 1029 669 l 1029 583 l 943 583 l 742 -9 z "},"x":{"ha":617,"x_min":0,"x_max":617,"o":"m 436 580 l 436 583 l 377 583 l 377 669 l 609 669 l 609 583 l 528 583 l 358 348 l 537 86 l 617 86 l 617 0 l 360 0 l 360 86 l 420 86 l 420 89 l 297 271 l 170 89 l 170 86 l 240 86 l 240 0 l 0 0 l 0 86 l 77 86 l 255 336 l 87 583 l 9 583 l 9 669 l 257 669 l 257 583 l 202 583 l 202 580 l 317 412 l 436 580 z "},"y":{"ha":669,"x_min":0,"x_max":669,"o":"m 583 583 l 362 -43 q 318 -153 341 -103 q 265 -239 295 -202 q 194 -295 235 -276 q 96 -314 153 -314 q 34 -309 65 -314 l 34 -214 q 98 -219 67 -219 q 148 -213 125 -219 q 192 -189 171 -207 q 235 -129 213 -171 q 285 -9 257 -87 l 276 -9 l 77 583 l 0 583 l 0 669 l 257 669 l 257 583 l 182 583 l 331 123 l 334 123 l 490 583 l 412 583 l 412 669 l 669 669 l 669 583 l 583 583 z "},"z":{"ha":617,"x_min":51,"x_max":566,"o":"m 51 74 l 422 586 l 141 586 l 141 480 l 51 480 l 51 669 l 549 669 l 549 595 l 180 82 l 477 82 l 477 189 l 566 189 l 566 0 l 51 0 l 51 74 z "},"à":{"ha":669,"x_min":69,"x_max":652,"o":"m 103 619 q 345 686 221 686 q 508 637 451 686 q 566 482 566 588 l 566 86 l 652 86 l 652 0 l 473 0 l 468 77 l 465 79 q 262 -17 382 -17 q 121 35 173 -17 q 69 168 69 87 q 162 329 69 276 q 434 382 255 382 l 463 382 l 463 484 q 433 574 463 547 q 333 600 403 600 q 192 573 249 600 l 192 480 l 103 480 l 103 619 m 422 309 q 240 279 303 309 q 177 173 177 249 q 207 93 177 118 q 286 69 238 69 q 463 153 389 69 l 463 309 l 422 309 m 388 737 l 309 737 l 171 943 l 291 943 l 388 737 z "},"á":{"ha":669,"x_min":69,"x_max":652,"o":"m 103 619 q 345 686 221 686 q 508 637 451 686 q 566 482 566 588 l 566 86 l 652 86 l 652 0 l 473 0 l 468 77 l 465 79 q 262 -17 382 -17 q 121 35 173 -17 q 69 168 69 87 q 162 329 69 276 q 434 382 255 382 l 463 382 l 463 484 q 433 574 463 547 q 333 600 403 600 q 192 573 249 600 l 192 480 l 103 480 l 103 619 m 422 309 q 240 279 303 309 q 177 173 177 249 q 207 93 177 118 q 286 69 238 69 q 463 153 389 69 l 463 309 l 422 309 m 377 943 l 497 943 l 360 737 l 281 737 l 377 943 z "},"â":{"ha":669,"x_min":69,"x_max":652,"o":"m 103 619 q 345 686 221 686 q 508 637 451 686 q 566 482 566 588 l 566 86 l 652 86 l 652 0 l 473 0 l 468 77 l 465 79 q 262 -17 382 -17 q 121 35 173 -17 q 69 168 69 87 q 162 329 69 276 q 434 382 255 382 l 463 382 l 463 484 q 433 574 463 547 q 333 600 403 600 q 192 573 249 600 l 192 480 l 103 480 l 103 619 m 422 309 q 240 279 303 309 q 177 173 177 249 q 207 93 177 118 q 286 69 238 69 q 463 153 389 69 l 463 309 l 422 309 m 333 866 l 235 737 l 132 737 l 293 943 l 376 943 l 537 737 l 434 737 l 336 866 l 333 866 z "},"ã":{"ha":669,"x_min":69,"x_max":652,"o":"m 103 619 q 345 686 221 686 q 508 637 451 686 q 566 482 566 588 l 566 86 l 652 86 l 652 0 l 473 0 l 468 77 l 465 79 q 262 -17 382 -17 q 121 35 173 -17 q 69 168 69 87 q 162 329 69 276 q 434 382 255 382 l 463 382 l 463 484 q 433 574 463 547 q 333 600 403 600 q 192 573 249 600 l 192 480 l 103 480 l 103 619 m 422 309 q 240 279 303 309 q 177 173 177 249 q 207 93 177 118 q 286 69 238 69 q 463 153 389 69 l 463 309 l 422 309 m 137 794 l 137 881 q 247 919 190 919 q 352 888 291 919 q 425 868 394 868 q 528 909 480 868 l 532 909 l 532 821 q 422 784 478 784 q 317 814 377 784 q 243 835 274 835 q 141 794 189 835 l 137 794 z "},"ä":{"ha":669,"x_min":69,"x_max":652,"o":"m 103 619 q 345 686 221 686 q 508 637 451 686 q 566 482 566 588 l 566 86 l 652 86 l 652 0 l 473 0 l 468 77 l 465 79 q 262 -17 382 -17 q 121 35 173 -17 q 69 168 69 87 q 162 329 69 276 q 434 382 255 382 l 463 382 l 463 484 q 433 574 463 547 q 333 600 403 600 q 192 573 249 600 l 192 480 l 103 480 l 103 619 m 422 309 q 240 279 303 309 q 177 173 177 249 q 207 93 177 118 q 286 69 238 69 q 463 153 389 69 l 463 309 l 422 309 m 137 850 q 158 905 137 885 q 209 926 178 926 q 263 905 243 926 q 283 852 283 885 q 263 800 283 820 q 207 780 243 780 q 157 800 177 780 q 137 850 137 820 m 386 850 q 406 905 386 885 q 458 926 427 926 q 512 905 492 926 q 532 852 532 885 q 512 800 532 820 q 456 780 492 780 q 406 800 425 780 q 386 850 386 820 z "},"ā":{"ha":669,"x_min":69,"x_max":652,"o":"m 103 619 q 345 686 221 686 q 508 637 451 686 q 566 482 566 588 l 566 86 l 652 86 l 652 0 l 473 0 l 468 77 l 465 79 q 262 -17 382 -17 q 121 35 173 -17 q 69 168 69 87 q 162 329 69 276 q 434 382 255 382 l 463 382 l 463 484 q 433 574 463 547 q 333 600 403 600 q 192 573 249 600 l 192 480 l 103 480 l 103 619 m 422 309 q 240 279 303 309 q 177 173 177 249 q 207 93 177 118 q 286 69 238 69 q 463 153 389 69 l 463 309 l 422 309 m 154 874 l 514 874 l 514 792 l 154 792 l 154 874 z "},"ă":{"ha":669,"x_min":69,"x_max":652,"o":"m 103 619 q 345 686 221 686 q 508 637 451 686 q 566 482 566 588 l 566 86 l 652 86 l 652 0 l 473 0 l 468 77 l 465 79 q 262 -17 382 -17 q 121 35 173 -17 q 69 168 69 87 q 162 329 69 276 q 434 382 255 382 l 463 382 l 463 484 q 433 574 463 547 q 333 600 403 600 q 192 573 249 600 l 192 480 l 103 480 l 103 619 m 422 309 q 240 279 303 309 q 177 173 177 249 q 207 93 177 118 q 286 69 238 69 q 463 153 389 69 l 463 309 l 422 309 m 225 943 q 258 851 228 883 q 334 820 288 820 q 412 852 382 820 q 446 943 441 885 l 520 943 q 467 793 518 849 q 334 737 417 737 q 204 793 254 737 q 149 943 154 849 l 225 943 z "},"å":{"ha":669,"x_min":69,"x_max":652,"o":"m 103 619 q 345 686 221 686 q 508 637 451 686 q 566 482 566 588 l 566 86 l 652 86 l 652 0 l 473 0 l 468 77 l 465 79 q 262 -17 382 -17 q 121 35 173 -17 q 69 168 69 87 q 162 329 69 276 q 434 382 255 382 l 463 382 l 463 484 q 433 574 463 547 q 333 600 403 600 q 192 573 249 600 l 192 480 l 103 480 l 103 619 m 422 309 q 240 279 303 309 q 177 173 177 249 q 207 93 177 118 q 286 69 238 69 q 463 153 389 69 l 463 309 l 422 309 m 206 849 q 242 930 206 900 q 336 960 278 960 q 430 930 398 960 q 463 850 463 900 q 428 770 463 802 q 331 737 393 737 q 239 769 273 737 q 206 849 206 801 m 276 850 q 291 805 276 820 q 334 790 307 790 q 376 807 360 790 q 393 850 393 823 q 376 892 393 878 q 334 907 360 907 q 291 892 307 907 q 276 850 276 878 z "},"ą":{"ha":669,"x_min":69,"x_max":652,"o":"m 103 619 q 345 686 221 686 q 508 637 451 686 q 566 482 566 588 l 566 86 l 652 86 l 652 0 l 473 0 l 468 77 l 465 79 q 262 -17 382 -17 q 121 35 173 -17 q 69 168 69 87 q 162 329 69 276 q 434 382 255 382 l 463 382 l 463 484 q 433 574 463 547 q 333 600 403 600 q 192 573 249 600 l 192 480 l 103 480 l 103 619 m 422 309 q 240 279 303 309 q 177 173 177 249 q 207 93 177 118 q 286 69 238 69 q 463 153 389 69 l 463 309 l 422 309 m 581 -231 q 652 -214 617 -231 l 652 -297 q 568 -317 614 -317 q 463 -282 506 -317 q 420 -185 420 -247 q 521 -3 420 -91 l 521 14 l 616 14 l 616 0 q 514 -165 514 -82 q 534 -216 514 -201 q 581 -231 554 -231 z "},"æ":{"ha":977,"x_min":69,"x_max":926,"o":"m 909 129 l 909 36 q 717 -17 826 -17 q 496 101 569 -17 l 492 101 q 255 -17 394 -17 q 119 34 170 -17 q 69 168 69 86 q 158 329 69 276 q 418 382 247 382 l 446 382 l 446 484 q 418 574 446 547 q 324 600 389 600 q 192 573 245 600 l 192 480 l 103 480 l 103 619 q 336 686 216 686 q 521 595 478 686 l 525 595 q 713 686 598 686 q 867 607 808 686 q 926 382 926 528 l 926 329 l 549 329 q 593 142 552 209 q 725 72 634 75 q 909 129 825 72 m 406 309 q 239 279 298 309 q 180 173 180 249 q 207 94 180 120 q 274 69 235 69 q 465 171 381 67 q 442 309 446 228 l 406 309 m 823 412 q 790 555 823 509 q 696 600 756 600 q 598 553 638 600 q 550 412 559 506 l 823 412 z "},"ć":{"ha":617,"x_min":69,"x_max":549,"o":"m 549 26 q 369 -17 466 -17 q 149 72 230 -17 q 69 328 69 161 q 153 591 69 496 q 374 686 238 686 q 549 646 468 686 l 549 480 l 458 480 l 458 585 q 365 600 420 600 q 223 539 269 600 q 177 346 177 478 q 226 139 177 206 q 370 72 276 72 q 549 118 463 72 l 549 26 m 403 943 l 523 943 l 386 737 l 307 737 l 403 943 z "},"ĉ":{"ha":617,"x_min":69,"x_max":562,"o":"m 549 26 q 369 -17 466 -17 q 149 72 230 -17 q 69 328 69 161 q 153 591 69 496 q 374 686 238 686 q 549 646 468 686 l 549 480 l 458 480 l 458 585 q 365 600 420 600 q 223 539 269 600 q 177 346 177 478 q 226 139 177 206 q 370 72 276 72 q 549 118 463 72 l 549 26 m 358 866 l 261 737 l 158 737 l 319 943 l 401 943 l 562 737 l 460 737 l 362 866 l 358 866 z "},"č":{"ha":617,"x_min":69,"x_max":562,"o":"m 549 26 q 369 -17 466 -17 q 149 72 230 -17 q 69 328 69 161 q 153 591 69 496 q 374 686 238 686 q 549 646 468 686 l 549 480 l 458 480 l 458 585 q 365 600 420 600 q 223 539 269 600 q 177 346 177 478 q 226 139 177 206 q 370 72 276 72 q 549 118 463 72 l 549 26 m 362 814 l 460 943 l 562 943 l 401 737 l 319 737 l 158 943 l 261 943 l 358 814 l 362 814 z "},"ċ":{"ha":617,"x_min":69,"x_max":549,"o":"m 549 26 q 369 -17 466 -17 q 149 72 230 -17 q 69 328 69 161 q 153 591 69 496 q 374 686 238 686 q 549 646 468 686 l 549 480 l 458 480 l 458 585 q 365 600 420 600 q 223 539 269 600 q 177 346 177 478 q 226 139 177 206 q 370 72 276 72 q 549 118 463 72 l 549 26 m 286 850 q 306 906 286 886 q 360 926 326 926 q 413 906 393 926 q 434 854 434 886 q 413 800 434 820 q 358 780 393 780 q 306 800 326 780 q 286 850 286 820 z "},"ç":{"ha":617,"x_min":69,"x_max":549,"o":"m 549 26 q 369 -17 466 -17 q 149 72 230 -17 q 69 328 69 161 q 153 591 69 496 q 374 686 238 686 q 549 646 468 686 l 549 480 l 458 480 l 458 585 q 365 600 420 600 q 223 539 269 600 q 177 346 177 478 q 226 139 177 206 q 370 72 276 72 q 549 118 463 72 l 549 26 m 231 -231 q 298 -238 264 -238 q 350 -225 331 -238 q 369 -182 369 -213 q 271 -127 369 -127 l 322 14 l 401 14 l 369 -75 q 442 -117 420 -87 q 463 -185 463 -147 q 418 -281 463 -245 q 302 -317 374 -317 q 231 -309 267 -317 l 231 -231 z "},"ď":{"ha":823,"x_min":69,"x_max":823,"o":"m 394 943 l 394 1029 l 600 1029 l 600 86 l 686 86 l 686 0 l 502 0 l 497 58 l 494 60 q 322 -17 422 -17 q 137 77 206 -17 q 69 324 69 171 q 151 586 69 485 q 364 686 233 686 q 494 655 429 686 l 497 657 l 497 943 l 394 943 m 497 576 q 369 600 434 600 q 224 536 271 600 q 177 336 177 472 q 219 137 177 206 q 348 69 261 69 q 497 137 434 69 l 497 576 m 720 943 l 823 943 l 754 720 l 682 720 l 720 943 z "},"đ":{"ha":720,"x_min":69,"x_max":686,"o":"m 394 943 l 394 1029 l 600 1029 l 600 850 l 686 850 l 686 772 l 600 772 l 600 86 l 686 86 l 686 0 l 502 0 l 497 58 l 494 60 q 322 -17 422 -17 q 137 77 206 -17 q 69 324 69 171 q 151 586 69 485 q 364 686 233 686 q 494 655 429 686 l 497 657 l 497 772 l 309 772 l 309 850 l 497 850 l 497 943 l 394 943 m 497 576 q 369 600 434 600 q 224 536 271 600 q 177 336 177 472 q 219 137 177 206 q 348 69 261 69 q 497 137 434 69 l 497 576 z "},"è":{"ha":617,"x_min":60,"x_max":566,"o":"m 549 129 l 549 36 q 348 -17 463 -17 q 136 74 213 -17 q 60 328 60 165 q 141 591 60 496 q 343 686 221 686 q 504 607 442 686 q 566 382 566 528 l 566 329 l 166 329 q 213 142 170 209 q 353 72 257 75 q 549 129 460 72 m 463 412 q 427 555 463 509 q 326 600 391 600 q 219 553 262 600 q 168 412 177 506 l 463 412 m 388 737 l 309 737 l 171 943 l 291 943 l 388 737 z "},"é":{"ha":617,"x_min":60,"x_max":566,"o":"m 549 129 l 549 36 q 348 -17 463 -17 q 136 74 213 -17 q 60 328 60 165 q 141 591 60 496 q 343 686 221 686 q 504 607 442 686 q 566 382 566 528 l 566 329 l 166 329 q 213 142 170 209 q 353 72 257 75 q 549 129 460 72 m 463 412 q 427 555 463 509 q 326 600 391 600 q 219 553 262 600 q 168 412 177 506 l 463 412 m 377 943 l 497 943 l 360 737 l 281 737 l 377 943 z "},"ê":{"ha":617,"x_min":60,"x_max":566,"o":"m 549 129 l 549 36 q 348 -17 463 -17 q 136 74 213 -17 q 60 328 60 165 q 141 591 60 496 q 343 686 221 686 q 504 607 442 686 q 566 382 566 528 l 566 329 l 166 329 q 213 142 170 209 q 353 72 257 75 q 549 129 460 72 m 463 412 q 427 555 463 509 q 326 600 391 600 q 219 553 262 600 q 168 412 177 506 l 463 412 m 333 866 l 235 737 l 132 737 l 293 943 l 376 943 l 537 737 l 434 737 l 336 866 l 333 866 z "},"ě":{"ha":617,"x_min":60,"x_max":566,"o":"m 549 129 l 549 36 q 348 -17 463 -17 q 136 74 213 -17 q 60 328 60 165 q 141 591 60 496 q 343 686 221 686 q 504 607 442 686 q 566 382 566 528 l 566 329 l 166 329 q 213 142 170 209 q 353 72 257 75 q 549 129 460 72 m 463 412 q 427 555 463 509 q 326 600 391 600 q 219 553 262 600 q 168 412 177 506 l 463 412 m 336 814 l 434 943 l 537 943 l 376 737 l 293 737 l 132 943 l 235 943 l 333 814 l 336 814 z "},"ë":{"ha":617,"x_min":60,"x_max":566,"o":"m 549 129 l 549 36 q 348 -17 463 -17 q 136 74 213 -17 q 60 328 60 165 q 141 591 60 496 q 343 686 221 686 q 504 607 442 686 q 566 382 566 528 l 566 329 l 166 329 q 213 142 170 209 q 353 72 257 75 q 549 129 460 72 m 463 412 q 427 555 463 509 q 326 600 391 600 q 219 553 262 600 q 168 412 177 506 l 463 412 m 137 850 q 158 905 137 885 q 209 926 178 926 q 263 905 243 926 q 283 852 283 885 q 263 800 283 820 q 207 780 243 780 q 157 800 177 780 q 137 850 137 820 m 386 850 q 406 905 386 885 q 458 926 427 926 q 512 905 492 926 q 532 852 532 885 q 512 800 532 820 q 456 780 492 780 q 406 800 425 780 q 386 850 386 820 z "},"ē":{"ha":617,"x_min":60,"x_max":566,"o":"m 549 129 l 549 36 q 348 -17 463 -17 q 136 74 213 -17 q 60 328 60 165 q 141 591 60 496 q 343 686 221 686 q 504 607 442 686 q 566 382 566 528 l 566 329 l 166 329 q 213 142 170 209 q 353 72 257 75 q 549 129 460 72 m 463 412 q 427 555 463 509 q 326 600 391 600 q 219 553 262 600 q 168 412 177 506 l 463 412 m 154 874 l 514 874 l 514 792 l 154 792 l 154 874 z "},"ĕ":{"ha":617,"x_min":60,"x_max":566,"o":"m 549 129 l 549 36 q 348 -17 463 -17 q 136 74 213 -17 q 60 328 60 165 q 141 591 60 496 q 343 686 221 686 q 504 607 442 686 q 566 382 566 528 l 566 329 l 166 329 q 213 142 170 209 q 353 72 257 75 q 549 129 460 72 m 463 412 q 427 555 463 509 q 326 600 391 600 q 219 553 262 600 q 168 412 177 506 l 463 412 m 225 943 q 258 851 228 883 q 334 820 288 820 q 412 852 382 820 q 446 943 441 885 l 520 943 q 467 793 518 849 q 334 737 417 737 q 204 793 254 737 q 149 943 154 849 l 225 943 z "},"ė":{"ha":617,"x_min":60,"x_max":566,"o":"m 549 129 l 549 36 q 348 -17 463 -17 q 136 74 213 -17 q 60 328 60 165 q 141 591 60 496 q 343 686 221 686 q 504 607 442 686 q 566 382 566 528 l 566 329 l 166 329 q 213 142 170 209 q 353 72 257 75 q 549 129 460 72 m 463 412 q 427 555 463 509 q 326 600 391 600 q 219 553 262 600 q 168 412 177 506 l 463 412 m 261 850 q 280 906 261 886 q 334 926 300 926 q 388 906 367 926 q 408 854 408 886 q 388 800 408 820 q 333 780 367 780 q 280 800 300 780 q 261 850 261 820 z "},"ę":{"ha":617,"x_min":60,"x_max":566,"o":"m 549 129 l 549 36 q 412 -165 412 -65 q 431 -216 412 -201 q 478 -231 451 -231 q 549 -214 514 -231 l 549 -297 q 465 -317 511 -317 q 360 -282 403 -317 q 317 -185 317 -247 q 403 -15 317 -94 l 403 -12 q 348 -17 374 -17 q 136 74 213 -17 q 60 328 60 165 q 141 591 60 496 q 343 686 221 686 q 504 607 442 686 q 566 382 566 528 l 566 329 l 166 329 q 213 142 170 209 q 353 72 257 75 q 549 129 460 72 m 463 412 q 427 555 463 509 q 326 600 391 600 q 219 553 262 600 q 168 412 177 506 l 463 412 z "},"ĝ":{"ha":617,"x_min":34,"x_max":600,"o":"m 69 444 q 135 618 69 550 q 307 686 202 686 q 376 677 345 686 q 437 669 403 669 l 600 669 l 600 586 l 502 586 l 502 585 q 535 460 535 528 q 469 276 535 346 q 298 206 403 206 q 213 219 250 206 q 180 147 180 182 q 194 115 180 127 q 237 103 207 103 l 357 103 q 531 57 470 103 q 592 -81 592 10 q 502 -259 592 -192 q 278 -326 413 -326 q 101 -274 168 -326 q 34 -142 34 -223 q 127 27 34 -50 q 86 117 86 62 q 159 247 86 185 q 69 444 69 317 m 190 0 q 137 -120 137 -51 q 175 -212 137 -178 q 291 -245 213 -245 q 436 -207 384 -245 q 489 -106 489 -168 q 454 -27 489 -53 q 357 0 418 0 l 190 0 m 175 453 q 207 332 175 376 q 305 288 240 288 q 398 328 367 288 q 429 448 429 367 q 397 563 429 526 q 300 600 365 600 q 207 564 238 600 q 175 453 175 528 m 307 866 l 209 737 l 106 737 l 267 943 l 350 943 l 511 737 l 408 737 l 310 866 l 307 866 z "},"ğ":{"ha":617,"x_min":34,"x_max":600,"o":"m 69 444 q 135 618 69 550 q 307 686 202 686 q 376 677 345 686 q 437 669 403 669 l 600 669 l 600 586 l 502 586 l 502 585 q 535 460 535 528 q 469 276 535 346 q 298 206 403 206 q 213 219 250 206 q 180 147 180 182 q 194 115 180 127 q 237 103 207 103 l 357 103 q 531 57 470 103 q 592 -81 592 10 q 502 -259 592 -192 q 278 -326 413 -326 q 101 -274 168 -326 q 34 -142 34 -223 q 127 27 34 -50 q 86 117 86 62 q 159 247 86 185 q 69 444 69 317 m 190 0 q 137 -120 137 -51 q 175 -212 137 -178 q 291 -245 213 -245 q 436 -207 384 -245 q 489 -106 489 -168 q 454 -27 489 -53 q 357 0 418 0 l 190 0 m 175 453 q 207 332 175 376 q 305 288 240 288 q 398 328 367 288 q 429 448 429 367 q 397 563 429 526 q 300 600 365 600 q 207 564 238 600 q 175 453 175 528 m 199 943 q 232 851 202 883 q 309 820 262 820 q 386 852 357 820 q 420 943 415 885 l 494 943 q 442 793 492 849 q 309 737 391 737 q 178 793 228 737 q 123 943 129 849 l 199 943 z "},"ġ":{"ha":617,"x_min":34,"x_max":600,"o":"m 69 444 q 135 618 69 550 q 307 686 202 686 q 376 677 345 686 q 437 669 403 669 l 600 669 l 600 586 l 502 586 l 502 585 q 535 460 535 528 q 469 276 535 346 q 298 206 403 206 q 213 219 250 206 q 180 147 180 182 q 194 115 180 127 q 237 103 207 103 l 357 103 q 531 57 470 103 q 592 -81 592 10 q 502 -259 592 -192 q 278 -326 413 -326 q 101 -274 168 -326 q 34 -142 34 -223 q 127 27 34 -50 q 86 117 86 62 q 159 247 86 185 q 69 444 69 317 m 190 0 q 137 -120 137 -51 q 175 -212 137 -178 q 291 -245 213 -245 q 436 -207 384 -245 q 489 -106 489 -168 q 454 -27 489 -53 q 357 0 418 0 l 190 0 m 175 453 q 207 332 175 376 q 305 288 240 288 q 398 328 367 288 q 429 448 429 367 q 397 563 429 526 q 300 600 365 600 q 207 564 238 600 q 175 453 175 528 m 235 850 q 255 906 235 886 q 309 926 274 926 q 362 906 341 926 q 382 854 382 886 q 362 800 382 820 q 307 780 341 780 q 255 800 274 780 q 235 850 235 820 z "},"ģ":{"ha":617,"x_min":34,"x_max":600,"o":"m 69 444 q 135 618 69 550 q 307 686 202 686 q 376 677 345 686 q 437 669 403 669 l 600 669 l 600 586 l 502 586 l 502 585 q 535 460 535 528 q 469 276 535 346 q 298 206 403 206 q 213 219 250 206 q 180 147 180 182 q 194 115 180 127 q 237 103 207 103 l 357 103 q 531 57 470 103 q 592 -81 592 10 q 502 -259 592 -192 q 278 -326 413 -326 q 101 -274 168 -326 q 34 -142 34 -223 q 127 27 34 -50 q 86 117 86 62 q 159 247 86 185 q 69 444 69 317 m 190 0 q 137 -120 137 -51 q 175 -212 137 -178 q 291 -245 213 -245 q 436 -207 384 -245 q 489 -106 489 -168 q 454 -27 489 -53 q 357 0 418 0 l 190 0 m 175 453 q 207 332 175 376 q 305 288 240 288 q 398 328 367 288 q 429 448 429 367 q 397 563 429 526 q 300 600 365 600 q 207 564 238 600 q 175 453 175 528 m 360 737 l 252 737 l 322 943 l 393 943 l 360 737 z "},"ĥ":{"ha":720,"x_min":34,"x_max":686,"o":"m 120 943 l 34 943 l 34 1029 l 223 1029 l 223 590 l 225 590 q 436 686 317 686 q 561 637 521 686 q 600 499 600 588 l 600 86 l 686 86 l 686 0 l 429 0 l 429 86 l 497 86 l 497 485 q 473 577 497 554 q 406 600 449 600 q 223 502 307 600 l 223 86 l 291 86 l 291 0 l 34 0 l 34 86 l 120 86 l 120 943 m 358 1190 l 274 1080 l 171 1080 l 317 1269 l 403 1269 l 549 1080 l 446 1080 l 362 1190 l 358 1190 z "},"ħ":{"ha":720,"x_min":34,"x_max":686,"o":"m 120 772 l 34 772 l 34 850 l 120 850 l 120 943 l 34 943 l 34 1029 l 223 1029 l 223 850 l 412 850 l 412 772 l 223 772 l 223 590 l 225 590 q 436 686 317 686 q 561 637 521 686 q 600 499 600 588 l 600 86 l 686 86 l 686 0 l 429 0 l 429 86 l 497 86 l 497 485 q 473 577 497 554 q 406 600 449 600 q 223 502 307 600 l 223 86 l 291 86 l 291 0 l 34 0 l 34 86 l 120 86 l 120 772 z "},"ı":{"ha":360,"x_min":51,"x_max":326,"o":"m 51 86 l 137 86 l 137 583 l 51 583 l 51 669 l 240 669 l 240 86 l 326 86 l 326 0 l 51 0 l 51 86 z "},"ì":{"ha":360,"x_min":17,"x_max":326,"o":"m 51 86 l 137 86 l 137 583 l 51 583 l 51 669 l 240 669 l 240 86 l 326 86 l 326 0 l 51 0 l 51 86 m 233 737 l 154 737 l 17 943 l 137 943 l 233 737 z "},"í":{"ha":360,"x_min":51,"x_max":343,"o":"m 51 86 l 137 86 l 137 583 l 51 583 l 51 669 l 240 669 l 240 86 l 326 86 l 326 0 l 51 0 l 51 86 m 223 943 l 343 943 l 206 737 l 127 737 l 223 943 z "},"î":{"ha":360,"x_min":-22,"x_max":382,"o":"m 51 86 l 137 86 l 137 583 l 51 583 l 51 669 l 240 669 l 240 86 l 326 86 l 326 0 l 51 0 l 51 86 m 178 866 l 81 737 l -22 737 l 139 943 l 221 943 l 382 737 l 279 737 l 182 866 l 178 866 z "},"ĩ":{"ha":360,"x_min":-17,"x_max":377,"o":"m 51 86 l 137 86 l 137 583 l 51 583 l 51 669 l 240 669 l 240 86 l 326 86 l 326 0 l 51 0 l 51 86 m -17 794 l -17 881 q 93 919 36 919 q 197 888 137 919 q 271 868 240 868 q 374 909 326 868 l 377 909 l 377 821 q 267 784 324 784 q 163 814 223 784 q 89 835 120 835 q -14 794 34 835 l -17 794 z "},"ï":{"ha":360,"x_min":-17,"x_max":377,"o":"m 51 86 l 137 86 l 137 583 l 51 583 l 51 669 l 240 669 l 240 86 l 326 86 l 326 0 l 51 0 l 51 86 m -17 850 q 3 905 -17 885 q 55 926 24 926 q 109 905 89 926 q 129 852 129 885 q 109 800 129 820 q 53 780 89 780 q 3 800 22 780 q -17 850 -17 820 m 231 850 q 252 905 231 885 q 303 926 273 926 q 358 905 338 926 q 377 852 377 885 q 358 800 377 820 q 302 780 338 780 q 251 800 271 780 q 231 850 231 820 z "},"ī":{"ha":360,"x_min":0,"x_max":360,"o":"m 51 86 l 137 86 l 137 583 l 51 583 l 51 669 l 240 669 l 240 86 l 326 86 l 326 0 l 51 0 l 51 86 m 0 874 l 360 874 l 360 792 l 0 792 l 0 874 z "},"ĭ":{"ha":360,"x_min":-5,"x_max":365,"o":"m 51 86 l 137 86 l 137 583 l 51 583 l 51 669 l 240 669 l 240 86 l 326 86 l 326 0 l 51 0 l 51 86 m 70 943 q 104 851 74 883 q 180 820 134 820 q 257 852 228 820 q 291 943 286 885 l 365 943 q 313 793 364 849 q 180 737 262 737 q 50 793 99 737 q -5 943 0 849 l 70 943 z "},"į":{"ha":360,"x_min":51,"x_max":326,"o":"m 51 86 l 137 86 l 137 583 l 51 583 l 51 669 l 240 669 l 240 86 l 326 86 l 326 0 l 51 0 l 51 86 m 108 850 q 128 906 108 886 q 182 926 147 926 q 235 906 214 926 q 255 854 255 886 q 235 800 255 820 q 180 780 214 780 q 128 800 147 780 q 108 850 108 820 m 255 -231 q 326 -214 291 -231 l 326 -297 q 242 -317 288 -317 q 137 -282 180 -317 q 94 -185 94 -247 q 195 -3 94 -91 l 195 14 l 290 14 l 290 0 q 189 -165 189 -82 q 208 -216 189 -201 q 255 -231 228 -231 z "},"ȷ":{"ha":309,"x_min":0,"x_max":223,"o":"m 180 -255 q 48 -312 139 -312 q 0 -309 24 -312 l 0 -223 q 29 -225 14 -225 q 101 -197 82 -225 q 120 -99 120 -170 l 120 583 l 34 583 l 34 669 l 223 669 l 223 -84 q 180 -255 223 -201 z "},"ĵ":{"ha":309,"x_min":-48,"x_max":357,"o":"m 180 -255 q 48 -312 139 -312 q 0 -309 24 -312 l 0 -223 q 29 -225 14 -225 q 101 -197 82 -225 q 120 -99 120 -170 l 120 583 l 34 583 l 34 669 l 223 669 l 223 -84 q 180 -255 223 -201 m 153 866 l 55 737 l -48 737 l 113 943 l 195 943 l 357 737 l 254 737 l 156 866 l 153 866 z "},"ķ":{"ha":669,"x_min":51,"x_max":669,"o":"m 51 86 l 137 86 l 137 943 l 51 943 l 51 1029 l 240 1029 l 240 86 l 309 86 l 309 0 l 51 0 l 51 86 m 394 669 l 652 669 l 652 583 l 561 583 l 365 376 l 590 86 l 669 86 l 669 0 l 403 0 l 403 86 l 466 86 l 468 89 l 257 365 l 458 583 l 394 583 l 394 669 m 309 -69 l 417 -69 l 346 -274 l 276 -274 l 309 -69 z "},"ĺ":{"ha":360,"x_min":51,"x_max":360,"o":"m 51 86 l 137 86 l 137 943 l 51 943 l 51 1029 l 240 1029 l 240 86 l 326 86 l 326 0 l 51 0 l 51 86 m 240 1269 l 360 1269 l 213 1080 l 137 1080 l 240 1269 z "},"ľ":{"ha":463,"x_min":51,"x_max":463,"o":"m 51 86 l 137 86 l 137 943 l 51 943 l 51 1029 l 240 1029 l 240 86 l 326 86 l 326 0 l 51 0 l 51 86 m 360 943 l 463 943 l 394 720 l 322 720 l 360 943 z "},"ļ":{"ha":360,"x_min":51,"x_max":326,"o":"m 51 86 l 137 86 l 137 943 l 51 943 l 51 1029 l 240 1029 l 240 86 l 326 86 l 326 0 l 51 0 l 51 86 m 137 -69 l 245 -69 l 175 -274 l 105 -274 l 137 -69 z "},"ł":{"ha":360,"x_min":34,"x_max":343,"o":"m 51 86 l 137 86 l 137 528 l 34 490 l 34 580 l 137 617 l 137 943 l 51 943 l 51 1029 l 240 1029 l 240 648 l 343 686 l 343 597 l 240 559 l 240 86 l 326 86 l 326 0 l 51 0 l 51 86 z "},"ŀ":{"ha":412,"x_min":51,"x_max":463,"o":"m 326 513 q 344 566 326 547 q 394 585 362 585 q 444 566 425 585 q 463 516 463 547 q 444 465 463 484 q 393 446 425 446 q 344 465 362 446 q 326 513 326 484 m 51 86 l 137 86 l 137 943 l 51 943 l 51 1029 l 240 1029 l 240 86 l 326 86 l 326 0 l 51 0 l 51 86 z "},"ń":{"ha":720,"x_min":51,"x_max":703,"o":"m 51 86 l 137 86 l 137 583 l 51 583 l 51 669 l 233 669 l 238 580 l 240 580 q 453 686 333 686 q 578 637 538 686 q 617 499 617 588 l 617 86 l 703 86 l 703 0 l 446 0 l 446 86 l 514 86 l 514 485 q 490 577 514 554 q 424 600 466 600 q 240 494 324 600 l 240 86 l 309 86 l 309 0 l 51 0 l 51 86 m 429 943 l 549 943 l 412 737 l 333 737 l 429 943 z "},"ň":{"ha":720,"x_min":51,"x_max":703,"o":"m 51 86 l 137 86 l 137 583 l 51 583 l 51 669 l 233 669 l 238 580 l 240 580 q 453 686 333 686 q 578 637 538 686 q 617 499 617 588 l 617 86 l 703 86 l 703 0 l 446 0 l 446 86 l 514 86 l 514 485 q 490 577 514 554 q 424 600 466 600 q 240 494 324 600 l 240 86 l 309 86 l 309 0 l 51 0 l 51 86 m 388 814 l 485 943 l 588 943 l 427 737 l 345 737 l 183 943 l 286 943 l 384 814 l 388 814 z "},"ñ":{"ha":720,"x_min":51,"x_max":703,"o":"m 51 86 l 137 86 l 137 583 l 51 583 l 51 669 l 233 669 l 238 580 l 240 580 q 453 686 333 686 q 578 637 538 686 q 617 499 617 588 l 617 86 l 703 86 l 703 0 l 446 0 l 446 86 l 514 86 l 514 485 q 490 577 514 554 q 424 600 466 600 q 240 494 324 600 l 240 86 l 309 86 l 309 0 l 51 0 l 51 86 m 189 794 l 189 881 q 298 919 242 919 q 403 888 343 919 q 477 868 446 868 q 580 909 532 868 l 583 909 l 583 821 q 473 784 530 784 q 369 814 429 784 q 295 835 326 835 q 192 794 240 835 l 189 794 z "},"ņ":{"ha":720,"x_min":51,"x_max":703,"o":"m 51 86 l 137 86 l 137 583 l 51 583 l 51 669 l 233 669 l 238 580 l 240 580 q 453 686 333 686 q 578 637 538 686 q 617 499 617 588 l 617 86 l 703 86 l 703 0 l 446 0 l 446 86 l 514 86 l 514 485 q 490 577 514 554 q 424 600 466 600 q 240 494 324 600 l 240 86 l 309 86 l 309 0 l 51 0 l 51 86 m 326 -69 l 434 -69 l 364 -274 l 293 -274 l 326 -69 z "},"ò":{"ha":669,"x_min":60,"x_max":609,"o":"m 60 331 q 140 590 60 494 q 341 686 219 686 q 536 597 463 686 q 609 346 609 508 q 532 82 609 182 q 329 -17 454 -17 q 133 78 206 -17 q 60 331 60 173 m 168 346 q 212 140 168 211 q 338 69 255 69 q 458 135 415 69 q 501 336 501 201 q 333 600 501 600 q 210 539 252 600 q 168 346 168 478 m 388 737 l 309 737 l 171 943 l 291 943 l 388 737 z "},"ó":{"ha":669,"x_min":60,"x_max":609,"o":"m 60 331 q 140 590 60 494 q 341 686 219 686 q 536 597 463 686 q 609 346 609 508 q 532 82 609 182 q 329 -17 454 -17 q 133 78 206 -17 q 60 331 60 173 m 168 346 q 212 140 168 211 q 338 69 255 69 q 458 135 415 69 q 501 336 501 201 q 333 600 501 600 q 210 539 252 600 q 168 346 168 478 m 377 943 l 497 943 l 360 737 l 281 737 l 377 943 z "},"ô":{"ha":669,"x_min":60,"x_max":609,"o":"m 60 331 q 140 590 60 494 q 341 686 219 686 q 536 597 463 686 q 609 346 609 508 q 532 82 609 182 q 329 -17 454 -17 q 133 78 206 -17 q 60 331 60 173 m 168 346 q 212 140 168 211 q 338 69 255 69 q 458 135 415 69 q 501 336 501 201 q 333 600 501 600 q 210 539 252 600 q 168 346 168 478 m 333 866 l 235 737 l 132 737 l 293 943 l 376 943 l 537 737 l 434 737 l 336 866 l 333 866 z "},"õ":{"ha":669,"x_min":60,"x_max":609,"o":"m 60 331 q 140 590 60 494 q 341 686 219 686 q 536 597 463 686 q 609 346 609 508 q 532 82 609 182 q 329 -17 454 -17 q 133 78 206 -17 q 60 331 60 173 m 168 346 q 212 140 168 211 q 338 69 255 69 q 458 135 415 69 q 501 336 501 201 q 333 600 501 600 q 210 539 252 600 q 168 346 168 478 m 137 794 l 137 881 q 247 919 190 919 q 352 888 291 919 q 425 868 394 868 q 528 909 480 868 l 532 909 l 532 821 q 422 784 478 784 q 317 814 377 784 q 243 835 274 835 q 141 794 189 835 l 137 794 z "},"ö":{"ha":669,"x_min":60,"x_max":609,"o":"m 60 331 q 140 590 60 494 q 341 686 219 686 q 536 597 463 686 q 609 346 609 508 q 532 82 609 182 q 329 -17 454 -17 q 133 78 206 -17 q 60 331 60 173 m 168 346 q 212 140 168 211 q 338 69 255 69 q 458 135 415 69 q 501 336 501 201 q 333 600 501 600 q 210 539 252 600 q 168 346 168 478 m 137 850 q 158 905 137 885 q 209 926 178 926 q 263 905 243 926 q 283 852 283 885 q 263 800 283 820 q 207 780 243 780 q 157 800 177 780 q 137 850 137 820 m 386 850 q 406 905 386 885 q 458 926 427 926 q 512 905 492 926 q 532 852 532 885 q 512 800 532 820 q 456 780 492 780 q 406 800 425 780 q 386 850 386 820 z "},"ō":{"ha":669,"x_min":60,"x_max":609,"o":"m 60 331 q 140 590 60 494 q 341 686 219 686 q 536 597 463 686 q 609 346 609 508 q 532 82 609 182 q 329 -17 454 -17 q 133 78 206 -17 q 60 331 60 173 m 168 346 q 212 140 168 211 q 338 69 255 69 q 458 135 415 69 q 501 336 501 201 q 333 600 501 600 q 210 539 252 600 q 168 346 168 478 m 154 874 l 514 874 l 514 792 l 154 792 l 154 874 z "},"ŏ":{"ha":669,"x_min":60,"x_max":609,"o":"m 60 331 q 140 590 60 494 q 341 686 219 686 q 536 597 463 686 q 609 346 609 508 q 532 82 609 182 q 329 -17 454 -17 q 133 78 206 -17 q 60 331 60 173 m 168 346 q 212 140 168 211 q 338 69 255 69 q 458 135 415 69 q 501 336 501 201 q 333 600 501 600 q 210 539 252 600 q 168 346 168 478 m 225 943 q 258 851 228 883 q 334 820 288 820 q 412 852 382 820 q 446 943 441 885 l 520 943 q 467 793 518 849 q 334 737 417 737 q 204 793 254 737 q 149 943 154 849 l 225 943 z "},"ő":{"ha":669,"x_min":60,"x_max":609,"o":"m 60 331 q 140 590 60 494 q 341 686 219 686 q 536 597 463 686 q 609 346 609 508 q 532 82 609 182 q 329 -17 454 -17 q 133 78 206 -17 q 60 331 60 173 m 168 346 q 212 140 168 211 q 338 69 255 69 q 458 135 415 69 q 501 336 501 201 q 333 600 501 600 q 210 539 252 600 q 168 346 168 478 m 290 943 l 398 943 l 273 737 l 195 737 l 290 943 m 470 943 l 581 943 l 444 737 l 369 737 l 470 943 z "},"ø":{"ha":669,"x_min":60,"x_max":609,"o":"m 60 331 q 139 587 60 489 q 341 686 218 686 q 487 641 425 686 l 542 729 l 600 694 l 537 593 q 609 346 609 502 q 532 84 609 185 q 329 -17 454 -17 q 183 29 245 -17 l 129 -60 l 69 -26 l 134 79 q 60 331 60 175 m 168 346 q 195 175 168 243 l 437 561 q 333 600 396 600 q 212 540 255 600 q 168 346 168 480 m 338 69 q 458 136 415 69 q 501 336 501 204 q 477 496 501 434 l 235 111 q 338 69 274 69 z "},"œ":{"ha":1029,"x_min":60,"x_max":977,"o":"m 977 329 l 585 329 q 631 142 588 209 q 770 72 674 75 q 960 129 874 72 l 960 36 q 763 -17 878 -17 q 533 111 604 -17 l 530 111 q 319 -17 454 -17 q 131 79 202 -17 q 60 331 60 175 q 136 587 60 489 q 331 686 213 686 q 537 562 468 686 l 540 562 q 758 686 621 686 q 917 607 857 686 q 977 382 977 528 l 977 329 m 168 346 q 209 141 168 214 q 328 69 250 69 q 440 136 400 69 q 480 336 480 204 q 441 532 480 465 q 322 600 401 600 q 209 540 250 600 q 168 346 168 480 m 874 412 q 840 555 874 509 q 741 600 806 600 q 637 553 679 600 q 586 412 595 506 l 874 412 z "},"ŕ":{"ha":463,"x_min":51,"x_max":446,"o":"m 51 86 l 137 86 l 137 583 l 51 583 l 51 669 l 235 669 l 240 573 l 243 573 q 316 653 276 628 q 410 679 355 679 q 446 676 430 679 l 446 568 q 393 573 420 573 q 306 550 343 573 q 240 475 269 526 l 240 86 l 343 86 l 343 0 l 51 0 l 51 86 m 300 943 l 420 943 l 283 737 l 204 737 l 300 943 z "},"ř":{"ha":463,"x_min":51,"x_max":460,"o":"m 51 86 l 137 86 l 137 583 l 51 583 l 51 669 l 235 669 l 240 573 l 243 573 q 316 653 276 628 q 410 679 355 679 q 446 676 430 679 l 446 568 q 393 573 420 573 q 306 550 343 573 q 240 475 269 526 l 240 86 l 343 86 l 343 0 l 51 0 l 51 86 m 259 814 l 357 943 l 460 943 l 298 737 l 216 737 l 55 943 l 158 943 l 255 814 l 259 814 z "},"ŗ":{"ha":463,"x_min":51,"x_max":446,"o":"m 51 86 l 137 86 l 137 583 l 51 583 l 51 669 l 235 669 l 240 573 l 243 573 q 316 653 276 628 q 410 679 355 679 q 446 676 430 679 l 446 568 q 393 573 420 573 q 306 550 343 573 q 240 475 269 526 l 240 86 l 343 86 l 343 0 l 51 0 l 51 86 m 137 -69 l 245 -69 l 175 -274 l 105 -274 l 137 -69 z "},"ś":{"ha":566,"x_min":60,"x_max":514,"o":"m 264 -17 q 69 24 158 -17 l 69 171 l 158 171 l 158 82 q 271 67 209 67 q 380 93 348 67 q 412 168 412 120 q 374 239 412 213 q 255 295 336 266 q 101 383 142 336 q 60 494 60 430 q 127 632 60 578 q 298 686 194 686 q 480 645 394 686 l 480 497 l 391 497 l 391 588 q 293 604 352 604 q 195 577 228 604 q 163 508 163 550 q 198 440 163 465 q 309 388 233 415 q 466 303 417 350 q 514 180 514 257 q 446 37 514 91 q 264 -17 377 -17 m 326 943 l 446 943 l 309 737 l 230 737 l 326 943 z "},"ŝ":{"ha":566,"x_min":60,"x_max":514,"o":"m 264 -17 q 69 24 158 -17 l 69 171 l 158 171 l 158 82 q 271 67 209 67 q 380 93 348 67 q 412 168 412 120 q 374 239 412 213 q 255 295 336 266 q 101 383 142 336 q 60 494 60 430 q 127 632 60 578 q 298 686 194 686 q 480 645 394 686 l 480 497 l 391 497 l 391 588 q 293 604 352 604 q 195 577 228 604 q 163 508 163 550 q 198 440 163 465 q 309 388 233 415 q 466 303 417 350 q 514 180 514 257 q 446 37 514 91 q 264 -17 377 -17 m 281 866 l 183 737 l 81 737 l 242 943 l 324 943 l 485 737 l 382 737 l 285 866 l 281 866 z "},"š":{"ha":566,"x_min":60,"x_max":514,"o":"m 264 -17 q 69 24 158 -17 l 69 171 l 158 171 l 158 82 q 271 67 209 67 q 380 93 348 67 q 412 168 412 120 q 374 239 412 213 q 255 295 336 266 q 101 383 142 336 q 60 494 60 430 q 127 632 60 578 q 298 686 194 686 q 480 645 394 686 l 480 497 l 391 497 l 391 588 q 293 604 352 604 q 195 577 228 604 q 163 508 163 550 q 198 440 163 465 q 309 388 233 415 q 466 303 417 350 q 514 180 514 257 q 446 37 514 91 q 264 -17 377 -17 m 285 814 l 382 943 l 485 943 l 324 737 l 242 737 l 81 943 l 183 943 l 281 814 l 285 814 z "},"ș":{"ha":566,"x_min":60,"x_max":514,"o":"m 264 -17 q 69 24 158 -17 l 69 171 l 158 171 l 158 82 q 271 67 209 67 q 380 93 348 67 q 412 168 412 120 q 374 239 412 213 q 255 295 336 266 q 101 383 142 336 q 60 494 60 430 q 127 632 60 578 q 298 686 194 686 q 480 645 394 686 l 480 497 l 391 497 l 391 588 q 293 604 352 604 q 195 577 228 604 q 163 508 163 550 q 198 440 163 465 q 309 388 233 415 q 466 303 417 350 q 514 180 514 257 q 446 37 514 91 q 264 -17 377 -17 m 231 -69 l 340 -69 l 269 -274 l 199 -274 l 231 -69 z "},"ş":{"ha":566,"x_min":60,"x_max":514,"o":"m 264 -17 q 69 24 158 -17 l 69 171 l 158 171 l 158 82 q 271 67 209 67 q 380 93 348 67 q 412 168 412 120 q 374 239 412 213 q 255 295 336 266 q 101 383 142 336 q 60 494 60 430 q 127 632 60 578 q 298 686 194 686 q 480 645 394 686 l 480 497 l 391 497 l 391 588 q 293 604 352 604 q 195 577 228 604 q 163 508 163 550 q 198 440 163 465 q 309 388 233 415 q 466 303 417 350 q 514 180 514 257 q 446 37 514 91 q 264 -17 377 -17 m 154 -231 q 221 -238 187 -238 q 273 -225 254 -238 q 291 -182 291 -213 q 194 -127 291 -127 l 245 14 l 324 14 l 291 -75 q 364 -117 343 -87 q 386 -185 386 -147 q 341 -281 386 -245 q 225 -317 297 -317 q 154 -309 190 -317 l 154 -231 z "},"ß":{"ha":772,"x_min":51,"x_max":720,"o":"m 240 0 l 51 0 l 51 86 l 137 86 l 137 583 l 51 583 l 51 669 l 137 669 l 137 780 q 216 970 137 902 q 420 1037 295 1037 q 601 982 533 1037 q 669 832 669 926 q 657 754 669 785 q 626 699 645 722 q 584 659 607 676 q 538 629 561 643 q 467 578 489 600 q 446 521 446 556 q 480 454 446 482 q 574 393 514 425 q 627 360 602 377 q 673 320 652 343 q 707 265 694 297 q 720 192 720 233 q 656 39 720 94 q 485 -17 592 -17 q 360 0 422 -17 l 360 91 q 485 69 424 69 q 586 95 554 69 q 617 175 617 122 q 590 248 617 219 q 506 307 562 276 q 447 343 475 324 q 397 384 418 362 q 362 436 376 406 q 348 504 348 466 q 358 569 348 544 q 384 615 369 595 q 422 652 400 634 q 468 686 444 670 q 510 714 492 701 q 541 743 528 727 q 561 779 554 760 q 568 826 568 799 q 529 922 568 890 q 412 955 490 955 q 285 917 331 955 q 240 796 240 880 l 240 0 z "},"ť":{"ha":463,"x_min":34,"x_max":463,"o":"m 279 -17 q 163 21 206 -17 q 120 135 120 60 l 120 583 l 34 583 l 34 669 l 120 669 l 120 823 l 223 842 l 223 669 l 377 669 l 377 583 l 223 583 l 223 153 q 243 86 223 103 q 295 69 262 69 q 377 89 336 69 l 377 5 q 279 -17 331 -17 m 360 943 l 463 943 l 394 720 l 322 720 l 360 943 z "},"ț":{"ha":412,"x_min":34,"x_max":377,"o":"m 279 -17 q 163 21 206 -17 q 120 135 120 60 l 120 583 l 34 583 l 34 669 l 120 669 l 120 823 l 223 842 l 223 669 l 377 669 l 377 583 l 223 583 l 223 153 q 243 86 223 103 q 295 69 262 69 q 377 89 336 69 l 377 5 q 279 -17 331 -17 m 206 -69 l 314 -69 l 243 -274 l 173 -274 l 206 -69 z "},"ţ":{"ha":412,"x_min":34,"x_max":377,"o":"m 279 -17 q 163 21 206 -17 q 120 135 120 60 l 120 583 l 34 583 l 34 669 l 120 669 l 120 823 l 223 842 l 223 669 l 377 669 l 377 583 l 223 583 l 223 153 q 243 86 223 103 q 295 69 262 69 q 377 89 336 69 l 377 5 q 279 -17 331 -17 m 129 -231 q 195 -238 161 -238 q 247 -225 228 -238 q 266 -182 266 -213 q 168 -127 266 -127 l 219 14 l 298 14 l 266 -75 q 339 -117 317 -87 q 360 -185 360 -147 q 316 -281 360 -245 q 199 -317 271 -317 q 129 -309 165 -317 l 129 -231 z "},"ŧ":{"ha":412,"x_min":34,"x_max":377,"o":"m 279 -17 q 163 21 206 -17 q 120 135 120 60 l 120 377 l 34 377 l 34 463 l 120 463 l 120 583 l 34 583 l 34 669 l 120 669 l 120 823 l 223 842 l 223 669 l 360 669 l 360 583 l 223 583 l 223 463 l 360 463 l 360 377 l 223 377 l 223 153 q 243 86 223 103 q 295 69 262 69 q 377 89 336 69 l 377 5 q 279 -17 331 -17 z "},"ù":{"ha":720,"x_min":34,"x_max":686,"o":"m 497 583 l 412 583 l 412 669 l 600 669 l 600 86 l 686 86 l 686 0 l 506 0 l 501 74 l 497 74 q 307 -17 422 -17 q 168 31 216 -17 q 120 170 120 79 l 120 583 l 34 583 l 34 669 l 223 669 l 223 187 q 253 93 223 118 q 334 69 283 69 q 497 149 434 69 l 497 583 m 388 737 l 309 737 l 171 943 l 291 943 l 388 737 z "},"ú":{"ha":720,"x_min":34,"x_max":686,"o":"m 497 583 l 412 583 l 412 669 l 600 669 l 600 86 l 686 86 l 686 0 l 506 0 l 501 74 l 497 74 q 307 -17 422 -17 q 168 31 216 -17 q 120 170 120 79 l 120 583 l 34 583 l 34 669 l 223 669 l 223 187 q 253 93 223 118 q 334 69 283 69 q 497 149 434 69 l 497 583 m 377 943 l 497 943 l 360 737 l 281 737 l 377 943 z "},"û":{"ha":720,"x_min":34,"x_max":686,"o":"m 497 583 l 412 583 l 412 669 l 600 669 l 600 86 l 686 86 l 686 0 l 506 0 l 501 74 l 497 74 q 307 -17 422 -17 q 168 31 216 -17 q 120 170 120 79 l 120 583 l 34 583 l 34 669 l 223 669 l 223 187 q 253 93 223 118 q 334 69 283 69 q 497 149 434 69 l 497 583 m 333 866 l 235 737 l 132 737 l 293 943 l 376 943 l 537 737 l 434 737 l 336 866 l 333 866 z "},"ũ":{"ha":720,"x_min":34,"x_max":686,"o":"m 497 583 l 412 583 l 412 669 l 600 669 l 600 86 l 686 86 l 686 0 l 506 0 l 501 74 l 497 74 q 307 -17 422 -17 q 168 31 216 -17 q 120 170 120 79 l 120 583 l 34 583 l 34 669 l 223 669 l 223 187 q 253 93 223 118 q 334 69 283 69 q 497 149 434 69 l 497 583 m 137 794 l 137 881 q 247 919 190 919 q 352 888 291 919 q 425 868 394 868 q 528 909 480 868 l 532 909 l 532 821 q 422 784 478 784 q 317 814 377 784 q 243 835 274 835 q 141 794 189 835 l 137 794 z "},"ü":{"ha":720,"x_min":34,"x_max":686,"o":"m 497 583 l 412 583 l 412 669 l 600 669 l 600 86 l 686 86 l 686 0 l 506 0 l 501 74 l 497 74 q 307 -17 422 -17 q 168 31 216 -17 q 120 170 120 79 l 120 583 l 34 583 l 34 669 l 223 669 l 223 187 q 253 93 223 118 q 334 69 283 69 q 497 149 434 69 l 497 583 m 137 850 q 158 905 137 885 q 209 926 178 926 q 263 905 243 926 q 283 852 283 885 q 263 800 283 820 q 207 780 243 780 q 157 800 177 780 q 137 850 137 820 m 386 850 q 406 905 386 885 q 458 926 427 926 q 512 905 492 926 q 532 852 532 885 q 512 800 532 820 q 456 780 492 780 q 406 800 425 780 q 386 850 386 820 z "},"ū":{"ha":720,"x_min":34,"x_max":686,"o":"m 497 583 l 412 583 l 412 669 l 600 669 l 600 86 l 686 86 l 686 0 l 506 0 l 501 74 l 497 74 q 307 -17 422 -17 q 168 31 216 -17 q 120 170 120 79 l 120 583 l 34 583 l 34 669 l 223 669 l 223 187 q 253 93 223 118 q 334 69 283 69 q 497 149 434 69 l 497 583 m 154 874 l 514 874 l 514 792 l 154 792 l 154 874 z "},"ŭ":{"ha":720,"x_min":34,"x_max":686,"o":"m 497 583 l 412 583 l 412 669 l 600 669 l 600 86 l 686 86 l 686 0 l 506 0 l 501 74 l 497 74 q 307 -17 422 -17 q 168 31 216 -17 q 120 170 120 79 l 120 583 l 34 583 l 34 669 l 223 669 l 223 187 q 253 93 223 118 q 334 69 283 69 q 497 149 434 69 l 497 583 m 225 943 q 258 851 228 883 q 334 820 288 820 q 412 852 382 820 q 446 943 441 885 l 520 943 q 467 793 518 849 q 334 737 417 737 q 204 793 254 737 q 149 943 154 849 l 225 943 z "},"ů":{"ha":720,"x_min":34,"x_max":686,"o":"m 497 583 l 412 583 l 412 669 l 600 669 l 600 86 l 686 86 l 686 0 l 506 0 l 501 74 l 497 74 q 307 -17 422 -17 q 168 31 216 -17 q 120 170 120 79 l 120 583 l 34 583 l 34 669 l 223 669 l 223 187 q 253 93 223 118 q 334 69 283 69 q 497 149 434 69 l 497 583 m 206 849 q 242 930 206 900 q 336 960 278 960 q 430 930 398 960 q 463 850 463 900 q 428 770 463 802 q 331 737 393 737 q 239 769 273 737 q 206 849 206 801 m 276 850 q 291 805 276 820 q 334 790 307 790 q 376 807 360 790 q 393 850 393 823 q 376 892 393 878 q 334 907 360 907 q 291 892 307 907 q 276 850 276 878 z "},"ű":{"ha":720,"x_min":34,"x_max":686,"o":"m 497 583 l 412 583 l 412 669 l 600 669 l 600 86 l 686 86 l 686 0 l 506 0 l 501 74 l 497 74 q 307 -17 422 -17 q 168 31 216 -17 q 120 170 120 79 l 120 583 l 34 583 l 34 669 l 223 669 l 223 187 q 253 93 223 118 q 334 69 283 69 q 497 149 434 69 l 497 583 m 290 943 l 398 943 l 273 737 l 195 737 l 290 943 m 470 943 l 581 943 l 444 737 l 369 737 l 470 943 z "},"ų":{"ha":720,"x_min":34,"x_max":686,"o":"m 497 583 l 412 583 l 412 669 l 600 669 l 600 86 l 686 86 l 686 0 l 506 0 l 501 74 l 497 74 q 307 -17 422 -17 q 168 31 216 -17 q 120 170 120 79 l 120 583 l 34 583 l 34 669 l 223 669 l 223 187 q 253 93 223 118 q 334 69 283 69 q 497 149 434 69 l 497 583 m 616 -231 q 686 -214 652 -231 l 686 -297 q 602 -317 648 -317 q 497 -282 540 -317 q 454 -185 454 -247 q 556 -3 454 -91 l 556 14 l 650 14 l 650 0 q 549 -165 549 -82 q 568 -216 549 -201 q 616 -231 588 -231 z "},"ẁ":{"ha":1029,"x_min":0,"x_max":1029,"o":"m 742 -9 l 645 -9 l 509 388 l 506 388 l 365 -9 l 267 -9 l 77 583 l 0 583 l 0 669 l 257 669 l 257 583 l 182 583 l 322 123 l 326 123 l 466 508 l 441 583 l 360 583 l 360 669 l 634 669 l 634 583 l 542 583 l 700 123 l 703 123 l 849 583 l 772 583 l 772 669 l 1029 669 l 1029 583 l 943 583 l 742 -9 m 568 737 l 489 737 l 352 943 l 472 943 l 568 737 z "},"ẃ":{"ha":1029,"x_min":0,"x_max":1029,"o":"m 742 -9 l 645 -9 l 509 388 l 506 388 l 365 -9 l 267 -9 l 77 583 l 0 583 l 0 669 l 257 669 l 257 583 l 182 583 l 322 123 l 326 123 l 466 508 l 441 583 l 360 583 l 360 669 l 634 669 l 634 583 l 542 583 l 700 123 l 703 123 l 849 583 l 772 583 l 772 669 l 1029 669 l 1029 583 l 943 583 l 742 -9 m 557 943 l 677 943 l 540 737 l 461 737 l 557 943 z "},"ŵ":{"ha":1029,"x_min":0,"x_max":1029,"o":"m 742 -9 l 645 -9 l 509 388 l 506 388 l 365 -9 l 267 -9 l 77 583 l 0 583 l 0 669 l 257 669 l 257 583 l 182 583 l 322 123 l 326 123 l 466 508 l 441 583 l 360 583 l 360 669 l 634 669 l 634 583 l 542 583 l 700 123 l 703 123 l 849 583 l 772 583 l 772 669 l 1029 669 l 1029 583 l 943 583 l 742 -9 m 513 866 l 415 737 l 312 737 l 473 943 l 556 943 l 717 737 l 614 737 l 516 866 l 513 866 z "},"ẅ":{"ha":1029,"x_min":0,"x_max":1029,"o":"m 742 -9 l 645 -9 l 509 388 l 506 388 l 365 -9 l 267 -9 l 77 583 l 0 583 l 0 669 l 257 669 l 257 583 l 182 583 l 322 123 l 326 123 l 466 508 l 441 583 l 360 583 l 360 669 l 634 669 l 634 583 l 542 583 l 700 123 l 703 123 l 849 583 l 772 583 l 772 669 l 1029 669 l 1029 583 l 943 583 l 742 -9 m 317 850 q 338 905 317 885 q 389 926 358 926 q 443 905 424 926 q 463 852 463 885 q 443 800 463 820 q 388 780 424 780 q 337 800 357 780 q 317 850 317 820 m 566 850 q 586 905 566 885 q 638 926 607 926 q 692 905 672 926 q 712 852 712 885 q 692 800 712 820 q 636 780 672 780 q 586 800 605 780 q 566 850 566 820 z "},"ỳ":{"ha":669,"x_min":0,"x_max":669,"o":"m 583 583 l 362 -43 q 318 -153 341 -103 q 265 -239 295 -202 q 194 -295 235 -276 q 96 -314 153 -314 q 34 -309 65 -314 l 34 -214 q 98 -219 67 -219 q 148 -213 125 -219 q 192 -189 171 -207 q 235 -129 213 -171 q 285 -9 257 -87 l 276 -9 l 77 583 l 0 583 l 0 669 l 257 669 l 257 583 l 182 583 l 331 123 l 334 123 l 490 583 l 412 583 l 412 669 l 669 669 l 669 583 l 583 583 m 388 737 l 309 737 l 171 943 l 291 943 l 388 737 z "},"ý":{"ha":669,"x_min":0,"x_max":669,"o":"m 583 583 l 362 -43 q 318 -153 341 -103 q 265 -239 295 -202 q 194 -295 235 -276 q 96 -314 153 -314 q 34 -309 65 -314 l 34 -214 q 98 -219 67 -219 q 148 -213 125 -219 q 192 -189 171 -207 q 235 -129 213 -171 q 285 -9 257 -87 l 276 -9 l 77 583 l 0 583 l 0 669 l 257 669 l 257 583 l 182 583 l 331 123 l 334 123 l 490 583 l 412 583 l 412 669 l 669 669 l 669 583 l 583 583 m 377 943 l 497 943 l 360 737 l 281 737 l 377 943 z "},"ŷ":{"ha":669,"x_min":0,"x_max":669,"o":"m 583 583 l 362 -43 q 318 -153 341 -103 q 265 -239 295 -202 q 194 -295 235 -276 q 96 -314 153 -314 q 34 -309 65 -314 l 34 -214 q 98 -219 67 -219 q 148 -213 125 -219 q 192 -189 171 -207 q 235 -129 213 -171 q 285 -9 257 -87 l 276 -9 l 77 583 l 0 583 l 0 669 l 257 669 l 257 583 l 182 583 l 331 123 l 334 123 l 490 583 l 412 583 l 412 669 l 669 669 l 669 583 l 583 583 m 333 866 l 235 737 l 132 737 l 293 943 l 376 943 l 537 737 l 434 737 l 336 866 l 333 866 z "},"ÿ":{"ha":669,"x_min":0,"x_max":669,"o":"m 583 583 l 362 -43 q 318 -153 341 -103 q 265 -239 295 -202 q 194 -295 235 -276 q 96 -314 153 -314 q 34 -309 65 -314 l 34 -214 q 98 -219 67 -219 q 148 -213 125 -219 q 192 -189 171 -207 q 235 -129 213 -171 q 285 -9 257 -87 l 276 -9 l 77 583 l 0 583 l 0 669 l 257 669 l 257 583 l 182 583 l 331 123 l 334 123 l 490 583 l 412 583 l 412 669 l 669 669 l 669 583 l 583 583 m 137 850 q 158 905 137 885 q 209 926 178 926 q 263 905 243 926 q 283 852 283 885 q 263 800 283 820 q 207 780 243 780 q 157 800 177 780 q 137 850 137 820 m 386 850 q 406 905 386 885 q 458 926 427 926 q 512 905 492 926 q 532 852 532 885 q 512 800 532 820 q 456 780 492 780 q 406 800 425 780 q 386 850 386 820 z "},"ź":{"ha":617,"x_min":51,"x_max":566,"o":"m 51 74 l 422 586 l 141 586 l 141 480 l 51 480 l 51 669 l 549 669 l 549 595 l 180 82 l 477 82 l 477 189 l 566 189 l 566 0 l 51 0 l 51 74 m 352 943 l 472 943 l 334 737 l 255 737 l 352 943 z "},"ž":{"ha":617,"x_min":51,"x_max":566,"o":"m 51 74 l 422 586 l 141 586 l 141 480 l 51 480 l 51 669 l 549 669 l 549 595 l 180 82 l 477 82 l 477 189 l 566 189 l 566 0 l 51 0 l 51 74 m 310 814 l 408 943 l 511 943 l 350 737 l 267 737 l 106 943 l 209 943 l 307 814 l 310 814 z "},"ż":{"ha":617,"x_min":51,"x_max":566,"o":"m 51 74 l 422 586 l 141 586 l 141 480 l 51 480 l 51 669 l 549 669 l 549 595 l 180 82 l 477 82 l 477 189 l 566 189 l 566 0 l 51 0 l 51 74 m 235 850 q 255 906 235 886 q 309 926 274 926 q 362 906 341 926 q 382 854 382 886 q 362 800 382 820 q 307 780 341 780 q 255 800 274 780 q 235 850 235 820 z "},"ŋ":{"ha":720,"x_min":51,"x_max":617,"o":"m 514 -99 l 514 485 q 490 577 514 554 q 424 600 466 600 q 240 494 324 600 l 240 86 l 309 86 l 309 0 l 51 0 l 51 86 l 137 86 l 137 583 l 51 583 l 51 669 l 233 669 l 238 580 l 240 580 q 453 686 333 686 q 578 637 538 686 q 617 499 617 588 l 617 -84 q 574 -255 617 -201 q 442 -312 533 -312 q 394 -309 418 -312 l 394 -223 q 424 -225 408 -225 q 496 -197 477 -225 q 514 -99 514 -170 z "},"ð":{"ha":720,"x_min":60,"x_max":633,"o":"m 216 809 l 331 895 q 151 943 261 936 l 151 1029 q 403 950 297 1024 l 518 1036 l 566 974 l 465 898 q 633 415 633 725 q 555 96 633 209 q 341 -17 477 -17 q 136 78 213 -17 q 60 328 60 173 q 141 575 60 482 q 353 669 221 669 q 497 633 429 669 l 501 634 q 394 845 472 760 l 264 748 l 216 809 m 357 583 q 214 525 261 583 q 168 340 168 466 q 213 139 168 209 q 348 69 259 69 q 482 151 439 69 q 525 406 525 233 q 516 544 525 480 q 357 583 439 583 z "},"þ":{"ha":720,"x_min":43,"x_max":652,"o":"m 652 355 q 570 87 652 190 q 364 -17 489 -17 q 235 14 298 -17 l 231 12 l 231 -223 l 334 -223 l 334 -309 l 43 -309 l 43 -223 l 129 -223 l 129 943 l 43 943 l 43 1029 l 231 1029 l 231 626 l 235 624 q 405 686 307 686 q 584 592 516 686 q 652 355 652 497 m 544 340 q 502 529 544 458 q 374 600 460 600 q 231 544 298 600 l 231 94 q 352 69 283 69 q 493 135 442 69 q 544 340 544 202 z "},"ĳ":{"ha":669,"x_min":51,"x_max":598,"o":"m 51 86 l 137 86 l 137 583 l 51 583 l 51 669 l 240 669 l 240 86 l 326 86 l 326 0 l 51 0 l 51 86 m 108 850 q 128 906 108 886 q 182 926 147 926 q 235 906 214 926 q 255 854 255 886 q 235 800 255 820 q 180 780 214 780 q 128 800 147 780 q 108 850 108 820 m 540 -255 q 408 -312 499 -312 q 360 -309 384 -312 l 360 -223 q 389 -225 374 -225 q 461 -197 442 -225 q 480 -99 480 -170 l 480 583 l 394 583 l 394 669 l 583 669 l 583 -84 q 540 -255 583 -201 m 451 850 q 471 906 451 886 q 525 926 490 926 q 578 906 557 926 q 598 854 598 886 q 578 800 598 820 q 523 780 557 780 q 471 800 490 780 q 451 850 451 820 z "},"ﬀ":{"ha":772,"x_min":51,"x_max":861,"o":"m 861 857 l 772 857 l 772 950 q 720 955 746 955 q 628 921 657 955 q 600 809 600 886 l 600 669 l 754 669 l 754 583 l 600 583 l 600 86 l 686 86 l 686 0 l 412 0 l 412 86 l 497 86 l 497 583 l 240 583 l 240 86 l 326 86 l 326 0 l 51 0 l 51 86 l 137 86 l 137 583 l 51 583 l 51 669 l 137 669 l 137 789 q 155 903 137 857 q 204 977 173 948 q 275 1017 235 1005 q 360 1029 316 1029 q 497 998 430 1029 l 497 909 q 367 947 434 947 q 267 912 295 947 q 240 804 240 878 l 240 669 l 497 669 l 497 794 q 556 977 497 917 q 718 1037 616 1037 q 861 1012 787 1037 l 861 857 z "},"ﬃ":{"ha":1080,"x_min":51,"x_max":1046,"o":"m 497 928 q 393 947 449 947 q 273 911 307 947 q 240 801 240 876 l 240 669 l 497 669 l 497 794 q 564 976 497 914 q 768 1037 631 1037 q 960 1008 868 1037 l 960 823 l 857 823 l 857 945 q 765 955 813 955 q 639 920 677 955 q 600 806 600 885 l 600 669 l 960 669 l 960 86 l 1046 86 l 1046 0 l 772 0 l 772 86 l 857 86 l 857 583 l 600 583 l 600 86 l 686 86 l 686 0 l 412 0 l 412 86 l 497 86 l 497 583 l 240 583 l 240 86 l 326 86 l 326 0 l 51 0 l 51 86 l 137 86 l 137 583 l 51 583 l 51 669 l 137 669 l 137 785 q 203 969 137 909 q 391 1029 269 1029 q 497 1017 442 1029 l 497 928 z "},"ﬄ":{"ha":1080,"x_min":51,"x_max":1046,"o":"m 960 1032 l 960 86 l 1046 86 l 1046 0 l 789 0 l 789 86 l 857 86 l 857 941 q 761 955 814 955 q 638 920 676 955 q 600 809 600 885 l 600 669 l 754 669 l 754 583 l 600 583 l 600 86 l 669 86 l 669 0 l 412 0 l 412 86 l 497 86 l 497 583 l 240 583 l 240 86 l 326 86 l 326 0 l 51 0 l 51 86 l 137 86 l 137 583 l 51 583 l 51 669 l 137 669 l 137 785 q 203 969 137 909 q 391 1029 269 1029 q 497 1017 442 1029 l 497 928 q 393 947 449 947 q 273 911 307 947 q 240 801 240 876 l 240 669 l 497 669 l 497 794 q 568 977 497 917 q 760 1037 638 1037 q 878 1022 818 1037 l 953 1032 l 960 1032 z "},"ﬁ":{"ha":720,"x_min":51,"x_max":686,"o":"m 600 823 l 497 823 l 497 945 q 405 955 453 955 q 279 920 317 955 q 240 806 240 885 l 240 669 l 600 669 l 600 86 l 686 86 l 686 0 l 412 0 l 412 86 l 497 86 l 497 583 l 240 583 l 240 86 l 326 86 l 326 0 l 51 0 l 51 86 l 137 86 l 137 583 l 51 583 l 51 669 l 137 669 l 137 794 q 204 976 137 914 q 408 1037 271 1037 q 600 1008 508 1037 l 600 823 z "},"ﬂ":{"ha":720,"x_min":51,"x_max":686,"o":"m 600 1032 l 600 86 l 686 86 l 686 0 l 429 0 l 429 86 l 497 86 l 497 941 q 401 955 454 955 q 278 920 316 955 q 240 809 240 885 l 240 669 l 394 669 l 394 583 l 240 583 l 240 86 l 309 86 l 309 0 l 51 0 l 51 86 l 137 86 l 137 583 l 51 583 l 51 669 l 137 669 l 137 794 q 207 977 137 917 q 400 1037 278 1037 q 518 1022 458 1037 l 593 1032 l 600 1032 z "},"&":{"ha":926,"x_min":81,"x_max":926,"o":"m 703 480 l 617 480 l 617 566 l 892 566 l 892 480 l 792 480 q 713 187 784 316 q 806 104 768 130 q 881 77 844 77 q 926 81 905 77 l 926 0 q 862 -9 895 -9 q 769 15 813 -9 q 653 108 725 39 q 377 -17 538 -17 q 163 59 245 -17 q 81 245 81 135 q 257 513 81 410 q 154 725 154 629 q 217 882 154 821 q 381 943 279 943 q 538 891 477 943 q 600 753 600 838 q 553 622 600 681 q 403 501 506 562 q 465 435 430 470 q 532 365 499 400 l 648 250 q 703 480 700 355 m 189 266 q 244 123 189 178 q 391 69 300 69 q 592 165 504 69 q 465 289 537 218 q 309 454 393 360 q 189 266 189 386 m 501 746 q 466 828 501 799 q 377 857 432 857 q 289 826 322 857 q 255 736 255 796 q 352 557 255 655 q 464 645 427 598 q 501 746 501 691 z "},"`":{"ha":309,"x_min":41,"x_max":257,"o":"m 257 737 l 178 737 l 41 943 l 161 943 l 257 737 z "},"´":{"ha":309,"x_min":51,"x_max":267,"o":"m 147 943 l 267 943 l 130 737 l 51 737 l 147 943 z "},"ˆ":{"ha":514,"x_min":55,"x_max":460,"o":"m 255 866 l 158 737 l 55 737 l 216 943 l 298 943 l 460 737 l 357 737 l 259 866 l 255 866 z "},"ˇ":{"ha":514,"x_min":55,"x_max":460,"o":"m 259 814 l 357 943 l 460 943 l 298 737 l 216 737 l 55 943 l 158 943 l 255 814 l 259 814 z "},"˜":{"ha":514,"x_min":60,"x_max":454,"o":"m 60 794 l 60 881 q 170 919 113 919 q 274 888 214 919 q 348 868 317 868 q 451 909 403 868 l 454 909 l 454 821 q 345 784 401 784 q 240 814 300 784 q 166 835 197 835 q 63 794 111 835 l 60 794 z "},"¨":{"ha":514,"x_min":60,"x_max":454,"o":"m 60 850 q 81 905 60 885 q 132 926 101 926 q 186 905 166 926 q 206 852 206 885 q 186 800 206 820 q 130 780 166 780 q 80 800 99 780 q 60 850 60 820 m 309 850 q 329 905 309 885 q 381 926 350 926 q 435 905 415 926 q 454 852 454 885 q 435 800 454 820 q 379 780 415 780 q 328 800 348 780 q 309 850 309 820 z "},"˚":{"ha":412,"x_min":77,"x_max":334,"o":"m 77 849 q 113 930 77 900 q 207 960 149 960 q 302 930 269 960 q 334 850 334 900 q 299 770 334 802 q 202 737 264 737 q 111 769 144 737 q 77 849 77 801 m 147 850 q 163 805 147 820 q 206 790 178 790 q 248 807 231 790 q 264 850 264 823 q 248 892 264 878 q 206 907 231 907 q 163 892 178 907 q 147 850 147 878 z "},"¯":{"ha":463,"x_min":51,"x_max":412,"o":"m 51 874 l 412 874 l 412 792 l 51 792 l 51 874 z "},"˘":{"ha":514,"x_min":72,"x_max":442,"o":"m 147 943 q 181 851 151 883 q 257 820 211 820 q 334 852 305 820 q 369 943 364 885 l 442 943 q 390 793 441 849 q 257 737 340 737 q 127 793 177 737 q 72 943 77 849 l 147 943 z "},"˙":{"ha":360,"x_min":106,"x_max":254,"o":"m 106 850 q 126 906 106 886 q 180 926 146 926 q 233 906 213 926 q 254 854 254 886 q 233 800 254 820 q 178 780 213 780 q 126 800 146 780 q 106 850 106 820 z "},"˝":{"ha":463,"x_min":51,"x_max":437,"o":"m 146 943 l 254 943 l 129 737 l 51 737 l 146 943 m 326 943 l 437 943 l 300 737 l 225 737 l 326 943 z "},"¸":{"ha":360,"x_min":51,"x_max":283,"o":"m 51 -231 q 118 -238 84 -238 q 170 -225 151 -238 q 189 -182 189 -213 q 91 -127 189 -127 l 142 14 l 221 14 l 189 -75 q 261 -117 240 -87 q 283 -185 283 -147 q 238 -281 283 -245 q 122 -317 194 -317 q 51 -309 87 -317 l 51 -231 z "},"˛":{"ha":309,"x_min":38,"x_max":269,"o":"m 199 -231 q 269 -214 235 -231 l 269 -297 q 185 -317 231 -317 q 81 -282 123 -317 q 38 -185 38 -247 q 139 -3 38 -91 l 139 14 l 233 14 l 233 0 q 132 -165 132 -82 q 152 -216 132 -201 q 199 -231 171 -231 z "},"̀":{"ha":0,"x_min":-497,"x_max":-281,"o":"m -281 737 l -360 737 l -497 943 l -377 943 l -281 737 z "},"́":{"ha":0,"x_min":-388,"x_max":-171,"o":"m -291 943 l -171 943 l -309 737 l -388 737 l -291 943 z "},"̂":{"ha":0,"x_min":-537,"x_max":-132,"o":"m -336 866 l -434 737 l -537 737 l -376 943 l -293 943 l -132 737 l -235 737 l -333 866 l -336 866 z "},"̌":{"ha":0,"x_min":-537,"x_max":-132,"o":"m -333 814 l -235 943 l -132 943 l -293 737 l -376 737 l -537 943 l -434 943 l -336 814 l -333 814 z "},"̃":{"ha":0,"x_min":-532,"x_max":-137,"o":"m -532 794 l -532 881 q -422 919 -478 919 q -317 888 -377 919 q -243 868 -274 868 q -141 909 -189 868 l -137 909 l -137 821 q -247 784 -190 784 q -352 814 -291 784 q -425 835 -394 835 q -528 794 -480 835 l -532 794 z "},"̈":{"ha":0,"x_min":-532,"x_max":-137,"o":"m -532 850 q -511 905 -532 885 q -460 926 -490 926 q -406 905 -425 926 q -386 852 -386 885 q -406 800 -386 820 q -461 780 -425 780 q -512 800 -492 780 q -532 850 -532 820 m -283 850 q -262 905 -283 885 q -211 926 -242 926 q -157 905 -177 926 q -137 852 -137 885 q -157 800 -137 820 q -213 780 -177 780 q -263 800 -243 780 q -283 850 -283 820 z "},"̄":{"ha":0,"x_min":-514,"x_max":-154,"o":"m -514 874 l -154 874 l -154 792 l -514 792 l -514 874 z "},"̆":{"ha":0,"x_min":-520,"x_max":-149,"o":"m -444 943 q -411 851 -441 883 q -334 820 -381 820 q -257 852 -286 820 q -223 943 -228 885 l -149 943 q -201 793 -151 849 q -334 737 -252 737 q -465 793 -415 737 q -520 943 -514 849 l -444 943 z "},"̇":{"ha":0,"x_min":-408,"x_max":-261,"o":"m -408 850 q -388 906 -408 886 q -334 926 -369 926 q -281 906 -302 926 q -261 854 -261 886 q -281 800 -261 820 q -336 780 -302 780 q -388 800 -369 780 q -408 850 -408 820 z "},"̊":{"ha":0,"x_min":-463,"x_max":-206,"o":"m -463 849 q -427 930 -463 900 q -333 960 -391 960 q -238 930 -271 960 q -206 850 -206 900 q -241 770 -206 802 q -338 737 -276 737 q -430 769 -396 737 q -463 849 -463 801 m -393 850 q -377 805 -393 820 q -334 790 -362 790 q -292 807 -309 790 q -276 850 -276 823 q -292 892 -276 878 q -334 907 -309 907 q -377 892 -362 907 q -393 850 -393 878 z "},"̋":{"ha":0,"x_min":-473,"x_max":-87,"o":"m -379 943 l -271 943 l -396 737 l -473 737 l -379 943 m -199 943 l -87 943 l -225 737 l -300 737 l -199 943 z "},"̒":{"ha":0,"x_min":-391,"x_max":-250,"o":"m -283 737 l -391 737 l -321 943 l -250 943 l -283 737 z "},"̕":{"ha":103,"x_min":-38,"x_max":103,"o":"m 0 943 l 103 943 l 34 720 l -38 720 l 0 943 z "},"̦":{"ha":0,"x_min":-418,"x_max":-278,"o":"m -386 -69 l -278 -69 l -348 -274 l -418 -274 l -386 -69 z "},"̧":{"ha":0,"x_min":-463,"x_max":-231,"o":"m -463 -231 q -396 -238 -430 -238 q -345 -225 -364 -238 q -326 -182 -326 -213 q -424 -127 -326 -127 l -372 14 l -293 14 l -326 -75 q -253 -117 -274 -87 q -231 -185 -231 -147 q -276 -281 -231 -245 q -393 -317 -321 -317 q -463 -309 -427 -317 l -463 -231 z "},"̨":{"ha":0,"x_min":-283,"x_max":-51,"o":"m -122 -231 q -51 -214 -86 -231 l -51 -297 q -135 -317 -89 -317 q -240 -282 -197 -317 q -283 -185 -283 -247 q -182 -3 -283 -91 l -182 14 l -87 14 l -87 0 q -189 -165 -189 -82 q -169 -216 -189 -201 q -122 -231 -149 -231 z "},",":{"ha":360,"x_min":82,"x_max":266,"o":"m 187 202 q 266 48 266 129 q 135 -178 266 -63 l 82 -129 q 154 7 156 -58 q 89 118 154 58 l 187 202 z "},";":{"ha":360,"x_min":99,"x_max":283,"o":"m 103 578 q 126 644 103 619 q 189 669 149 669 q 251 644 228 669 q 274 585 274 619 q 250 518 274 542 q 185 494 226 494 q 125 518 147 494 q 103 578 103 542 m 204 202 q 283 48 283 129 q 153 -178 283 -63 l 99 -129 q 171 7 173 -58 q 106 118 171 58 l 204 202 z "},":":{"ha":360,"x_min":103,"x_max":274,"o":"m 103 67 q 126 133 103 108 q 189 158 149 158 q 251 133 228 158 q 274 74 274 108 q 250 7 274 31 q 185 -17 226 -17 q 125 7 147 -17 q 103 67 103 31 m 103 578 q 126 644 103 619 q 189 669 149 669 q 251 644 228 669 q 274 585 274 619 q 250 518 274 542 q 185 494 226 494 q 125 518 147 494 q 103 578 103 542 z "},".":{"ha":309,"x_min":86,"x_max":257,"o":"m 86 67 q 109 133 86 108 q 171 158 132 158 q 234 133 211 158 q 257 74 257 108 q 233 7 257 31 q 168 -17 209 -17 q 108 7 130 -17 q 86 67 86 31 z "},"…":{"ha":926,"x_min":86,"x_max":874,"o":"m 86 67 q 109 133 86 108 q 171 158 132 158 q 234 133 211 158 q 257 74 257 108 q 233 7 257 31 q 168 -17 209 -17 q 108 7 130 -17 q 86 67 86 31 m 394 67 q 418 133 394 108 q 480 158 441 158 q 543 133 520 158 q 566 74 566 108 q 542 7 566 31 q 477 -17 518 -17 q 417 7 439 -17 q 394 67 394 31 m 703 67 q 726 133 703 108 q 789 158 749 158 q 851 133 828 158 q 874 74 874 108 q 850 7 874 31 q 785 -17 826 -17 q 725 7 748 -17 q 703 67 703 31 z "},"!":{"ha":412,"x_min":137,"x_max":309,"o":"m 158 926 l 285 926 l 257 257 l 187 257 l 158 926 m 137 67 q 160 133 137 108 q 223 158 183 158 q 285 133 262 158 q 309 74 309 108 q 285 7 309 31 q 219 -17 261 -17 q 159 7 182 -17 q 137 67 137 31 z "},"¡":{"ha":412,"x_min":103,"x_max":274,"o":"m 254 -257 l 127 -257 l 154 412 l 225 412 l 254 -257 m 103 595 q 126 661 103 636 q 189 686 149 686 q 251 661 228 686 q 274 602 274 636 q 250 535 274 559 q 185 511 226 511 q 125 535 147 511 q 103 595 103 559 z "},"?":{"ha":514,"x_min":103,"x_max":484,"o":"m 103 921 q 242 943 170 943 q 415 883 346 943 q 484 720 484 823 q 453 593 484 645 q 365 497 422 542 q 280 414 309 451 q 252 326 252 377 q 262 257 252 295 l 187 257 q 168 360 168 309 q 195 462 168 418 q 269 544 221 506 q 346 617 316 581 q 377 717 377 653 q 335 818 377 784 q 225 852 293 852 q 103 832 170 852 l 103 921 m 137 67 q 160 133 137 108 q 223 158 183 158 q 285 133 262 158 q 309 74 309 108 q 285 7 309 31 q 219 -17 261 -17 q 159 7 182 -17 q 137 67 137 31 z "},"¿":{"ha":514,"x_min":31,"x_max":412,"o":"m 412 -252 q 273 -274 345 -274 q 99 -214 168 -274 q 31 -51 31 -154 q 62 75 31 24 q 149 171 93 127 q 234 255 206 218 q 262 343 262 291 q 252 412 262 374 l 328 412 q 346 309 346 360 q 320 207 346 250 q 245 125 293 163 q 168 51 199 87 q 137 -48 137 15 q 179 -149 137 -115 q 290 -183 221 -183 q 412 -163 345 -183 l 412 -252 m 377 602 q 354 536 377 561 q 291 511 331 511 q 229 536 252 511 q 206 595 206 561 q 230 662 206 638 q 295 686 254 686 q 355 662 333 686 q 377 602 377 638 z "},"/":{"ha":412,"x_min":-21,"x_max":432,"o":"m 343 926 l 432 926 l 69 -206 l -21 -206 l 343 926 z "},"\\":{"ha":412,"x_min":-21,"x_max":432,"o":"m 432 -206 l 343 -206 l -21 926 l 69 926 l 432 -206 z "},"|":{"ha":412,"x_min":163,"x_max":249,"o":"m 163 1046 l 249 1046 l 249 -326 l 163 -326 l 163 1046 z "},"(":{"ha":463,"x_min":79,"x_max":429,"o":"m 189 417 q 429 -206 189 55 l 329 -206 q 81 410 79 72 q 329 1029 79 746 l 429 1029 q 189 417 189 770 z "},")":{"ha":463,"x_min":34,"x_max":384,"o":"m 274 410 q 34 1029 274 770 l 134 1029 q 382 417 384 746 q 134 -206 384 72 l 34 -206 q 274 410 274 55 z "},"[":{"ha":412,"x_min":103,"x_max":343,"o":"m 103 1029 l 343 1029 l 343 943 l 197 943 l 197 -120 l 343 -120 l 343 -206 l 103 -206 l 103 1029 z "},"]":{"ha":412,"x_min":69,"x_max":309,"o":"m 309 -206 l 69 -206 l 69 -120 l 214 -120 l 214 943 l 69 943 l 69 1029 l 309 1029 l 309 -206 z "},"{":{"ha":463,"x_min":43,"x_max":394,"o":"m 137 410 q 228 350 199 393 q 257 233 257 307 l 257 -38 q 279 -103 257 -86 q 334 -120 302 -120 l 394 -120 l 394 -206 l 334 -206 q 206 -165 249 -206 q 163 -33 163 -123 l 163 235 q 132 340 163 309 q 43 370 101 370 l 43 453 q 132 483 101 453 q 163 585 163 513 l 163 856 q 208 988 163 947 q 338 1029 254 1029 l 394 1029 l 394 943 l 331 943 q 279 927 300 943 q 257 861 257 910 l 257 590 q 228 472 257 514 q 137 413 199 429 l 137 410 z "},"}":{"ha":463,"x_min":69,"x_max":420,"o":"m 326 413 q 235 472 264 429 q 206 590 206 514 l 206 861 q 184 927 206 910 q 132 943 163 943 l 69 943 l 69 1029 l 125 1029 q 255 988 209 1029 q 300 856 300 947 l 300 585 q 331 483 300 513 q 420 453 362 453 l 420 370 q 331 340 362 370 q 300 235 300 309 l 300 -33 q 257 -165 300 -123 q 129 -206 214 -206 l 69 -206 l 69 -120 l 129 -120 q 183 -103 161 -120 q 206 -38 206 -86 l 206 233 q 235 350 206 307 q 326 410 264 393 l 326 413 z "},"'":{"ha":257,"x_min":72,"x_max":185,"o":"m 72 926 l 185 926 l 163 617 l 94 617 l 72 926 z "},"\"":{"ha":463,"x_min":72,"x_max":391,"o":"m 72 926 l 185 926 l 163 617 l 94 617 l 72 926 m 278 926 l 391 926 l 369 617 l 300 617 l 278 926 z "},"*":{"ha":617,"x_min":67,"x_max":566,"o":"m 370 977 l 355 785 l 537 857 l 566 754 l 379 715 l 506 562 l 420 497 l 317 667 l 214 499 l 130 564 l 254 715 l 67 756 l 99 857 l 278 787 l 264 977 l 370 977 z "},"-":{"ha":360,"x_min":51,"x_max":309,"o":"m 51 394 l 309 394 l 309 309 l 51 309 l 51 394 z "},"­":{"ha":360,"x_min":51,"x_max":309,"o":"m 51 394 l 309 394 l 309 309 l 51 309 l 51 394 z "},"–":{"ha":720,"x_min":51,"x_max":669,"o":"m 51 394 l 669 394 l 669 309 l 51 309 l 51 394 z "},"—":{"ha":1389,"x_min":51,"x_max":1337,"o":"m 51 394 l 1337 394 l 1337 309 l 51 309 l 51 394 z "},"‘":{"ha":257,"x_min":51,"x_max":223,"o":"m 125 583 q 51 729 51 653 q 173 943 51 835 l 223 897 q 154 768 154 830 q 216 660 154 718 l 125 583 z "},"’":{"ha":257,"x_min":34,"x_max":206,"o":"m 132 943 q 206 797 206 873 q 84 583 206 691 l 34 629 q 103 758 103 696 q 41 866 103 808 l 132 943 z "},"“":{"ha":463,"x_min":51,"x_max":429,"o":"m 125 583 q 51 729 51 653 q 173 943 51 835 l 223 897 q 154 768 154 830 q 216 660 154 718 l 125 583 m 331 583 q 257 729 257 653 q 379 943 257 835 l 429 897 q 360 768 360 830 q 422 660 360 718 l 331 583 z "},"”":{"ha":463,"x_min":34,"x_max":412,"o":"m 132 943 q 206 797 206 873 q 84 583 206 691 l 34 629 q 103 758 103 696 q 41 866 103 808 l 132 943 m 338 943 q 412 797 412 873 q 290 583 412 691 l 240 629 q 309 758 309 696 q 247 866 309 808 l 338 943 z "},"‚":{"ha":257,"x_min":34,"x_max":206,"o":"m 132 202 q 206 57 206 132 q 84 -158 206 -50 l 34 -111 q 103 17 103 -45 q 41 125 103 67 l 132 202 z "},"„":{"ha":463,"x_min":34,"x_max":412,"o":"m 132 202 q 206 57 206 132 q 84 -158 206 -50 l 34 -111 q 103 17 103 -45 q 41 125 103 67 l 132 202 m 338 202 q 412 57 412 132 q 290 -158 412 -50 l 240 -111 q 309 17 309 -45 q 247 125 309 67 l 338 202 z "},"‹":{"ha":360,"x_min":51,"x_max":309,"o":"m 51 334 l 197 566 l 309 566 l 163 334 l 309 103 l 197 103 l 51 334 z "},"›":{"ha":360,"x_min":51,"x_max":309,"o":"m 309 334 l 163 103 l 51 103 l 197 334 l 51 566 l 163 566 l 309 334 z "},"«":{"ha":566,"x_min":51,"x_max":514,"o":"m 51 334 l 197 566 l 309 566 l 163 334 l 309 103 l 197 103 l 51 334 m 257 334 l 403 566 l 514 566 l 369 334 l 514 103 l 403 103 l 257 334 z "},"»":{"ha":566,"x_min":51,"x_max":514,"o":"m 309 334 l 163 103 l 51 103 l 197 334 l 51 566 l 163 566 l 309 334 m 514 334 l 369 103 l 257 103 l 403 334 l 257 566 l 369 566 l 514 334 z "},"†":{"ha":617,"x_min":51,"x_max":566,"o":"m 352 669 l 566 669 l 566 592 l 352 592 l 352 -257 l 266 -257 l 266 592 l 51 592 l 51 669 l 266 669 l 266 926 l 352 926 l 352 669 z "},"‡":{"ha":617,"x_min":51,"x_max":566,"o":"m 266 0 l 51 0 l 51 77 l 266 77 l 266 592 l 51 592 l 51 669 l 266 669 l 266 926 l 352 926 l 352 669 l 566 669 l 566 592 l 352 592 l 352 77 l 566 77 l 566 0 l 352 0 l 352 -257 l 266 -257 l 266 0 z "},"¶":{"ha":772,"x_min":17,"x_max":703,"o":"m 309 -257 l 309 412 q 93 484 170 415 q 17 679 17 552 q 90 862 17 797 q 316 926 163 926 l 703 926 l 703 840 l 617 840 l 617 -257 l 514 -257 l 514 840 l 412 840 l 412 -257 l 309 -257 z "},"§":{"ha":720,"x_min":103,"x_max":617,"o":"m 120 727 q 191 884 120 825 q 386 943 262 943 q 583 900 489 943 l 583 737 l 494 737 l 494 840 q 377 857 434 857 q 266 830 309 857 q 223 748 223 802 q 237 693 223 717 q 273 651 250 669 q 327 618 297 633 q 391 588 357 604 q 470 550 430 571 q 543 502 509 530 q 597 435 576 473 q 617 340 617 396 q 475 134 617 195 l 475 130 q 600 -58 600 65 q 529 -215 600 -156 q 334 -274 458 -274 q 137 -231 231 -274 l 137 -69 l 226 -69 l 226 -171 q 343 -189 285 -189 q 454 -161 412 -189 q 497 -79 497 -134 q 483 -24 497 -48 q 444 19 468 0 q 390 52 420 38 q 329 81 360 67 q 243 121 285 99 q 171 171 202 142 q 122 237 141 199 q 103 328 103 276 q 247 535 103 470 l 247 538 q 120 727 120 600 m 514 319 q 500 381 514 355 q 461 426 485 406 q 406 461 437 446 q 316 502 374 477 q 206 346 206 453 q 219 286 206 312 q 258 242 233 261 q 315 207 283 223 q 405 166 346 192 q 514 319 514 214 z "},"·":{"ha":309,"x_min":69,"x_max":240,"o":"m 69 331 q 92 397 69 372 q 154 422 115 422 q 217 397 194 422 q 240 338 240 372 q 216 271 240 295 q 151 247 192 247 q 91 271 113 247 q 69 331 69 295 z "},"•":{"ha":412,"x_min":94,"x_max":317,"o":"m 94 470 q 124 552 94 521 q 206 583 154 583 q 286 553 255 583 q 317 473 317 523 q 286 390 317 420 q 202 360 255 360 q 124 390 154 360 q 94 470 94 420 z "},"^":{"ha":617,"x_min":46,"x_max":573,"o":"m 307 823 l 146 463 l 46 463 l 271 934 l 348 934 l 573 463 l 473 463 l 310 823 l 307 823 z "},"~":{"ha":720,"x_min":51,"x_max":669,"o":"m 51 369 q 230 430 139 430 q 312 418 278 430 q 376 391 346 405 q 430 368 403 377 q 489 358 456 358 q 669 427 580 358 l 669 336 q 487 274 578 274 q 407 287 441 274 q 345 314 374 300 q 290 338 317 328 q 228 348 262 348 q 51 278 142 348 l 51 369 z "},"¦":{"ha":412,"x_min":154,"x_max":257,"o":"m 154 360 l 257 360 l 257 -17 l 154 -17 l 154 360 m 154 943 l 257 943 l 257 566 l 154 566 l 154 943 z "},"_":{"ha":514,"x_min":-17,"x_max":532,"o":"m -17 -77 l 532 -77 l 532 -154 l -17 -154 l -17 -77 z "},"@":{"ha":1132,"x_min":86,"x_max":1063,"o":"m 823 -213 q 566 -257 698 -257 q 216 -117 346 -257 q 86 252 86 22 q 231 659 86 496 q 604 823 376 823 q 937 687 811 823 q 1063 348 1063 550 q 991 88 1063 194 q 813 -17 919 -17 q 709 21 749 -17 q 669 134 669 60 l 667 134 q 490 -17 604 -17 q 376 48 418 -17 q 334 214 334 113 q 409 465 334 364 q 612 566 484 566 q 784 535 689 566 l 766 300 q 756 146 756 199 q 813 70 756 70 q 921 150 878 70 q 964 348 964 230 q 862 626 964 520 q 602 732 760 732 q 306 599 424 732 q 189 262 189 466 q 293 -49 189 65 q 573 -163 398 -163 q 823 -118 691 -163 l 823 -213 m 681 477 q 607 487 646 487 q 490 411 533 487 q 446 221 446 334 q 462 112 446 151 q 516 74 478 74 q 618 167 576 74 q 670 362 660 261 l 681 477 z "},"©":{"ha":1080,"x_min":69,"x_max":1012,"o":"m 737 231 q 542 177 646 177 q 334 255 410 177 q 257 461 257 333 q 334 670 257 592 q 542 749 410 749 q 737 703 641 749 l 737 544 l 652 544 l 652 645 q 540 669 607 669 q 405 616 449 669 q 360 470 360 564 q 408 315 360 372 q 549 257 456 257 q 737 316 636 257 l 737 231 m 69 463 q 199 811 69 679 q 538 943 329 943 q 880 810 748 943 q 1012 463 1012 677 q 880 115 1012 247 q 538 -17 748 -17 q 199 115 329 -17 q 69 463 69 247 m 154 463 q 256 168 154 276 q 538 60 358 60 q 822 168 718 60 q 926 463 926 276 q 822 760 926 653 q 538 866 718 866 q 256 760 358 866 q 154 463 154 653 z "},"™":{"ha":1440,"x_min":69,"x_max":1389,"o":"m 171 458 l 261 458 l 261 845 l 149 845 l 149 737 l 69 737 l 69 926 l 549 926 l 549 737 l 472 737 l 472 845 l 355 845 l 355 458 l 446 458 l 446 377 l 171 377 l 171 458 m 1200 799 l 1031 374 l 960 374 l 787 787 l 784 787 l 772 458 l 840 458 l 840 377 l 609 377 l 609 458 l 689 458 l 705 845 l 617 845 l 617 926 l 830 926 l 1000 520 l 1003 520 l 1168 926 l 1375 926 l 1375 845 l 1293 845 l 1308 458 l 1389 458 l 1389 377 l 1149 377 l 1149 458 l 1217 458 l 1204 799 l 1200 799 z "},"®":{"ha":1080,"x_min":69,"x_max":1012,"o":"m 454 257 l 525 257 l 525 178 l 291 178 l 291 257 l 360 257 l 360 669 l 291 669 l 291 748 l 528 748 q 700 707 645 748 q 754 593 754 667 q 722 489 754 532 q 607 430 689 446 l 607 427 q 651 406 628 422 q 696 353 674 389 l 753 257 l 823 257 l 823 178 l 682 178 q 638 261 662 219 l 597 333 q 546 398 569 382 q 485 413 523 413 l 454 413 l 454 257 m 508 489 q 618 511 585 489 q 652 585 652 533 q 621 648 652 628 q 520 669 590 669 l 454 669 l 454 489 l 508 489 m 69 463 q 199 811 69 679 q 538 943 329 943 q 880 810 748 943 q 1012 463 1012 677 q 880 115 1012 247 q 538 -17 748 -17 q 199 115 329 -17 q 69 463 69 247 m 154 463 q 256 168 154 276 q 538 60 358 60 q 822 168 718 60 q 926 463 926 276 q 822 760 926 653 q 538 866 718 866 q 256 760 358 866 q 154 463 154 653 z "},"¤":{"ha":772,"x_min":21,"x_max":751,"o":"m 96 17 l 21 91 l 153 219 q 103 384 103 295 q 153 550 103 480 l 21 679 l 93 751 l 218 617 q 386 669 293 669 q 550 621 478 669 l 679 754 l 751 679 l 617 552 q 669 384 669 480 q 617 218 669 295 l 749 89 l 677 15 l 549 149 q 386 103 478 103 q 223 149 293 103 l 96 17 m 197 384 q 249 240 197 291 q 384 189 300 189 q 523 240 472 189 q 574 384 574 291 q 523 530 574 477 q 384 583 472 583 q 249 530 300 583 q 197 384 197 477 z "},"€":{"ha":772,"x_min":33,"x_max":720,"o":"m 48 412 l 122 412 q 120 461 120 436 q 122 514 120 485 l 38 514 l 51 592 l 130 592 q 259 850 159 758 q 513 943 358 943 q 720 905 624 943 l 720 746 l 634 746 l 634 840 q 511 857 585 857 q 235 592 274 857 l 621 592 l 604 514 l 228 514 q 226 470 226 494 q 228 412 226 441 l 583 412 l 566 334 l 237 334 q 330 135 259 201 q 514 69 401 69 q 720 108 605 69 l 720 22 q 509 -17 616 -17 q 255 73 353 -17 q 129 334 158 163 l 33 334 l 48 412 z "},"$":{"ha":720,"x_min":65,"x_max":634,"o":"m 309 -120 l 309 -3 q 69 39 187 -2 l 69 223 l 158 223 l 158 105 q 309 84 216 86 l 309 427 q 120 539 175 482 q 65 688 65 597 q 129 849 65 785 q 309 926 194 912 l 309 1046 l 388 1046 l 388 928 q 604 883 513 921 l 604 720 l 514 720 l 514 821 q 388 842 456 840 l 388 506 q 576 392 518 451 q 634 243 634 333 q 572 82 634 147 q 388 2 509 17 l 388 -120 l 309 -120 m 528 226 q 490 329 528 291 q 388 396 453 367 l 388 87 q 494 137 460 99 q 528 226 528 175 m 171 701 q 207 602 171 638 q 309 538 243 566 l 309 840 q 205 793 238 832 q 171 701 171 754 z "},"ƒ":{"ha":566,"x_min":-34,"x_max":566,"o":"m 566 833 q 494 840 523 840 q 370 797 410 840 q 322 641 331 754 l 314 540 l 480 540 l 480 463 l 309 463 l 281 120 q 207 -120 269 -34 q 34 -206 146 -206 q -34 -199 -3 -206 l -34 -115 q 26 -120 -7 -120 q 135 -62 99 -120 q 182 123 171 -3 l 209 463 l 86 463 l 86 540 l 216 540 l 226 646 q 300 855 237 784 q 484 926 364 926 q 566 919 526 926 l 566 833 z "},"¢":{"ha":617,"x_min":69,"x_max":566,"o":"m 309 -120 l 309 0 q 132 96 195 14 q 69 329 69 178 q 135 569 69 485 q 309 667 201 653 l 309 789 l 388 789 l 388 670 q 484 656 439 667 q 566 628 528 645 l 566 475 l 480 475 l 480 571 q 436 582 460 578 q 388 588 413 586 l 388 82 q 566 142 468 87 l 566 51 q 388 -2 482 3 l 388 -120 l 309 -120 m 309 585 q 207 513 238 569 q 175 341 175 456 q 208 163 175 223 q 309 87 242 103 l 309 585 z "},"£":{"ha":669,"x_min":69,"x_max":617,"o":"m 69 480 l 168 480 q 137 676 137 614 q 209 859 137 792 q 401 926 281 926 q 600 878 508 926 l 600 706 l 511 706 l 511 820 q 396 840 458 840 q 280 800 321 840 q 240 684 240 760 q 273 480 240 626 l 497 480 l 497 403 l 286 403 q 291 340 291 367 q 183 89 291 185 l 183 86 l 528 86 l 528 206 l 617 206 l 617 0 l 69 0 l 69 74 q 189 334 189 166 q 183 403 189 367 l 69 403 l 69 480 z "},"¥":{"ha":720,"x_min":0,"x_max":720,"o":"m 372 489 l 549 840 l 463 840 l 463 926 l 720 926 l 720 840 l 641 840 l 460 489 l 617 489 l 617 412 l 412 412 l 412 309 l 617 309 l 617 231 l 412 231 l 412 86 l 514 86 l 514 0 l 206 0 l 206 86 l 309 86 l 309 231 l 105 231 l 105 309 l 309 309 l 309 412 l 105 412 l 105 489 l 261 489 l 72 840 l 0 840 l 0 926 l 255 926 l 255 840 l 182 840 l 369 489 l 372 489 z "},"#":{"ha":720,"x_min":51,"x_max":669,"o":"m 669 583 l 662 514 l 526 514 l 508 309 l 645 309 l 638 240 l 501 240 l 480 0 l 394 0 l 417 240 l 269 240 l 249 0 l 165 0 l 187 240 l 51 240 l 58 309 l 192 309 l 211 514 l 75 514 l 82 583 l 218 583 l 240 823 l 322 823 l 300 583 l 449 583 l 472 823 l 554 823 l 532 583 l 669 583 m 276 309 l 424 309 l 442 514 l 295 514 l 276 309 z "},"⁰":{"ha":617,"x_min":86,"x_max":532,"o":"m 86 650 q 149 868 86 794 q 316 943 213 943 q 473 868 415 943 q 532 660 532 794 q 469 436 532 511 q 305 360 406 360 q 147 436 207 360 q 86 650 86 511 m 182 655 q 213 495 182 549 q 309 441 245 441 q 403 495 370 441 q 436 655 436 549 q 406 811 436 760 q 309 862 376 862 q 214 814 247 862 q 182 655 182 765 z "},"¹":{"ha":412,"x_min":103,"x_max":300,"o":"m 206 377 l 206 845 l 103 845 l 103 926 l 300 926 l 300 377 l 206 377 z "},"²":{"ha":566,"x_min":69,"x_max":497,"o":"m 497 532 l 497 377 l 69 377 l 69 453 q 292 633 201 545 q 384 790 384 720 q 358 845 384 826 q 278 864 331 864 q 166 840 219 864 l 166 737 l 86 737 l 86 888 q 291 943 183 943 q 433 905 386 943 q 480 799 480 868 q 397 622 480 706 q 209 460 314 537 l 209 456 l 417 456 l 417 532 l 497 532 z "},"³":{"ha":566,"x_min":69,"x_max":497,"o":"m 69 472 q 242 439 151 439 q 356 460 310 439 q 401 532 401 482 q 362 595 401 573 q 228 617 322 617 l 189 617 l 189 693 l 216 693 q 339 717 300 693 q 377 785 377 741 q 350 842 377 820 q 259 864 322 864 q 149 847 197 864 l 149 772 l 69 772 l 69 893 q 266 943 163 943 q 413 903 357 943 q 470 796 470 862 q 374 670 470 706 l 374 667 q 497 532 497 640 q 426 405 497 449 q 247 360 355 360 q 69 388 141 360 l 69 472 z "},"⁴":{"ha":566,"x_min":17,"x_max":514,"o":"m 309 506 l 17 506 l 17 574 l 321 934 l 412 934 l 412 583 l 514 583 l 514 506 l 412 506 l 412 377 l 309 377 l 309 506 m 125 583 l 309 583 l 309 802 l 305 802 l 123 586 l 125 583 z "},"⁄":{"ha":154,"x_min":-291,"x_max":446,"o":"m 446 943 l -189 0 l -291 0 l 343 943 l 446 943 z "},"∕":{"ha":154,"x_min":-291,"x_max":446,"o":"m 446 943 l -189 0 l -291 0 l 343 943 l 446 943 z "},"¼":{"ha":1183,"x_min":103,"x_max":1132,"o":"m 206 377 l 206 845 l 103 845 l 103 926 l 300 926 l 300 377 l 206 377 m 934 943 l 300 0 l 197 0 l 832 943 l 934 943 m 926 147 l 634 147 l 634 216 l 938 576 l 1029 576 l 1029 225 l 1132 225 l 1132 147 l 1029 147 l 1029 19 l 926 19 l 926 147 m 742 225 l 926 225 l 926 444 l 922 444 l 741 228 l 742 225 z "},"½":{"ha":1235,"x_min":103,"x_max":1166,"o":"m 206 377 l 206 845 l 103 845 l 103 926 l 300 926 l 300 377 l 206 377 m 934 943 l 300 0 l 197 0 l 832 943 l 934 943 m 1166 173 l 1166 19 l 737 19 l 737 94 q 961 274 869 187 q 1053 432 1053 362 q 1026 487 1053 468 q 947 506 1000 506 q 835 482 888 506 l 835 379 l 754 379 l 754 530 q 960 585 852 585 q 1102 547 1055 585 q 1149 441 1149 509 q 1066 263 1149 348 q 878 101 983 178 l 878 98 l 1085 98 l 1085 173 l 1166 173 z "},"¾":{"ha":1286,"x_min":69,"x_max":1235,"o":"m 69 472 q 242 439 151 439 q 356 460 310 439 q 401 532 401 482 q 362 595 401 573 q 228 617 322 617 l 189 617 l 189 693 l 216 693 q 339 717 300 693 q 377 785 377 741 q 350 842 377 820 q 259 864 322 864 q 149 847 197 864 l 149 772 l 69 772 l 69 893 q 266 943 163 943 q 413 903 357 943 q 470 796 470 862 q 374 670 470 706 l 374 667 q 497 532 497 640 q 426 405 497 449 q 247 360 355 360 q 69 388 141 360 l 69 472 m 1037 943 l 403 0 l 300 0 l 934 943 l 1037 943 m 1029 147 l 737 147 l 737 216 l 1041 576 l 1132 576 l 1132 225 l 1235 225 l 1235 147 l 1132 147 l 1132 19 l 1029 19 l 1029 147 m 845 225 l 1029 225 l 1029 444 l 1025 444 l 844 228 l 845 225 z "},"%":{"ha":1337,"x_min":86,"x_max":1252,"o":"m 86 650 q 149 868 86 794 q 316 943 213 943 q 473 868 415 943 q 532 660 532 794 q 469 436 532 511 q 305 360 406 360 q 147 436 207 360 q 86 650 86 511 m 182 655 q 213 495 182 549 q 309 441 245 441 q 403 495 370 441 q 436 655 436 549 q 406 811 436 760 q 309 862 376 862 q 214 814 247 862 q 182 655 182 765 m 1037 943 l 403 0 l 300 0 l 934 943 l 1037 943 m 806 291 q 869 510 806 436 q 1036 585 933 585 q 1193 510 1135 585 q 1252 302 1252 436 q 1189 77 1252 153 q 1025 2 1127 2 q 867 77 928 2 q 806 291 806 153 m 902 297 q 934 136 902 190 q 1029 82 965 82 q 1123 136 1091 82 q 1156 297 1156 190 q 1126 453 1156 401 q 1029 504 1096 504 q 934 455 967 504 q 902 297 902 406 z "},"‰":{"ha":1852,"x_min":86,"x_max":1766,"o":"m 86 650 q 149 868 86 794 q 316 943 213 943 q 473 868 415 943 q 532 660 532 794 q 469 436 532 511 q 305 360 406 360 q 147 436 207 360 q 86 650 86 511 m 182 655 q 213 495 182 549 q 309 441 245 441 q 403 495 370 441 q 436 655 436 549 q 406 811 436 760 q 309 862 376 862 q 214 814 247 862 q 182 655 182 765 m 1037 943 l 403 0 l 300 0 l 934 943 l 1037 943 m 806 291 q 869 510 806 436 q 1036 585 933 585 q 1193 510 1135 585 q 1252 302 1252 436 q 1189 77 1252 153 q 1025 2 1127 2 q 867 77 928 2 q 806 291 806 153 m 902 297 q 934 136 902 190 q 1029 82 965 82 q 1123 136 1091 82 q 1156 297 1156 190 q 1126 453 1156 401 q 1029 504 1096 504 q 934 455 967 504 q 902 297 902 406 m 1320 291 q 1384 510 1320 436 q 1550 585 1447 585 q 1708 510 1650 585 q 1766 302 1766 436 q 1704 77 1766 153 q 1540 2 1641 2 q 1381 77 1442 2 q 1320 291 1320 153 m 1416 297 q 1448 136 1416 190 q 1543 82 1480 82 q 1638 136 1605 82 q 1670 297 1670 190 q 1640 453 1670 401 q 1543 504 1610 504 q 1449 455 1481 504 q 1416 297 1416 406 z "},"+":{"ha":669,"x_min":51,"x_max":617,"o":"m 381 86 l 288 86 l 288 314 l 51 314 l 51 406 l 288 406 l 288 634 l 381 634 l 381 406 l 617 406 l 617 314 l 381 314 l 381 86 z "},"−":{"ha":669,"x_min":51,"x_max":617,"o":"m 51 314 l 51 406 l 617 406 l 617 314 l 51 314 z "},"±":{"ha":669,"x_min":51,"x_max":617,"o":"m 381 137 l 288 137 l 288 314 l 51 314 l 51 406 l 288 406 l 288 583 l 381 583 l 381 406 l 617 406 l 617 314 l 381 314 l 381 137 m 51 5 l 51 98 l 617 98 l 617 5 l 51 5 z "},"×":{"ha":677,"x_min":60,"x_max":609,"o":"m 609 151 l 544 86 l 334 295 l 125 86 l 60 151 l 269 360 l 60 569 l 125 634 l 334 425 l 544 634 l 609 569 l 400 360 l 609 151 z "},"÷":{"ha":669,"x_min":51,"x_max":617,"o":"m 261 146 q 280 202 261 182 q 336 223 300 223 q 388 203 369 223 q 406 149 406 183 q 388 95 406 115 q 334 75 369 75 q 280 95 300 75 q 261 146 261 115 m 261 568 q 280 624 261 604 q 336 645 300 645 q 388 625 369 645 q 406 571 406 605 q 388 517 406 537 q 334 497 369 497 q 280 517 300 497 q 261 568 261 537 m 51 314 l 51 406 l 617 406 l 617 314 l 51 314 z "},"=":{"ha":669,"x_min":51,"x_max":617,"o":"m 51 422 l 51 514 l 617 514 l 617 422 l 51 422 m 51 206 l 51 298 l 617 298 l 617 206 l 51 206 z "},"<":{"ha":669,"x_min":51,"x_max":617,"o":"m 166 358 l 617 201 l 617 103 l 51 314 l 51 406 l 617 617 l 617 523 l 166 362 l 166 358 z "},">":{"ha":669,"x_min":51,"x_max":617,"o":"m 502 362 l 51 523 l 51 617 l 617 406 l 617 314 l 51 103 l 51 201 l 502 358 l 502 362 z "},"¬":{"ha":669,"x_min":51,"x_max":607,"o":"m 607 86 l 514 86 l 514 314 l 51 314 l 51 406 l 607 406 l 607 86 z "},"ª":{"ha":566,"x_min":51,"x_max":532,"o":"m 86 835 q 271 874 173 874 q 408 832 362 874 q 454 705 454 789 l 454 458 l 532 458 l 532 377 l 370 377 l 365 437 l 362 437 q 204 360 295 360 q 93 399 135 360 q 51 501 51 437 q 334 660 51 660 l 360 660 l 360 686 q 259 794 360 794 q 86 753 170 794 l 86 835 m 333 592 q 195 573 243 592 q 147 506 147 554 q 169 458 147 475 q 228 441 190 441 q 360 509 309 441 l 360 592 l 333 592 z "},"º":{"ha":566,"x_min":51,"x_max":514,"o":"m 51 616 q 116 802 51 730 q 291 874 180 874 q 455 806 396 874 q 514 626 514 737 q 450 434 514 508 q 281 360 386 360 q 113 430 175 360 q 51 616 51 501 m 149 628 q 184 489 149 537 q 286 441 219 441 q 385 486 353 441 q 417 619 417 532 q 385 748 417 703 q 281 794 353 794 q 183 754 218 794 q 149 628 149 713 z "},"°":{"ha":514,"x_min":51,"x_max":480,"o":"m 51 729 q 111 882 51 821 q 266 943 170 943 q 420 882 360 943 q 480 729 480 821 q 420 575 480 636 q 266 514 360 514 q 111 575 170 514 q 51 729 51 636 m 144 729 q 178 636 144 672 q 266 600 213 600 q 356 636 322 600 q 389 729 389 672 q 356 820 389 785 q 266 856 322 856 q 178 820 213 856 q 144 729 144 785 z "},"µ":{"ha":669,"x_min":86,"x_max":652,"o":"m 86 -309 l 86 669 l 189 669 l 189 168 q 317 69 225 69 q 463 170 413 69 l 463 669 l 566 669 l 566 86 l 652 86 l 652 0 l 475 0 l 470 77 l 466 77 q 322 -17 410 -17 q 192 60 231 -17 l 189 60 l 189 -309 l 86 -309 z "}}}
